<?xml version="1.0" encoding="UTF-8"?>
<svg width="36px" height="36px" viewBox="0 0 36 36" version="1.1" xmlns="http://www.w3.org/2000/svg" xmlns:xlink="http://www.w3.org/1999/xlink">
    <!-- Generator: Sketch 52.2 (67145) - http://www.bohemiancoding.com/sketch -->
    <title>viber</title>
    <desc>Created with Sketch.</desc>
    <g id="corporate-website-RU" stroke="none" stroke-width="1" fill="none" fill-rule="evenodd">
        <g id="profile-(en)-copy-2" transform="translate(-265.000000, -344.000000)">
            <g id="viber" transform="translate(265.000000, 344.000000)">
                <rect id="Rectangle-2-Copy-2" fill="#665CAC" x="0" y="0" width="36" height="36" rx="18"></rect>
                <g id="Group-14-Copy" transform="translate(8.000000, 8.000000)" fill="#FFFFFF">
                    <path d="M17.8276547,2.34112916 C17.3114068,1.87304446 15.2265289,0.380975471 10.581491,0.360589873 C10.581491,0.360589873 5.10361559,0.0348123295 2.43368327,2.44972168 C0.947382507,3.91474054 0.424373272,6.05836462 0.369089407,8.71711709 C0.314203266,11.3758696 0.242612649,16.3574041 5.11475191,17.7087341 C5.11634281,17.7091261 5.11793371,17.7095182 5.11952461,17.7099102 L5.11634281,19.7708158 C5.11634281,19.7708158 5.08571793,20.6058413 5.64253385,20.7759826 C6.31707656,20.9821908 6.71281358,20.347885 7.35673141,19.6641834 C7.71030952,19.28901 8.19752345,18.7374228 8.5658174,18.3159897 C11.8979629,18.5911953 14.4605093,17.9604178 14.7516445,17.8675065 C15.4245963,17.6514976 19.2316263,17.171652 19.8508851,12.1901174 C20.4892348,7.0541227 19.5410568,3.80614803 17.8276547,2.34112916 M18.3920274,11.8192563 C17.8682227,15.9787024 14.7818716,16.241363 14.2127262,16.4213052 C13.9705113,16.4981432 11.7189864,17.0501225 8.88916836,16.8678282 C8.88916836,16.8678282 6.78002922,19.3756488 6.12179326,20.0279879 C6.01878232,20.1299159 5.89787372,20.1706871 5.81713541,20.1514776 C5.7037836,20.1244275 5.67236327,19.9919211 5.67395417,19.7982579 C5.67554508,19.5218763 5.69185183,16.3730854 5.69185183,16.3730854 C5.6882723,16.3723013 5.68946547,16.3726933 5.69105638,16.3730854 C1.57061861,15.2444289 1.8108449,11.0038324 1.8573788,8.78376231 C1.9039127,6.56330021 2.3270928,4.74427759 3.58470132,3.52074965 C5.84298758,1.50453557 10.4955823,1.80561517 10.4955823,1.80561517 C14.424714,1.82286453 16.3075472,2.98876394 16.74425,3.37961859 C18.1935623,4.60314652 18.9321388,7.53044004 18.3920274,11.8192563" id="Fill-4775"></path>
                    <path d="M12.4933185,8.8600907 C12.3541145,8.8600907 12.2383763,8.75267427 12.2312173,8.61428742 C12.186672,7.73535451 11.7666737,7.30490476 10.9095749,7.25982122 C10.7648028,7.25198061 10.6534396,7.13005905 10.6613941,6.98735986 C10.6693486,6.84466067 10.7930413,6.73489207 10.9378134,6.74273268 C12.0689452,6.80271338 12.6977494,7.44093942 12.7558174,8.5884134 C12.7629765,8.73111258 12.6516133,8.85264211 12.5064434,8.85969867 C12.5020684,8.8600907 12.4976934,8.8600907 12.4933185,8.8600907" id="Fill-4777"></path>
                    <path d="M13.8412902,9.30543762 L13.8353244,9.30543762 C13.6901545,9.30230137 13.5752118,9.18351606 13.5787913,9.04081687 C13.5990753,8.15561146 13.3425423,7.43897927 12.7944763,6.8501491 C12.2491945,6.262103 11.5006748,5.94181388 10.5055652,5.86968023 C10.3611908,5.8590954 10.2522139,5.73521368 10.2629525,5.59251449 C10.2736911,5.45020734 10.3993724,5.34279091 10.5441446,5.35337574 C11.6633446,5.43413408 12.5510682,5.82028435 13.1822588,6.50045768 C13.8166313,7.1829832 14.1268573,8.04153052 14.1037892,9.05257779 C14.1006074,9.19331682 13.983676,9.30543762 13.8412902,9.30543762" id="Fill-4779"></path>
                    <path d="M15.2213187,9.83742333 C15.077342,9.83742333 14.960013,9.72295035 14.9588198,9.58064319 C14.9464903,7.99762307 14.4839354,6.78899231 13.5449051,5.88496943 C12.6170111,4.99427559 11.4445159,4.53716775 10.0600329,4.52736698 C9.91526077,4.52658292 9.79832943,4.40975776 9.79952261,4.26666654 C9.80031806,4.12435938 9.91804485,4.0098864 10.0620215,4.0098864 L10.0640102,4.0098864 C11.5884926,4.02047123 12.8830896,4.52658292 13.9116081,5.51450038 C14.9417176,6.50594611 15.4706927,7.87256527 15.4838176,9.57672289 C15.4850108,9.71942207 15.3684772,9.83624723 15.2233073,9.83742333 L15.2213187,9.83742333 Z" id="Fill-4781"></path>
                    <path d="M10.9755576,12.0690975 C10.9755576,12.0690975 11.3450447,12.101244 11.5435098,11.858185 L11.9312923,11.3779473 C12.1178257,11.1392006 12.569642,10.9874847 13.0115152,11.2301517 C13.2577074,11.3669705 13.6987851,11.6359035 13.9756022,11.8366233 C14.268726,12.0491039 14.868894,12.5418866 14.8708826,12.5434547 C15.1572451,12.7814174 15.2232676,13.1311088 15.028382,13.4996177 C15.028382,13.5015778 15.0267911,13.5054981 15.0267911,13.5074583 C14.8267351,13.8559736 14.5590657,14.1821432 14.2202035,14.4867511 C14.2162262,14.4883192 14.2162262,14.4902793 14.2130444,14.4922395 C13.9350342,14.7207934 13.6617967,14.8505556 13.3937296,14.8823101 C13.3615138,14.8885826 13.3221389,14.8913268 13.2740141,14.8897587 C13.1566851,14.8909348 13.0405492,14.8736854 12.9256065,14.8368345 L12.9168565,14.8242895 C12.5036196,14.7094245 11.8139633,14.422066 10.6649339,13.797169 C9.9184028,13.3914172 9.29715533,12.9774327 8.77295292,12.5650164 C8.49573814,12.3497915 8.21096657,12.1047723 7.92182002,11.8213341 C7.91227461,11.8119253 7.90272919,11.8025166 7.89318378,11.7931079 C7.88363836,11.7836991 7.87409294,11.7742904 7.8641498,11.7648817 L7.8641498,11.7648817 L7.8641498,11.7644896 C7.85460439,11.7550809 7.84505897,11.7456721 7.83551356,11.7362634 C7.82596814,11.7268547 7.81642272,11.7174459 7.80687731,11.7080372 C7.51932166,11.4230309 7.27074313,11.1423368 7.05199402,10.8690914 C6.63398436,10.3523949 6.21398607,9.74004289 5.80234001,9.0042012 C5.16836532,7.87162439 4.87683242,7.19184309 4.7602988,6.78452316 L4.74757158,6.77550645 C4.71018537,6.66220957 4.69268544,6.54773659 4.69387862,6.43247955 C4.69188999,6.3846518 4.6950718,6.34623279 4.70103768,6.3144783 C4.73365118,6.05024958 4.86529838,5.78092447 5.09717243,5.50689498 C5.09916106,5.5033667 5.10114969,5.5033667 5.10274059,5.49983843 C5.41177342,5.16622027 5.74268117,4.90199155 6.09625927,4.70480009 C6.0982479,4.70480009 6.10222516,4.70323197 6.10381606,4.70323197 C6.4780759,4.51113691 6.83284718,4.57621401 7.07386893,4.85847614 C7.07585756,4.86004426 7.5757987,5.45201068 7.79136601,5.74093733 C7.99500154,6.01379073 8.26784134,6.44816078 8.40664759,6.69121984 C8.65283977,7.12676599 8.49852222,7.57211291 8.25670502,7.75597533 L7.76909337,8.13781326 C7.52290119,8.33382863 7.5555147,8.69802519 7.5555147,8.69802519 C7.5555147,8.69802519 8.27659131,11.3901003 10.9755576,12.0690975" id="Fill-4783"></path>
                </g>
            </g>
        </g>
    </g>
</svg>