<?xml version="1.0" encoding="UTF-8"?>
<svg width="44px" height="44px" viewBox="0 0 44 44" version="1.1" xmlns="http://www.w3.org/2000/svg" xmlns:xlink="http://www.w3.org/1999/xlink">
    <!-- Generator: Sketch 52.2 (67145) - http://www.bohemiancoding.com/sketch -->
    <title>icon-customize-widget</title>
    <desc>Created with Sketch.</desc>
    <g id="icon-customize-widget" stroke="none" stroke-width="1" fill="none" fill-rule="evenodd">
        <g fill-rule="nonzero">
            <rect id="Rectangle-Copy" fill-opacity="0" fill="#FFFFFF" x="0" y="0" width="44" height="44"></rect>
            <path d="M25.7142857,6.36857692 L7.61904762,24.463815 L7.61904762,29.1428571 L12.2980897,29.1428571 L30.3933278,11.047619 L25.7142857,6.36857692 Z M26.9938123,2.52999725 L34.2319075,9.76809249 C34.9385705,10.4747555 34.9385705,11.6204826 34.2319075,12.3271456 L14.3271456,32.2319075 C13.9877941,32.5712591 13.5275346,32.7619048 13.047619,32.7619048 L5.80952381,32.7619048 C4.81015141,32.7619048 4,31.9517534 4,30.952381 L4,23.7142857 C4,23.2343702 4.19064571,22.7741107 4.52999725,22.4347592 L24.4347592,2.52999725 C25.1414222,1.82333425 26.2871493,1.82333425 26.9938123,2.52999725 Z M5.80952381,41.8095238 C4.81015141,41.8095238 4,40.9993724 4,40 C4,39.0006276 4.81015141,38.1904762 5.80952381,38.1904762 L38.3809524,38.1904762 C39.3803248,38.1904762 40.1904762,39.0006276 40.1904762,40 C40.1904762,40.9993724 39.3803248,41.8095238 38.3809524,41.8095238 L5.80952381,41.8095238 Z" id="Combined-Shape" fill="#111111"></path>
        </g>
    </g>
</svg>