<?xml version="1.0" encoding="UTF-8"?>
<svg width="44px" height="44px" viewBox="0 0 44 44" version="1.1" xmlns="http://www.w3.org/2000/svg" xmlns:xlink="http://www.w3.org/1999/xlink">
    <!-- Generator: Sketch 52.2 (67145) - http://www.bohemiancoding.com/sketch -->
    <title>icon-install-on-website</title>
    <desc>Created with Sketch.</desc>
    <g id="icon-install-on-website" stroke="none" stroke-width="1" fill="none" fill-rule="evenodd">
        <g fill-rule="nonzero">
            <rect id="Rectangle-Copy-9" fill-opacity="0" fill="#FFFFFF" x="0" y="0" width="44" height="44"></rect>
            <path d="M28.5857864,11.4142136 C27.8047379,10.633165 27.8047379,9.36683502 28.5857864,8.58578644 C29.366835,7.80473785 30.633165,7.80473785 31.4142136,8.58578644 L43.4142136,20.5857864 C44.1952621,21.366835 44.1952621,22.633165 43.4142136,23.4142136 L31.4142136,35.4142136 C30.633165,36.1952621 29.366835,36.1952621 28.5857864,35.4142136 C27.8047379,34.633165 27.8047379,33.366835 28.5857864,32.5857864 L39.1715729,22 L28.5857864,11.4142136 Z M4.82842712,22 L15.4142136,32.5857864 C16.1952621,33.366835 16.1952621,34.633165 15.4142136,35.4142136 C14.633165,36.1952621 13.366835,36.1952621 12.5857864,35.4142136 L0.585786438,23.4142136 C-0.195262146,22.633165 -0.195262146,21.366835 0.585786438,20.5857864 L12.5857864,8.58578644 C13.366835,7.80473785 14.633165,7.80473785 15.4142136,8.58578644 C16.1952621,9.36683502 16.1952621,10.633165 15.4142136,11.4142136 L4.82842712,22 Z" id="Combined-Shape" fill="#111111"></path>
        </g>
    </g>
</svg>