<?xml version="1.0" encoding="UTF-8"?>
<svg width="26px" height="17px" viewBox="0 0 26 17" version="1.1" xmlns="http://www.w3.org/2000/svg" xmlns:xlink="http://www.w3.org/1999/xlink">
    <!-- Generator: sketchtool 54.1 (76490) - https://sketchapp.com -->
    <title>565A8E30-023D-4FA1-B727-4AF5BAC2BD33</title>
    <desc>Created with sketchtool.</desc>
    <g id="Boarding" stroke="none" stroke-width="1" fill="none" fill-rule="evenodd">
        <g id="Sharing-page" transform="translate(-31.000000, -512.000000)">
            <g id="Group-5" transform="translate(31.000000, 512.999999)">
                <path d="M17.1029216,14.2830057 C16.7069362,14.6679915 16.6980193,15.3010937 17.0830051,15.697079 C17.4679908,16.0930644 18.101093,16.1019813 18.4970784,15.7169955 L25.6970784,8.71699554 C26.1009739,8.32431938 26.1009739,7.67568186 25.6970784,7.2830057 L18.4970784,0.283005704 C18.101093,-0.101980062 17.4679908,-0.0930631301 17.0830051,0.302922229 C16.6980193,0.698907589 16.7069362,1.33200978 17.1029216,1.71699554 L23.5654411,8.00000062 L17.1029216,14.2830057 Z" id="Path" fill="#000000" fill-rule="nonzero"></path>
                <path d="M2.43455888,8.00000062 L8.89707839,1.71699554 C9.29306375,1.33200978 9.30198068,0.698907589 8.91699492,0.302922229 C8.53200915,-0.0930631301 7.89890697,-0.101980062 7.50292161,0.283005704 L0.302921607,7.2830057 C-0.100973869,7.67568186 -0.100973869,8.32431938 0.302921607,8.71699554 L7.50292161,15.7169955 C7.89890697,16.1019813 8.53200915,16.0930644 8.91699492,15.697079 C9.30198068,15.3010937 9.29306375,14.6679915 8.89707839,14.2830057 L2.43455888,8.00000062 Z" id="Path" fill="#000000" fill-rule="nonzero"></path>
                <path d="M11.5,15.0000006 L14.5,6.22530479e-07" id="Line-4" stroke="#000000" stroke-width="2" stroke-linecap="round"></path>
            </g>
        </g>
    </g>
</svg>