<?xml version="1.0" encoding="UTF-8"?>
<svg width="24px" height="24px" viewBox="0 0 24 24" version="1.1" xmlns="http://www.w3.org/2000/svg" xmlns:xlink="http://www.w3.org/1999/xlink">
    <!-- Generator: sketchtool 54.1 (76490) - https://sketchapp.com -->
    <title>644A73A8-DCD6-440F-85E7-5B4BAA0B8573</title>
    <desc>Created with sketchtool.</desc>
    <g id="Boarding" stroke="none" stroke-width="1" fill="none" fill-rule="evenodd">
        <g id="Sharing-page" transform="translate(-32.000000, -301.000000)" fill="#000000">
            <g id="Group-44" transform="translate(32.000000, 301.000000)">
                <rect id="Rectangle" x="4.57142857" y="4.57142857" width="3.42857143" height="3.42857143"></rect>
                <path d="M0,1.14285714 C0,0.511674572 0.511674572,0 1.14285714,0 L11.4285714,0 C12.059754,0 12.5714286,0.511674572 12.5714286,1.14285714 L12.5714286,11.4285714 C12.5714286,12.059754 12.059754,12.5714286 11.4285714,12.5714286 L1.14285714,12.5714286 C0.511674572,12.5714286 0,12.059754 0,11.4285714 L0,1.14285714 Z M2.28571429,2.28571429 L2.28571429,10.2857143 L10.2857143,10.2857143 L10.2857143,2.28571429 L2.28571429,2.28571429 Z" id="Rectangle" fill-rule="nonzero"></path>
                <path d="M14.8571429,1.14285714 C14.8571429,0.511674572 15.3688174,0 16,0 L22.8571429,0 C23.4883254,0 24,0.511674572 24,1.14285714 L24,8 C24,8.63118257 23.4883254,9.14285714 22.8571429,9.14285714 L16,9.14285714 C15.3688174,9.14285714 14.8571429,8.63118257 14.8571429,8 L14.8571429,1.14285714 Z M17.1428571,2.28571429 L17.1428571,6.85714286 L21.7142857,6.85714286 L21.7142857,2.28571429 L17.1428571,2.28571429 Z" id="Rectangle-Copy-27" fill-rule="nonzero"></path>
                <path d="M13.7142857,14.8571429 C13.7142857,14.2259603 14.2259603,13.7142857 14.8571429,13.7142857 L22.8571429,13.7142857 C23.4883254,13.7142857 24,14.2259603 24,14.8571429 L24,22.8571429 C24,23.4883254 23.4883254,24 22.8571429,24 L14.8571429,24 C14.2259603,24 13.7142857,23.4883254 13.7142857,22.8571429 L13.7142857,14.8571429 Z M16,16 L16,21.7142857 L21.7142857,21.7142857 L21.7142857,16 L16,16 Z" id="Rectangle-Copy-28" fill-rule="nonzero"></path>
                <path d="M0,16 C0,15.3688174 0.511674572,14.8571429 1.14285714,14.8571429 L8,14.8571429 C8.63118257,14.8571429 9.14285714,15.3688174 9.14285714,16 L9.14285714,22.8571429 C9.14285714,23.4883254 8.63118257,24 8,24 L1.14285714,24 C0.511674572,24 0,23.4883254 0,22.8571429 L0,16 Z M2.28571429,17.1428571 L2.28571429,21.7142857 L6.85714286,21.7142857 L6.85714286,17.1428571 L2.28571429,17.1428571 Z" id="Rectangle-Copy-29" fill-rule="nonzero"></path>
            </g>
        </g>
    </g>
</svg>