<?xml version="1.0" encoding="utf-8"?>
<!-- Generator: Adobe Illustrator 23.0.0, SVG Export Plug-In . SVG Version: 6.00 Build 0)  -->
<svg version="1.1" id="Слой_1" xmlns="http://www.w3.org/2000/svg" xmlns:xlink="http://www.w3.org/1999/xlink" x="0px" y="0px"
	 width="273px" height="330px" viewBox="0 0 273 330" style="enable-background:new 0 0 273 330;" xml:space="preserve">
<style type="text/css">
	.st0{fill:#FFCC00;}
	.st1{fill-rule:evenodd;clip-rule:evenodd;fill:#FFFFFF;}
</style>
<title>ru-qr-code-main</title>
<desc>Created with Sketch.</desc>
<g id="corporate-website-RU">
	<g id="QR" transform="translate(-760.000000, -267.000000)">
		<g id="Group-3" transform="translate(70.000000, 134.000000)">
			<g id="ru-qr-code-main" transform="translate(690.000000, 133.000000)">
				<path class="st0" d="M20,10v48c0,2.2-1.8,4-4,4s-4-1.8-4-4V10c0-4.4,3.6-8,8-8h48c2.2,0,4,1.8,4,4s-1.8,4-4,4H20z M20,254h48
					c2.2,0,4,1.8,4,4c0,2.2-1.8,4-4,4H20c-4.4,0-8-3.6-8-8v-48c0-2.2,1.8-4,4-4s4,1.8,4,4V254z M264,10h-48c-2.2,0-4-1.8-4-4
					s1.8-4,4-4h48c4.4,0,8,3.6,8,8v48c0,2.2-1.8,4-4,4s-4-1.8-4-4V10z M264,254v-48c0-2.2,1.8-4,4-4s4,1.8,4,4v48c0,4.4-3.6,8-8,8
					h-48c-2.2,0-4-1.8-4-4s1.8-4,4-4H264z"/>
				<path id="Path" class="st1" d="M145.1,274.7c-0.4-2.2-0.4-5.7-1.2-7.8c-0.1-0.9-0.3-1.7-0.4-2.6c-0.4,0-0.7-0.1-1.1-0.1
					c-6.4,29.8-19.1,32.3-25.9,35.8c-1,0.1-1.2-1.7-0.2-1.9c0,0,16.2-3.2,23.2-32.9l-3.8,2.9c-1.2,0.9-2.7-0.8-1.8-1.9
					c1.9-2.1,3.8-3.6,6.1-4.6l0.8-0.6c0.4-0.3,0.8-0.3,1.2-0.1c0.7-0.2,1.5-0.5,2.3-0.6c0.7-0.2,1.3,0.6,1.4,1.2
					c0.7,4.4,1.4,8.7,2,13.1C148,276.1,145.3,276.4,145.1,274.7z"/>
				<path id="Наведи-камеру" class="st1" d="M1.9,309.9h2.5v5.7h6.5v-5.7h2.5v14.3h-2.5v-6.4H4.4v6.4H1.9V309.9z
					 M24.7,321.9c0,0.3,0,0.5,0.1,0.6s0.2,0.2,0.4,0.2h0.2c0.1,0,0.2,0,0.3,0v1.6c-0.1,0-0.2,0.1-0.3,0.1s-0.3,0.1-0.4,0.1
					s-0.3,0-0.4,0.1c-0.1,0-0.2,0-0.3,0c-0.5,0-0.9-0.1-1.2-0.3c-0.3-0.2-0.5-0.5-0.6-1c-0.5,0.4-1,0.8-1.7,1s-1.3,0.3-1.9,0.3
					c-0.5,0-0.9-0.1-1.3-0.2s-0.8-0.3-1.1-0.6c-0.3-0.2-0.6-0.6-0.8-0.9c-0.2-0.4-0.3-0.8-0.3-1.3c0-0.6,0.1-1.2,0.4-1.6
					c0.2-0.4,0.5-0.7,0.9-0.9c0.4-0.2,0.8-0.4,1.3-0.5s0.9-0.2,1.4-0.2c0.4-0.1,0.8-0.1,1.2-0.2c0.4,0,0.7-0.1,1-0.2
					s0.5-0.2,0.7-0.4c0.2-0.2,0.3-0.4,0.3-0.8c0-0.3-0.1-0.5-0.2-0.7s-0.3-0.3-0.5-0.4s-0.4-0.2-0.7-0.2c-0.3,0-0.5,0-0.7,0
					c-0.6,0-1.2,0.1-1.6,0.4s-0.6,0.7-0.7,1.2h-2.3c0-0.7,0.2-1.2,0.5-1.7s0.6-0.8,1.1-1.1c0.4-0.3,0.9-0.5,1.5-0.6
					c0.5-0.1,1.1-0.2,1.7-0.2c0.5,0,1,0.1,1.5,0.2s0.9,0.3,1.3,0.5s0.7,0.6,1,0.9s0.4,0.8,0.4,1.4v5.4H24.7z M22.4,319
					c-0.3,0.2-0.8,0.4-1.3,0.4s-1,0.1-1.5,0.2c-0.2,0-0.5,0.1-0.7,0.2s-0.4,0.2-0.6,0.3c-0.2,0.1-0.3,0.3-0.4,0.5s-0.1,0.5-0.1,0.8
					s0.1,0.5,0.2,0.6s0.3,0.3,0.5,0.4s0.4,0.2,0.7,0.2s0.5,0.1,0.7,0.1c0.3,0,0.5,0,0.8-0.1s0.6-0.2,0.8-0.3
					c0.3-0.2,0.5-0.4,0.6-0.6c0.2-0.2,0.3-0.6,0.3-0.9V319z M29.5,318.1h2.4c0.4,0,0.8-0.1,1.1-0.3c0.3-0.2,0.4-0.5,0.4-0.9
					c0-0.5-0.1-0.8-0.4-1s-0.6-0.3-1.1-0.3h-2.4V318.1z M27.2,313.9h5.4c0.9,0,1.7,0.2,2.2,0.6c0.6,0.4,0.8,1.1,0.8,1.9
					c0,0.5-0.1,1-0.4,1.3c-0.3,0.4-0.6,0.7-1.1,0.9l0,0c0.6,0.1,1.1,0.4,1.5,0.9s0.5,1.1,0.5,1.8c0,0.4-0.1,0.8-0.2,1.1
					s-0.4,0.7-0.7,0.9s-0.7,0.5-1.2,0.6s-1.1,0.2-1.7,0.2h-5.2v-10.2H27.2z M29.5,322.5h2.7c0.6,0,1-0.1,1.3-0.4s0.4-0.6,0.4-1.1
					s-0.1-0.8-0.4-1.1c-0.3-0.2-0.7-0.4-1.3-0.4h-2.7V322.5z M45.2,318.1c0-0.4-0.1-0.7-0.2-1c-0.1-0.3-0.3-0.6-0.5-0.9
					s-0.5-0.4-0.8-0.6s-0.7-0.2-1-0.2c-0.4,0-0.8,0.1-1.1,0.2s-0.6,0.3-0.8,0.6c-0.2,0.2-0.4,0.5-0.6,0.9c-0.1,0.3-0.2,0.7-0.2,1.1
					h5.2V318.1z M39.9,319.6c0,0.4,0.1,0.8,0.2,1.2c0.1,0.4,0.3,0.7,0.5,1s0.5,0.5,0.9,0.7s0.8,0.3,1.2,0.3c0.7,0,1.2-0.1,1.6-0.4
					c0.4-0.3,0.7-0.7,0.9-1.3h2.2c-0.1,0.6-0.3,1.1-0.6,1.5s-0.6,0.8-1.1,1.1c-0.4,0.3-0.9,0.5-1.4,0.7s-1,0.2-1.6,0.2
					c-0.8,0-1.5-0.1-2.2-0.4s-1.2-0.6-1.6-1.1s-0.8-1.1-1-1.7c-0.2-0.7-0.3-1.4-0.3-2.2c0-0.7,0.1-1.4,0.4-2.1
					c0.2-0.7,0.6-1.2,1-1.7s1-0.9,1.6-1.2c0.6-0.3,1.3-0.4,2.1-0.4s1.5,0.2,2.2,0.5c0.6,0.3,1.2,0.8,1.6,1.4
					c0.4,0.6,0.7,1.2,0.9,1.9c0.2,0.7,0.2,1.5,0.2,2.3h-7.7V319.6z M50.3,327.3h-2.1v-4.8h1.3c0.2-0.1,0.4-0.2,0.6-0.3
					c0.3-0.2,0.5-0.6,0.7-1c0.1-0.3,0.1-0.5,0.2-0.8c0-0.2,0.1-0.5,0.1-0.8s0.1-0.6,0.1-0.9s0-0.7,0-1.2s0-1,0-1.5
					c0-0.6,0-1.3,0-2.1h8.6v8.6h1.8v4.8h-2.1v-3.1h-9.2C50.3,324.2,50.3,327.3,50.3,327.3z M57.5,315.6h-4c0,0.9,0,1.6,0,2.3
					s0,1.2-0.1,1.8c0,0.5-0.1,0.9-0.1,1.3s-0.1,0.7-0.2,1c-0.1,0.2-0.1,0.4-0.2,0.6h4.6V315.6z M63.1,313.9h2.3v7.1l0,0l4.5-7.1h2.8
					v10.3h-2.3V317l0,0l-4.6,7.2h-2.7C63.1,324.2,63.1,313.9,63.1,313.9z M80.9,313.9h2.3v4.2l4.1-4.2h2.8l-4,3.8l4.3,6.5h-2.8
					l-3.2-5l-1.4,1.3v3.7h-2.3v-10.3H80.9z M100.2,321.9c0,0.3,0,0.5,0.1,0.6s0.2,0.2,0.4,0.2h0.2c0.1,0,0.2,0,0.3,0v1.6
					c-0.1,0-0.2,0.1-0.3,0.1c-0.1,0-0.3,0.1-0.4,0.1s-0.3,0-0.4,0.1c-0.1,0-0.2,0-0.3,0c-0.5,0-0.9-0.1-1.2-0.3
					c-0.3-0.2-0.5-0.5-0.6-1c-0.5,0.4-1,0.8-1.7,1s-1.3,0.3-1.9,0.3c-0.5,0-0.9-0.1-1.3-0.2s-0.8-0.3-1.1-0.6
					c-0.3-0.2-0.6-0.6-0.8-0.9c-0.2-0.4-0.3-0.8-0.3-1.3c0-0.6,0.1-1.2,0.4-1.6c0.2-0.4,0.5-0.7,0.9-0.9c0.4-0.2,0.8-0.4,1.3-0.5
					s0.9-0.2,1.4-0.2c0.4-0.1,0.8-0.1,1.2-0.2c0.4,0,0.7-0.1,1-0.2s0.5-0.2,0.7-0.4c0.2-0.2,0.3-0.4,0.3-0.8c0-0.3-0.1-0.5-0.2-0.7
					s-0.3-0.3-0.5-0.4s-0.4-0.2-0.7-0.2s-0.5,0-0.7,0c-0.6,0-1.2,0.1-1.6,0.4s-0.6,0.7-0.7,1.2h-2.3c0-0.7,0.2-1.2,0.5-1.7
					c0.3-0.4,0.6-0.8,1.1-1.1c0.4-0.3,0.9-0.5,1.5-0.6s1.1-0.2,1.7-0.2c0.5,0,1,0.1,1.5,0.2s0.9,0.3,1.3,0.5s0.7,0.6,0.9,0.9
					c0.2,0.4,0.4,0.8,0.4,1.4v5.4H100.2z M98,319c-0.3,0.2-0.8,0.4-1.3,0.4s-1,0.1-1.5,0.2c-0.2,0-0.5,0.1-0.7,0.2s-0.4,0.2-0.6,0.3
					c-0.2,0.1-0.3,0.3-0.4,0.5s-0.1,0.5-0.1,0.8s0.1,0.5,0.2,0.6s0.3,0.3,0.5,0.4s0.4,0.2,0.7,0.2c0.2,0,0.5,0.1,0.7,0.1
					c0.3,0,0.5,0,0.8-0.1s0.6-0.2,0.8-0.3c0.3-0.2,0.5-0.4,0.6-0.6c0.2-0.2,0.3-0.6,0.3-0.9V319z M102.8,313.9h3.7l1.9,7.4l0,0
					l1.8-7.4h3.7v10.3h-2.3v-7.8l0,0l-2.1,7.8h-2.4l-2.1-7.8l0,0v7.8h-2.3v-10.3H102.8z M123.6,318.1c0-0.4-0.1-0.7-0.2-1
					s-0.3-0.6-0.5-0.9s-0.5-0.4-0.8-0.6s-0.7-0.2-1-0.2c-0.4,0-0.8,0.1-1.1,0.2c-0.3,0.1-0.6,0.3-0.8,0.6c-0.2,0.2-0.4,0.5-0.6,0.9
					c-0.1,0.3-0.2,0.7-0.2,1.1h5.2V318.1z M118.3,319.6c0,0.4,0.1,0.8,0.2,1.2c0.1,0.4,0.3,0.7,0.5,1s0.5,0.5,0.9,0.7
					c0.3,0.2,0.8,0.3,1.2,0.3c0.7,0,1.2-0.1,1.6-0.4s0.7-0.7,0.9-1.3h2.2c-0.1,0.6-0.3,1.1-0.6,1.5s-0.6,0.8-1.1,1.1
					c-0.4,0.3-0.9,0.5-1.4,0.7s-1,0.2-1.6,0.2c-0.8,0-1.5-0.1-2.2-0.4s-1.2-0.6-1.6-1.1s-0.8-1.1-1-1.7c-0.2-0.7-0.3-1.4-0.3-2.2
					c0-0.7,0.1-1.4,0.3-2.1c0.2-0.7,0.6-1.2,1-1.7s1-0.9,1.6-1.2s1.3-0.4,2.1-0.4c0.8,0,1.5,0.2,2.2,0.5c0.6,0.3,1.2,0.8,1.6,1.4
					s0.7,1.2,0.9,1.9c0.2,0.7,0.2,1.5,0.2,2.3h-7.6V319.6z M127.7,313.9h2.2v1.4l0,0c0.3-0.6,0.8-1,1.3-1.3c0.6-0.3,1.2-0.4,1.9-0.4
					c0.8,0,1.5,0.1,2.1,0.4s1.1,0.7,1.5,1.2s0.7,1.1,0.9,1.8c0.2,0.7,0.3,1.4,0.3,2.1s-0.1,1.4-0.3,2c-0.2,0.7-0.5,1.2-0.8,1.7
					s-0.8,0.9-1.4,1.2c-0.6,0.3-1.2,0.4-2,0.4c-0.3,0-0.7,0-1-0.1s-0.7-0.2-1-0.3c-0.3-0.1-0.6-0.3-0.8-0.5
					c-0.3-0.2-0.5-0.5-0.7-0.7l0,0v5.2h-2.3v-14.1H127.7z M135.6,319c0-0.5-0.1-0.9-0.2-1.4c-0.1-0.4-0.3-0.8-0.5-1.2
					c-0.2-0.3-0.5-0.6-0.9-0.8s-0.8-0.3-1.2-0.3c-1,0-1.7,0.3-2.2,1s-0.7,1.6-0.7,2.7c0,0.5,0.1,1,0.2,1.4c0.1,0.4,0.3,0.8,0.6,1.1
					c0.3,0.3,0.6,0.6,0.9,0.8s0.8,0.3,1.2,0.3c0.5,0,1-0.1,1.3-0.3c0.4-0.2,0.7-0.5,0.9-0.8s0.4-0.7,0.5-1.2
					C135.6,319.9,135.6,319.5,135.6,319z M138.7,313.9h2.5l2.7,7.7l0,0l2.6-7.7h2.4l-4,10.9c-0.2,0.5-0.4,0.9-0.5,1.3
					c-0.2,0.4-0.4,0.8-0.7,1.1c-0.3,0.3-0.6,0.6-1,0.8c-0.4,0.2-0.9,0.3-1.5,0.3c-0.5,0-1.1,0-1.6-0.1v-1.9c0.2,0,0.4,0.1,0.5,0.1
					c0.2,0,0.4,0,0.5,0c0.3,0,0.5,0,0.7-0.1s0.3-0.2,0.4-0.3c0.1-0.1,0.2-0.3,0.3-0.4s0.2-0.4,0.2-0.6l0.3-0.8L138.7,313.9z"/>
			</g>
		</g>
	</g>
</g>
<g id="mssgmeross" transform="translate(127.000000, 30.000000)">
	<path class="st1" d="M108,195h-8h-8v-8h-8v8h-8h-8h-8v-8h8h8v-8h8h8h8v-8v-8h8v-8v-8h8v8v8v8v8v8v8v8h-8V195z M44,195h8v8h-8h-8v-8
		H44z M28,195v8h-8h-8H4v-8h-8v-8v-8v-8h-8v8h-8v-8v-8v-8v-8v-8v-8h8v8h8v-8h-8v-8h8h8v8h8v-8h8h8v-8v-8h-8v-8h8h8h8h8v8h8v8h-8h-8
		v8h-8v8h-8h-8v8h-8v8H4h-8v8h-8v8h8v-8h8h8v8v8H4v8h8v8h8v-8h-8v-8h8v-8v-8h-8v-8h8h8h8v8h-8v8v8v8v8V195z M52,179v-8h-8h-8v-8v-8
		h8v-8v-8v-8h8v-8h8v8h8v-8h8v8h8v8v8v8v8v8h-8h-8v8h-8v8h-8h-8v-8H52z M76,163v8V163z M108,139v8h-8h-8v-8v-8h-8v-8h-8v-8v-8h8v8h8
		h8v-8h8v8h8v8v8h-8v-8h-8v8h8V139z M-52,139h-8v-8h-8v-8h8v-8v-8h8v-8h-8v-8v-8h-8v8v8v8h-8v-8h-8v-8h8v-8h-8v-8v-8h8v8h8h8v-8h8h8
		h8h8h8h8v-8h8v-8v-8v-8h8v-8v-8h-8v-8h8h8h8V3h8h8v8h-8v8h8h8h8v8v8v8h-8v-8h-8v-8h-8v8h8v8v8v8h8v-8h8v8v8h8v8v8h8v-8h8v-8h8v8h8
		v-8h8h8h8v8h-8v8h-8h-8v8h8h8v-8h8v8v8v8h-8v-8h-8h-8h-8h-8v8h-8h-8v-8h8v-8h-8h-8h-8h-8h-8v-8h8v-8h8v-8h-8v8h-8v-8h-8v-8h8v-8v-8
		h-8v-8v-8v-8h-8v8v8v8H4v8v8h8v8h8v8h-8H4v-8h-8v8h8v8h8v8h8v8h-8H4v-8h-8v-8h-8v8h-8v-8v-8h-8h-8h-8v8h8h8v8h-8v8h-8v8h8v8h-8h-8
		v8v8h8v8H-52z M-84,131v-8v-8v-8h8v8h8v8h-8v8v8h-8V131z M-28,115h8v8h-8h-8v-8H-28z M-12,107v-8v-8h8v8v8v8h-8h-8v-8H-12z M20,51
		v8h-8v-8v-8h8V51z M-4,27v8h-8v-8h-8v-8v-8V3h8h8v8h-8v8h8V27z M-20,35h8v8h-8V35z M-20,51h8v8h-8V51z M-36,99h8v8h-8V99z M12,107
		h8v8h-8V107z M60,115h8v8h-8V115z M-36,131h8v8h-8V131z M60,147v8h8v-8H60z M-20,195h8v8h-8V195z M84,195h8v8h-8V195z M-36.4,3h8.4
		v8.4v39.2V59h-8.4h-39.2H-84v-8.4V11.4V3h8.4H-36.4z M-36.4,50.6V11.4h-39.2v39.2H-36.4z M-68,19h24v24h-24V19z M107.6,3h8.4v8.4
		v39.2V59h-8.4H68.4H60v-8.4V11.4V3h8.4H107.6z M107.6,50.6V11.4H68.4v39.2H107.6z M76,19h24v24H76V19z M-36.4,147h8.4v8.4v39.2v8.4
		h-8.4h-39.2H-84v-8.4v-39.2V147h8.4H-36.4z M-36.4,194.6v-39.2h-39.2v39.2H-36.4z M-68,163h24v24h-24V163z"/>
</g>
</svg>
