<?xml version="1.0" encoding="UTF-8"?>
<svg width="151px" height="44px" viewBox="0 0 151 44" version="1.1" xmlns="http://www.w3.org/2000/svg" xmlns:xlink="http://www.w3.org/1999/xlink">
    <!-- Generator: sketchtool 52.2 (67145) - http://www.bohemiancoding.com/sketch -->
    <title>964275A7-9581-400D-A10A-E7E55774A549</title>
    <desc>Created with sketchtool.</desc>
    <g id="corporate-website-EN" stroke="none" stroke-width="1" fill="none" fill-rule="evenodd">
        <g id="homepage" transform="translate(-80.000000, -35.000000)" fill="#000000">
            <g id="header">
                <g id="logotype" transform="translate(80.000000, 35.000000)">
                    <path d="M8.67218206,5.16326531 C8.67218206,4.00093134 9.61457725,3.05867347 10.7770806,3.05867347 C11.939584,3.05867347 12.8819792,4.00093134 12.8819792,5.16326531 L12.8819792,24.8061224 C12.8819792,25.9684564 11.939584,26.9107143 10.7770806,26.9107143 C9.61457725,26.9107143 8.67218206,25.9684564 8.67218206,24.8061224 L8.67218206,5.16326531 Z M25.5113705,7.96938776 C25.5113705,6.80705379 26.4537657,5.86479592 27.6162691,5.86479592 C28.7787724,5.86479592 29.7211676,6.80705379 29.7211676,7.96938776 L29.7211676,27.6122449 C29.7211676,28.7745788 28.7787724,29.7168367 27.6162691,29.7168367 C26.4537657,29.7168367 25.5113705,28.7745788 25.5113705,27.6122449 L25.5113705,7.96938776 Z M17.0917763,2.35714286 C17.0917763,1.19480889 18.0341715,0.25255102 19.1966748,0.25255102 C20.3591782,0.25255102 21.3015734,1.19480889 21.3015734,2.35714286 L21.3015734,22 C21.3015734,23.1623339 20.3591782,24.1045918 19.1966748,24.1045918 C18.0341715,24.1045918 17.0917763,23.1623339 17.0917763,22 L17.0917763,2.35714286 Z M39.3325226,29.9251878 C40.37994,29.4209492 41.6378654,29.8611588 42.1421775,30.9084238 C42.6464896,31.9556886 42.2062158,33.2134307 41.1587983,33.7176693 L23.3908671,42.2713525 C15.3606665,46.1371821 5.71657181,42.7622409 1.85017889,34.7332102 C0.798634735,32.5495522 0.252587827,30.1570962 0.252587827,27.7335067 L0.252587827,12.1785714 C0.252587827,11.0162375 1.19498302,10.0739796 2.35748638,10.0739796 C3.51998975,10.0739796 4.46238494,11.0162375 4.46238494,12.1785714 L4.46238494,27.7335067 C4.46238494,29.5248554 4.86598483,31.2931926 5.64321312,32.9072007 C8.5009818,38.8417015 15.6292257,41.3362233 21.5645914,38.478871 L39.3325226,29.9251878 Z" id="element" fill-rule="nonzero"></path>
                    <path d="M69.8498704,14.3 C71.3206905,14.3 72.3383639,14.7466398 72.9029211,15.6399329 C73.4674783,16.5332259 73.7497526,17.7697908 73.7497526,19.3496644 L73.7497526,25.0194631 C73.7497526,25.4033576 73.623472,25.7244954 73.3709069,25.9828859 C73.1183419,26.2412765 72.7989262,26.3704698 72.4126502,26.3704698 C72.0263742,26.3704698 71.7069585,26.2412765 71.4543934,25.9828859 C71.2018283,25.7244954 71.0755477,25.4033576 71.0755477,25.0194631 L71.0755477,19.3496644 C71.0755477,18.5375798 70.9158398,17.8989956 70.5964193,17.4338926 C70.2769988,16.9687896 69.7161642,16.7362416 68.9138987,16.7362416 C68.0819197,16.7362416 67.4319458,16.9835546 66.9639576,17.4781879 C66.4959694,17.9728213 66.2619788,18.5966405 66.2619788,19.3496644 L66.2619788,25.0194631 C66.2619788,25.4033576 66.1356982,25.7244954 65.8831331,25.9828859 C65.630568,26.2412765 65.3111523,26.3704698 64.9248763,26.3704698 C64.5386003,26.3704698 64.2191846,26.2412765 63.9666196,25.9828859 C63.7140545,25.7244954 63.5877738,25.4033576 63.5877738,25.0194631 L63.5877738,19.3496644 C63.5877738,18.5375798 63.428066,17.8989956 63.1086455,17.4338926 C62.7892249,16.9687896 62.2283903,16.7362416 61.4261249,16.7362416 C60.5941458,16.7362416 59.944172,16.9835546 59.4761837,17.4781879 C59.0081955,17.9728213 58.7742049,18.5966405 58.7742049,19.3496644 L58.7742049,25.0194631 C58.7742049,25.4033576 58.6479243,25.7244954 58.3953592,25.9828859 C58.1427942,26.2412765 57.8233785,26.3704698 57.4371025,26.3704698 C57.0508265,26.3704698 56.7314108,26.2412765 56.4788457,25.9828859 C56.2262806,25.7244954 56.1,25.4033576 56.1,25.0194631 L56.1,15.8724832 C56.1,15.4885887 56.2262806,15.167451 56.4788457,14.9090604 C56.7314108,14.6506698 57.0508265,14.5214765 57.4371025,14.5214765 C57.8233785,14.5214765 58.1427942,14.6506698 58.3953592,14.9090604 C58.6479243,15.167451 58.7742049,15.4885887 58.7742049,15.8724832 L58.7742049,16.2268456 C59.1753377,15.6952994 59.6841744,15.2412771 60.3007303,14.8647651 C60.9172862,14.4882532 61.6044014,14.3 62.3620966,14.3 C64.2340494,14.3 65.4300013,15.1120724 65.9499882,16.7362416 C66.2916939,16.1161043 66.8079589,15.5550361 67.4987986,15.0530201 C68.1896383,14.5510042 68.9733211,14.3 69.8498704,14.3 Z M76.2345347,24.5322148 C76.1008238,24.3550327 76.0339694,24.1335584 76.0339694,23.8677852 C76.0339694,23.4838907 76.2271045,23.1590617 76.6133804,22.8932886 C76.8213752,22.760402 77.0367951,22.6939597 77.2596466,22.6939597 C77.5716388,22.6939597 77.8687697,22.8342268 78.1510483,23.1147651 C78.5967513,23.5724855 79.0610184,23.9120794 79.5438634,24.133557 C80.0267083,24.3550347 80.6098278,24.4657718 81.2932391,24.4657718 C82.452067,24.4214763 83.0314723,23.9859102 83.0314723,23.1590604 C83.0314723,22.7308703 82.8346231,22.4060414 82.4409187,22.1845638 C82.0472144,21.9630861 81.4343819,21.7416118 80.6024028,21.5201342 C79.7407103,21.2838914 79.0387385,21.0476522 78.4964664,20.8114094 C77.9541944,20.5751666 77.4862132,20.2171165 77.0925088,19.7372483 C76.6988045,19.2573802 76.5019552,18.6114135 76.5019552,17.7993289 C76.5019552,17.0906005 76.7062327,16.4741637 77.1147939,15.95 C77.523355,15.4258363 78.0581906,15.0198001 78.7193168,14.7318792 C79.380443,14.4439583 80.0824148,14.3 80.8252532,14.3 C81.5829484,14.3 82.3406323,14.4402671 83.0983274,14.7208054 C83.8560226,15.0013437 84.4502845,15.4147624 84.8811307,15.9610738 C85.0742687,16.1973166 85.1708363,16.4630858 85.1708363,16.7583893 C85.1708363,17.0979883 85.0296991,17.3785224 84.7474205,17.6 C84.5394257,17.7624169 84.301721,17.8436242 84.0342992,17.8436242 C83.7074503,17.8436242 83.4400324,17.7402695 83.2320377,17.533557 C82.9646159,17.2087232 82.6192012,16.9503365 82.1957833,16.7583893 C81.7723654,16.566442 81.2932418,16.4704698 80.7583981,16.4704698 C79.6292837,16.4704698 79.064735,16.876506 79.064735,17.6885906 C79.064735,18.0134244 79.1687308,18.2755024 79.3767256,18.4748322 C79.5847203,18.6741621 79.848424,18.8291941 80.1678445,18.9399329 C80.487265,19.0506717 80.9366755,19.1872475 81.5160895,19.3496644 C82.318355,19.571142 82.9868996,19.7999988 83.5217432,20.0362416 C84.0565869,20.2724844 84.5097115,20.6342258 84.8811307,21.1214765 C85.2525499,21.6087273 85.4382568,22.2510027 85.4382568,23.0483221 C85.4382568,23.7718157 85.2228369,24.4030174 84.7919906,24.9419463 C84.3611443,25.4808752 83.807738,25.8906026 83.131755,26.1711409 C82.455772,26.4516793 81.7612285,26.5919463 81.0481036,26.5919463 C80.0675569,26.5919463 79.1538794,26.4295318 78.3070436,26.104698 C77.4602078,25.7798641 76.7693784,25.2557083 76.2345347,24.5322148 Z M87.2544876,24.5322148 C87.1207767,24.3550327 87.0539223,24.1335584 87.0539223,23.8677852 C87.0539223,23.4838907 87.2470574,23.1590617 87.6333333,22.8932886 C87.8413281,22.760402 88.056748,22.6939597 88.2795995,22.6939597 C88.5915917,22.6939597 88.8887226,22.8342268 89.1710012,23.1147651 C89.6167042,23.5724855 90.0809713,23.9120794 90.5638163,24.133557 C91.0466612,24.3550347 91.6297806,24.4657718 92.313192,24.4657718 C93.4720199,24.4214763 94.0514252,23.9859102 94.0514252,23.1590604 C94.0514252,22.7308703 93.854576,22.4060414 93.4608716,22.1845638 C93.0671672,21.9630861 92.4543347,21.7416118 91.6223557,21.5201342 C90.7606631,21.2838914 90.0586914,21.0476522 89.5164193,20.8114094 C88.9741473,20.5751666 88.5061661,20.2171165 88.1124617,19.7372483 C87.7187574,19.2573802 87.5219081,18.6114135 87.5219081,17.7993289 C87.5219081,17.0906005 87.7261856,16.4741637 88.1347468,15.95 C88.5433079,15.4258363 89.0781435,15.0198001 89.7392697,14.7318792 C90.4003959,14.4439583 91.1023677,14.3 91.8452061,14.3 C92.6029013,14.3 93.3605851,14.4402671 94.1182803,14.7208054 C94.8759755,15.0013437 95.4702373,15.4147624 95.9010836,15.9610738 C96.0942216,16.1973166 96.1907892,16.4630858 96.1907892,16.7583893 C96.1907892,17.0979883 96.049652,17.3785224 95.7673734,17.6 C95.5593786,17.7624169 95.3216739,17.8436242 95.0542521,17.8436242 C94.7274032,17.8436242 94.4599853,17.7402695 94.2519906,17.533557 C93.9845687,17.2087232 93.6391541,16.9503365 93.2157362,16.7583893 C92.7923183,16.566442 92.3131947,16.4704698 91.778351,16.4704698 C90.6492366,16.4704698 90.0846879,16.876506 90.0846879,17.6885906 C90.0846879,18.0134244 90.1886837,18.2755024 90.3966784,18.4748322 C90.6046732,18.6741621 90.8683769,18.8291941 91.1877974,18.9399329 C91.5072179,19.0506717 91.9566284,19.1872475 92.5360424,19.3496644 C93.3383079,19.571142 94.0068524,19.7999988 94.5416961,20.0362416 C95.0765398,20.2724844 95.5296644,20.6342258 95.9010836,21.1214765 C96.2725028,21.6087273 96.4582097,22.2510027 96.4582097,23.0483221 C96.4582097,23.7718157 96.2427897,24.4030174 95.8119435,24.9419463 C95.3810972,25.4808752 94.8276909,25.8906026 94.1517079,26.1711409 C93.4757249,26.4516793 92.7811814,26.5919463 92.0680565,26.5919463 C91.0875098,26.5919463 90.1738323,26.4295318 89.3269965,26.104698 C88.4801607,25.7798641 87.7893313,25.2557083 87.2544876,24.5322148 Z M108.83755,14.3 C109.223826,14.3 109.543242,14.4255021 109.795807,14.6765101 C110.048372,14.927518 110.174653,15.252347 110.174653,15.6510067 L110.174653,25.5067114 C110.174653,27.3080627 109.613818,28.6405997 108.492132,29.5043624 C107.370446,30.3681251 105.947932,30.8 104.224547,30.8 C103.778843,30.8 103.166011,30.7261752 102.386031,30.5785235 C101.60605,30.4308717 101.052644,30.2832222 100.725795,30.1355705 C99.9978134,29.8255018 99.633828,29.3973182 99.633828,28.8510067 C99.633828,28.7476505 99.6561129,28.6295309 99.7006832,28.4966443 C99.7898238,28.1718105 99.9421034,27.9244975 100.157527,27.754698 C100.37295,27.5848985 100.60694,27.5 100.859505,27.5 C101.008073,27.5 101.14921,27.5221474 101.282921,27.566443 C101.342348,27.5812081 101.710048,27.7177839 102.386031,27.9761745 C103.062014,28.2345651 103.674846,28.3637584 104.224547,28.3637584 C105.323947,28.3637584 106.144772,28.1459753 106.687044,27.7104027 C107.229316,27.27483 107.500448,26.6583932 107.500448,25.8610738 L107.500448,24.7979866 C107.173599,25.255707 106.679619,25.6691257 106.018492,26.038255 C105.357366,26.4073844 104.647966,26.5919463 103.890271,26.5919463 C102.850297,26.5919463 101.903192,26.3298684 101.048928,25.8057047 C100.194664,25.281541 99.5224053,24.5543671 99.0321319,23.6241611 C98.5418586,22.6939551 98.2967256,21.6382609 98.2967256,20.457047 C98.2967256,19.275833 98.5381444,18.2164476 99.0209894,17.2788591 C99.5038344,16.3412705 100.164951,15.6104053 101.004358,15.0862416 C101.843765,14.5620779 102.776014,14.3 103.801131,14.3 C104.558826,14.3 105.264512,14.455032 105.91821,14.7651007 C106.571907,15.0751693 107.099315,15.4516756 107.500448,15.8946309 L107.500448,15.6510067 C107.500448,15.2671122 107.626728,14.9459744 107.879293,14.6875839 C108.131858,14.4291933 108.451274,14.3 108.83755,14.3 Z M104.224547,24.1557047 C105.21995,24.1557047 106.033346,23.8050371 106.664759,23.1036913 C107.296171,22.4023455 107.611873,21.5201395 107.611873,20.457047 C107.611873,19.3939544 107.296171,18.5080572 106.664759,17.7993289 C106.033346,17.0906005 105.21995,16.7362416 104.224547,16.7362416 C103.229143,16.7362416 102.419461,17.0906005 101.795477,17.7993289 C101.171493,18.5080572 100.859505,19.3939544 100.859505,20.457047 C100.859505,21.5201395 101.171493,22.4023455 101.795477,23.1036913 C102.419461,23.8050371 103.229143,24.1557047 104.224547,24.1557047 Z M114.531378,26.3483221 C114.100532,26.3483221 113.769974,26.2338938 113.539694,26.0050336 C113.309414,25.7761734 113.194276,25.4476531 113.194276,25.0194631 L113.194276,24.642953 C113.194276,24.214763 113.309414,23.8862428 113.539694,23.6573826 C113.769974,23.4285223 114.100532,23.314094 114.531378,23.314094 L114.821084,23.314094 C115.25193,23.314094 115.582488,23.4285223 115.812768,23.6573826 C116.043048,23.8862428 116.158186,24.214763 116.158186,24.642953 L116.158186,25.0194631 C116.158186,25.4476531 116.043048,25.7761734 115.812768,26.0050336 C115.582488,26.2338938 115.25193,26.3483221 114.821084,26.3483221 L114.531378,26.3483221 Z M132.92768,14.3 C134.3985,14.3 135.416173,14.7466398 135.98073,15.6399329 C136.545287,16.5332259 136.827562,17.7697908 136.827562,19.3496644 L136.827562,25.0194631 C136.827562,25.4033576 136.701281,25.7244954 136.448716,25.9828859 C136.196151,26.2412765 135.876735,26.3704698 135.490459,26.3704698 C135.104183,26.3704698 134.784768,26.2412765 134.532203,25.9828859 C134.279638,25.7244954 134.153357,25.4033576 134.153357,25.0194631 L134.153357,19.3496644 C134.153357,18.5375798 133.993649,17.8989956 133.674229,17.4338926 C133.354808,16.9687896 132.793973,16.7362416 131.991708,16.7362416 C131.159729,16.7362416 130.509755,16.9835546 130.041767,17.4781879 C129.573779,17.9728213 129.339788,18.5966405 129.339788,19.3496644 L129.339788,25.0194631 C129.339788,25.4033576 129.213507,25.7244954 128.960942,25.9828859 C128.708377,26.2412765 128.388961,26.3704698 128.002686,26.3704698 C127.61641,26.3704698 127.296994,26.2412765 127.044429,25.9828859 C126.791864,25.7244954 126.665583,25.4033576 126.665583,25.0194631 L126.665583,19.3496644 C126.665583,18.5375798 126.505875,17.8989956 126.186455,17.4338926 C125.867034,16.9687896 125.3062,16.7362416 124.503934,16.7362416 C123.671955,16.7362416 123.021981,16.9835546 122.553993,17.4781879 C122.086005,17.9728213 121.852014,18.5966405 121.852014,19.3496644 L121.852014,25.0194631 C121.852014,25.4033576 121.725734,25.7244954 121.473168,25.9828859 C121.220603,26.2412765 120.901188,26.3704698 120.514912,26.3704698 C120.128636,26.3704698 119.80922,26.2412765 119.556655,25.9828859 C119.30409,25.7244954 119.177809,25.4033576 119.177809,25.0194631 L119.177809,15.8724832 C119.177809,15.4885887 119.30409,15.167451 119.556655,14.9090604 C119.80922,14.6506698 120.128636,14.5214765 120.514912,14.5214765 C120.901188,14.5214765 121.220603,14.6506698 121.473168,14.9090604 C121.725734,15.167451 121.852014,15.4885887 121.852014,15.8724832 L121.852014,16.2268456 C122.253147,15.6952994 122.761984,15.2412771 123.378539,14.8647651 C123.995095,14.4882532 124.682211,14.3 125.439906,14.3 C127.311859,14.3 128.507811,15.1120724 129.027797,16.7362416 C129.369503,16.1161043 129.885768,15.5550361 130.576608,15.0530201 C131.267448,14.5510042 132.05113,14.3 132.92768,14.3 Z M150.7,20.1691275 C150.685143,20.5234917 150.544006,20.8114083 150.276584,21.0328859 C150.009162,21.2543635 149.697175,21.3651007 149.340612,21.3651007 L141.986549,21.3651007 C142.16483,22.236246 142.573385,22.919125 143.212226,23.4137584 C143.851067,23.9083917 144.57161,24.1557047 145.373875,24.1557047 C145.983003,24.1557047 146.458412,24.1003361 146.800118,23.9895973 C147.141823,23.8788585 147.412955,23.7607389 147.613522,23.6352349 C147.814088,23.5097309 147.951511,23.4248324 148.025795,23.3805369 C148.293217,23.2476503 148.545778,23.1812081 148.783486,23.1812081 C149.095479,23.1812081 149.362896,23.2919452 149.585748,23.5134228 C149.808599,23.7349004 149.920024,23.9932871 149.920024,24.2885906 C149.920024,24.6872503 149.712032,25.0489917 149.296042,25.3738255 C148.880053,25.7134245 148.322932,26.0013411 147.624664,26.2375839 C146.926396,26.4738267 146.22071,26.5919463 145.507585,26.5919463 C144.259617,26.5919463 143.171375,26.3335596 142.242827,25.8167785 C141.314279,25.2999974 140.597451,24.5875884 140.09232,23.6795302 C139.58719,22.771472 139.334629,21.748999 139.334629,20.6120805 C139.334629,19.3422755 139.602047,18.2275216 140.13689,17.2677852 C140.671734,16.3080489 141.37742,15.5734925 142.253969,15.064094 C143.130519,14.5546954 144.066481,14.3 145.061885,14.3 C146.042431,14.3 146.967251,14.5657692 147.836372,15.0973154 C148.705493,15.6288617 149.400037,16.3449619 149.920024,17.2456376 C150.44001,18.1463132 150.7,19.1208001 150.7,20.1691275 Z M145.061885,16.7362416 C143.338499,16.7362416 142.320826,17.5409316 142.008834,19.1503356 L147.847515,19.1503356 L147.847515,18.995302 C147.788088,18.3751647 147.483528,17.8436264 146.933828,17.4006711 C146.384128,16.9577159 145.760153,16.7362416 145.061885,16.7362416 Z" id="mssg.me" stroke="#000000" stroke-width="0.2"></path>
                </g>
            </g>
        </g>
    </g>
</svg>