<svg id="Capa_1" data-name="Capa 1" xmlns="http://www.w3.org/2000/svg" viewBox="0 0 511.95 175.04"><defs><style>.cls-1{fill:#fff;}</style></defs><title>ae_logo</title><polygon class="cls-1" points="363.4 22.77 354.47 44.44 372.41 44.44 363.4 22.77"/><polygon class="cls-1" points="54.91 22.77 46.08 44.44 63.8 44.44 54.91 22.77"/><path class="cls-1" d="M259.71,25.84c-1.54-.87-3.91-1-6.16-1h-16V36.92h15.8c2.5,0,4.61,0,6.42-1.11a5.6,5.6,0,0,0,2.68-5.17A5,5,0,0,0,259.71,25.84Z"/><path class="cls-1" d="M315.39,119.35c-1.58-.94-3.91-1-6.2-1h-16v12.21H309c2.53,0,4.69-.08,6.44-1.11a5.85,5.85,0,0,0,2.69-5.22A5.23,5.23,0,0,0,315.39,119.35Z"/><path class="cls-1" d="M252.12,118.35H235.18V132.2H252c5,0,8.11-2.47,8.11-7.16S256.82,118.35,252.12,118.35Z"/><path class="cls-1" d="M492.15,126.51a3.4,3.4,0,0,0-.29-.26,9,9,0,0,0,4.11-7.54V107.13a9,9,0,0,0-9-9h-26c-8.11,0-14.23,2.39-18.69,6a8.88,8.88,0,0,0-8.37-6h-26c-7.16,0-12.8,1.77-17.1,4.69A8.83,8.83,0,0,0,383,98.15H339.65a8.9,8.9,0,0,0-7.93,4.94c-.62-.43-1.08-.94-1.73-1.33-6.29-3.36-13-3.61-19.86-3.61h-30a8.9,8.9,0,0,0-7.94,5c-4.57-3-11-5-20.05-5H210.61A9,9,0,0,0,204,101l-9.84,10.61-9.44-10.48a8.78,8.78,0,0,0-6.68-3H125.8a9,9,0,0,0-9,9V161.5a9,9,0,0,0,9,9h51.47a9,9,0,0,0,6.59-2.89l9.92-10.73,9.41,10.59a9,9,0,0,0,6.72,3h25.25a9,9,0,0,0,9-9v-9.28h7.22c8.79,0,15.14-1.81,19.76-4.55V161.5a9,9,0,0,0,9,9h13.06a9,9,0,0,0,9-9V150.6h4.9c1.19,0,2,0,2.64.08,0,1,0,2.14,0,2.91v7.91a9,9,0,0,0,9,9h13a8.57,8.57,0,0,0,4-1,8.84,8.84,0,0,0,4,1h43.37a8.82,8.82,0,0,0,3.9-1,8.75,8.75,0,0,0,3.9,1h25.31c8.06,0,14.62-2,19.53-5.46a8.93,8.93,0,0,0,8.25,5.46h25.31c18.41,0,29.38-9.77,29.38-26.13C498.63,136.75,496.58,131.1,492.15,126.51ZM251.38,143.23H235.17v18.25H209.92l-16-18-16.64,18H125.8V107.09h52.25l16,17.83,16.53-17.83h41.52c10.31,0,21.91,2.89,21.91,18S262.75,143.26,251.38,143.23Zm71.87-7a13.84,13.84,0,0,1,6.33,4.57c1.85,2.65,2.1,5.13,2.16,9.92V161.5h-13v-6.81c0-3.26.31-8.11-2.12-10.65-1.86-1.93-4.75-2.39-9.51-2.39H293.19V161.5H280.13V107.12h30c6.56,0,11.34.28,15.63,2.56,4.09,2.47,6.68,5.87,6.68,12.06A15.29,15.29,0,0,1,323.25,136.23ZM383,118.36H352.6v9.9h29.68v11.1H352.6v10.8l30.43.06V161.5H339.67V107.12H383Zm33.14,43.08H390.86V149.76h25.2c2.45,0,4.2-.31,5.3-1.35a4.84,4.84,0,0,0,1.52-3.56,4.58,4.58,0,0,0-1.58-3.58c-1-.83-2.35-1.21-4.63-1.21-12.14-.39-27.37.38-27.37-16.82,0-7.91,4.95-16.19,18.58-16.19h26v11.57H410.08c-2.38,0-3.91.1-5.21,1a4.56,4.56,0,0,0,.88,8,14.89,14.89,0,0,0,5.06.62l7,.2c7,.19,11.9,1.41,14.82,4.38,2.56,2.62,3.9,5.94,3.9,11.53C436.51,156,429.23,161.5,416.17,161.44Zm53.1,0H444V149.76h25.21c2.45,0,4.2-.31,5.29-1.35a4.84,4.84,0,0,0,1.52-3.56,4.58,4.58,0,0,0-1.58-3.58c-1-.83-2.34-1.21-4.63-1.21-12.15-.39-27.37.38-27.37-16.82,0-7.91,5-16.19,18.58-16.19h26v11.57H463.19c-2.39,0-3.93.1-5.22,1a4.57,4.57,0,0,0,.87,8,15,15,0,0,0,5.07.62l7,.2c7.05.19,11.92,1.41,14.84,4.38,2.54,2.62,3.9,5.94,3.9,11.53C489.63,156,482.33,161.5,469.27,161.44Z"/><path class="cls-1" d="M451.36,4.55H438.05a9,9,0,0,0-9,9v5.61L422.9,8.9a9,9,0,0,0-7.68-4.34H395.41a9,9,0,0,0-9,9v7.63L381.66,10a9,9,0,0,0-8.23-5.44H354a8.88,8.88,0,0,0-5.36,1.79,8.85,8.85,0,0,0-5.38-1.79H330.66c-10.68,0-18.58,2.59-24.39,7.63a8.87,8.87,0,0,0-8.71-7.63H284.29a8.94,8.94,0,0,0-8,5.06,20.36,20.36,0,0,0-1.61-1.26c-6.1-3.52-12.52-3.8-20.25-3.8H224.56A8.78,8.78,0,0,0,220.05,6a8.68,8.68,0,0,0-4.5-1.39h-43.4a8.76,8.76,0,0,0-4.85,1.61,8.81,8.81,0,0,0-4.84-1.61H140.8A9,9,0,0,0,132.55,10l-7.72,18.2-8.5-18.46a9,9,0,0,0-8.15-5.22H87a9,9,0,0,0-9,9v7.81L73.11,10a9,9,0,0,0-8.26-5.43H45.56A9,9,0,0,0,37.31,10L14.05,64.37a9,9,0,0,0,8.24,12.51H36.42a9,9,0,0,0,8.26-5.53l2.75-6.61h15l2.71,6.57a9,9,0,0,0,8.31,5.56H99.93a9,9,0,0,0,9-9v-.21l1.7,3.86a9,9,0,0,0,8.2,5.34l11.42,0a9,9,0,0,0,8.21-5.35l1.72-3.85v.23a9,9,0,0,0,9,9h13.32a8.89,8.89,0,0,0,4.84-1.61,8.84,8.84,0,0,0,4.85,1.61h43.4a8.68,8.68,0,0,0,4.5-1.39,8.72,8.72,0,0,0,4.51,1.39h13a9,9,0,0,0,9-9V57.11h5c1.12,0,1.92,0,2.52.08.06.92,0,2,0,2.74l0,1.2,0,6.86a9,9,0,0,0,9,8.9H276.2a8.77,8.77,0,0,0,4-1.08,8.78,8.78,0,0,0,4.06,1.08h13.27a8.85,8.85,0,0,0,8.64-7.23c7.37,6.19,17.74,7.23,23.52,7.23h15.23a8.94,8.94,0,0,0,8.27-5.62l2.65-6.52h15l2.75,6.61a9,9,0,0,0,8.29,5.52h26.44a9,9,0,0,0,9-9V59.32l8,13.23a9,9,0,0,0,7.7,4.33h18.4a9,9,0,0,0,9-9V13.53A9,9,0,0,0,451.36,4.55ZM162.45,67.89H149.13l0-42.58L130.23,67.89H118.81L99.94,25.27V67.89H73.49l-5-12.12h-27l-5,12.12H22.27L45.54,13.52H64.83L87,65V13.52h21.22l17,36.89,15.61-36.89h21.66Zm53.09-43H185.12v9.79h29.7V45.79h-29.7V56.65h30.42V67.89h-43.4V13.52h43.4Zm52,17.82A15.2,15.2,0,0,1,274,47.25c1.84,2.7,2.16,5.11,2.16,10V67.88H263.07L263,61c0-3.27.32-8-2-10.59-1.9-1.91-4.79-2.32-9.47-2.32H237.55V67.89h-13V13.53h29.88c6.65,0,11.54.17,15.74,2.6s6.57,6,6.57,12.05A15.31,15.31,0,0,1,267.58,42.67Zm30,25.22H284.29V13.52h13.27Zm153.8,0H433L408.3,27.09v40.8H381.86l-5.07-12.12h-27L344.9,67.89H329.68c-6.31,0-14.29-1.39-18.8-6s-7-10.88-7-20.76c0-8.07,1.43-15.44,7-21.28,4.18-4.33,10.75-6.33,19.73-6.33h12.55V25.17H330.84c-4.73,0-7.41.7-10,3.22-2.21,2.29-3.72,6.62-3.72,12.32s1.15,10,3.58,12.76c2,2.16,5.67,2.8,9.06,2.8h5.83L354,13.52h19.48l22,51.43V13.52h19.81l22.83,37.87V13.52h13.31Zm-116-33.73-5.64,13.16a9.83,9.83,0,0,1-2.55-.27c-.44-.81-1-2.6-1-6.33s.92-5.72,1-5.89c.37-.37.69-.68,3.74-.68Z"/><polygon class="cls-1" points="202.28 134.4 222.24 156.56 222.24 112.97 202.28 134.4"/><polygon class="cls-1" points="171.34 118.37 138.77 118.37 138.77 128.25 167.29 128.25 167.29 139.35 138.77 139.35 138.77 150.17 170.71 150.17 185.55 134.19 171.34 118.37"/></svg>