<?xml version="1.0" encoding="UTF-8"?>
<svg width="125px" height="20px" viewBox="0 0 125 20" version="1.1" xmlns="http://www.w3.org/2000/svg" xmlns:xlink="http://www.w3.org/1999/xlink">
    <!-- Generator: Sketch 50.2 (55047) - http://www.bohemiancoding.com/sketch -->
    <title>icon_we_use_mssgme_en</title>
    <desc>Created with Sketch.</desc>
    <defs></defs>
    <g id="cards" stroke="none" stroke-width="1" fill="none" fill-rule="evenodd">
        <g id="marks-copy-5" transform="translate(-125.000000, -864.000000)">
            <g id="icon_we_use_mssgme_en" transform="translate(125.000000, 864.000000)">
                <path d="M36.1884766,11.7148438 L37.6103516,4.7578125 L39.2036133,4.7578125 L37.0708008,14 L35.534668,14 L33.7763672,7.25244141 L31.9799805,14 L30.4375,14 L28.3046875,4.7578125 L29.8979492,4.7578125 L31.3325195,11.7021484 L33.097168,4.7578125 L34.4428711,4.7578125 L36.1884766,11.7148438 Z M42.8566406,14.1269531 C41.8790967,14.1269531 41.0867055,13.8190949 40.4794434,13.2033691 C39.8721812,12.5876434 39.5685547,11.767746 39.5685547,10.7436523 L39.5685547,10.5532227 C39.5685547,9.86767235 39.7007962,9.25512965 39.9652832,8.71557617 C40.2297702,8.17602269 40.6011044,7.75602364 41.0792969,7.45556641 C41.5574894,7.15510917 42.0906872,7.00488281 42.6789062,7.00488281 C43.6141323,7.00488281 44.3366999,7.30321967 44.8466309,7.89990234 C45.3565618,8.49658501 45.6115234,9.34081485 45.6115234,10.4326172 L45.6115234,11.0546875 L41.1237305,11.0546875 C41.1702802,11.6217476 41.35965,12.0703108 41.6918457,12.4003906 C42.0240414,12.7304704 42.4419246,12.8955078 42.9455078,12.8955078 C43.6522171,12.8955078 44.2277322,12.6098661 44.6720703,12.0385742 L45.5036133,12.8320312 C45.2285468,13.2425151 44.8614444,13.5609526 44.4022949,13.7873535 C43.9431455,14.0137544 43.4279325,14.1269531 42.8566406,14.1269531 Z M42.6725586,8.24267578 C42.2493794,8.24267578 41.9076673,8.39078628 41.6474121,8.68701172 C41.3871569,8.98323716 41.2210616,9.39583069 41.1491211,9.92480469 L44.0880859,9.92480469 L44.0880859,9.81054688 C44.0542316,9.29426825 43.9167004,8.9038913 43.6754883,8.6394043 C43.4342761,8.3749173 43.0999696,8.24267578 42.6725586,8.24267578 Z M53.80625,13.3271484 C53.3534482,13.8603542 52.7102255,14.1269531 51.8765625,14.1269531 C51.1317671,14.1269531 50.5678893,13.9090191 50.1849121,13.4731445 C49.8019349,13.03727 49.6104492,12.4067424 49.6104492,11.581543 L49.6104492,7.13183594 L51.1529297,7.13183594 L51.1529297,11.5625 C51.1529297,12.4342492 51.5147425,12.8701172 52.2383789,12.8701172 C52.9874061,12.8701172 53.4930976,12.6014024 53.7554687,12.0639648 L53.7554687,7.13183594 L55.2979492,7.13183594 L55.2979492,14 L53.8443359,14 L53.80625,13.3271484 Z M60.5188476,12.1337891 C60.5188476,11.8587226 60.4056489,11.649252 60.179248,11.5053711 C59.9528472,11.3614902 59.5772813,11.2345383 59.0525391,11.1245117 C58.5277968,11.0144851 58.0898129,10.8748381 57.7385742,10.7055664 C56.9683881,10.3331687 56.5833008,9.79362333 56.5833008,9.08691406 C56.5833008,8.49446318 56.8329728,7.99935095 57.3323242,7.6015625 C57.8316757,7.20377405 58.4664349,7.00488281 59.2366211,7.00488281 C60.0575887,7.00488281 60.7209122,7.20800578 61.2266113,7.61425781 C61.7323105,8.02050984 61.9851562,8.54736004 61.9851562,9.19482422 L60.4426758,9.19482422 C60.4426758,8.89859878 60.3326508,8.65210059 60.1125976,8.45532227 C59.8925445,8.25854394 59.6005552,8.16015625 59.2366211,8.16015625 C58.8980777,8.16015625 58.6219574,8.23844323 58.4082519,8.39501953 C58.1945464,8.55159583 58.0876953,8.7610664 58.0876953,9.0234375 C58.0876953,9.26041785 58.1871409,9.44449804 58.3860351,9.57568359 C58.5849294,9.70686915 58.9869436,9.83911066 59.5920898,9.97241211 C60.1972361,10.1057136 60.6722476,10.2644034 61.0171387,10.4484863 C61.3620297,10.6325693 61.6180493,10.8536771 61.7852051,11.1118164 C61.9523608,11.3699557 62.0359375,11.6831036 62.0359375,12.0512695 C62.0359375,12.6691112 61.7799179,13.1695131 61.2678711,13.5524902 C60.7558243,13.9354674 60.0850953,14.1269531 59.2556641,14.1269531 C58.6928357,14.1269531 58.1913759,14.0253916 57.7512695,13.8222656 C57.3111632,13.6191396 56.9683931,13.3398455 56.7229492,12.984375 C56.4775053,12.6289045 56.3547851,12.245933 56.3547851,11.8354492 L57.852832,11.8354492 C57.873991,12.1993833 58.0115222,12.4797353 58.2654297,12.6765137 C58.5193372,12.873292 58.8557596,12.9716797 59.274707,12.9716797 C59.6809591,12.9716797 59.9898752,12.8944506 60.2014648,12.7399902 C60.4130544,12.5855298 60.5188476,12.3834648 60.5188476,12.1337891 Z M66.203125,14.1269531 C65.225581,14.1269531 64.4331899,13.8190949 63.8259277,13.2033691 C63.2186656,12.5876434 62.915039,11.767746 62.915039,10.7436523 L62.915039,10.5532227 C62.915039,9.86767235 63.0472806,9.25512965 63.3117676,8.71557617 C63.5762546,8.17602269 63.9475887,7.75602364 64.4257812,7.45556641 C64.9039737,7.15510917 65.4371715,7.00488281 66.0253906,7.00488281 C66.9606166,7.00488281 67.6831843,7.30321967 68.1931152,7.89990234 C68.7030462,8.49658501 68.9580078,9.34081485 68.9580078,10.4326172 L68.9580078,11.0546875 L64.4702148,11.0546875 C64.5167645,11.6217476 64.7061344,12.0703108 65.0383301,12.4003906 C65.3705257,12.7304704 65.7884089,12.8955078 66.2919922,12.8955078 C66.9987014,12.8955078 67.5742165,12.6098661 68.0185547,12.0385742 L68.8500976,12.8320312 C68.5750312,13.2425151 68.2079287,13.5609526 67.7487793,13.7873535 C67.2896299,14.0137544 66.7744169,14.1269531 66.203125,14.1269531 Z M66.019043,8.24267578 C65.5958638,8.24267578 65.2541517,8.39078628 64.9938965,8.68701172 C64.7336413,8.98323716 64.5675459,9.39583069 64.4956055,9.92480469 L67.4345703,9.92480469 L67.4345703,9.81054688 C67.400716,9.29426825 67.2631848,8.9038913 67.0219726,8.6394043 C66.7807605,8.3749173 66.4464539,8.24267578 66.019043,8.24267578 Z M74.4422851,7.13183594 L74.4867187,7.84912109 C74.969143,7.28629276 75.6292927,7.00488281 76.4671875,7.00488281 C77.3854863,7.00488281 78.013898,7.35611628 78.3524414,8.05859375 C78.8517928,7.35611628 79.5542598,7.00488281 80.4598633,7.00488281 C81.217354,7.00488281 81.7812319,7.21435337 82.1515137,7.63330078 C82.5217955,8.05224819 82.7111653,8.67008055 82.7196289,9.48681641 L82.7196289,14 L81.1771484,14 L81.1771484,9.53125 C81.1771484,9.09537542 81.0819345,8.77587992 80.8915039,8.57275391 C80.7010732,8.36962789 80.3858095,8.26806641 79.9457031,8.26806641 C79.5944644,8.26806641 79.3077648,8.36222237 79.0855957,8.55053711 C78.8634266,8.73885185 78.7079106,8.98535004 78.6190429,9.29003906 L78.6253906,14 L77.0829101,14 L77.0829101,9.48046875 C77.0617512,8.67219648 76.6491576,8.26806641 75.8451172,8.26806641 C75.2272755,8.26806641 74.7892916,8.51985425 74.5311523,9.0234375 L74.5311523,14 L72.9886719,14 L72.9886719,7.13183594 L74.4422851,7.13183594 Z M87.9532226,12.1337891 C87.9532226,11.8587226 87.8400239,11.649252 87.613623,11.5053711 C87.3872222,11.3614902 87.0116562,11.2345383 86.486914,11.1245117 C85.9621718,11.0144851 85.5241879,10.8748381 85.1729492,10.7055664 C84.4027631,10.3331687 84.0176758,9.79362333 84.0176758,9.08691406 C84.0176758,8.49446318 84.2673477,7.99935095 84.7666992,7.6015625 C85.2660506,7.20377405 85.9008099,7.00488281 86.6709961,7.00488281 C87.4919637,7.00488281 88.1552872,7.20800578 88.6609863,7.61425781 C89.1666854,8.02050984 89.4195312,8.54736004 89.4195312,9.19482422 L87.8770508,9.19482422 C87.8770508,8.89859878 87.7670258,8.65210059 87.5469726,8.45532227 C87.3269194,8.25854394 87.0349302,8.16015625 86.6709961,8.16015625 C86.3324527,8.16015625 86.0563324,8.23844323 85.8426269,8.39501953 C85.6289214,8.55159583 85.5220703,8.7610664 85.5220703,9.0234375 C85.5220703,9.26041785 85.6215159,9.44449804 85.8204101,9.57568359 C86.0193044,9.70686915 86.4213186,9.83911066 87.0264648,9.97241211 C87.6316111,10.1057136 88.1066226,10.2644034 88.4515136,10.4484863 C88.7964047,10.6325693 89.0524243,10.8536771 89.2195801,11.1118164 C89.3867358,11.3699557 89.4703125,11.6831036 89.4703125,12.0512695 C89.4703125,12.6691112 89.2142929,13.1695131 88.7022461,13.5524902 C88.1901992,13.9354674 87.5194703,14.1269531 86.690039,14.1269531 C86.1272107,14.1269531 85.6257509,14.0253916 85.1856445,13.8222656 C84.7455381,13.6191396 84.4027681,13.3398455 84.1573242,12.984375 C83.9118803,12.6289045 83.7891601,12.245933 83.7891601,11.8354492 L85.287207,11.8354492 C85.308366,12.1993833 85.4458971,12.4797353 85.6998047,12.6765137 C85.9537122,12.873292 86.2901346,12.9716797 86.709082,12.9716797 C87.115334,12.9716797 87.4242502,12.8944506 87.6358398,12.7399902 C87.8474294,12.5855298 87.9532226,12.3834648 87.9532226,12.1337891 Z M94.4626953,12.1337891 C94.4626953,11.8587226 94.3494965,11.649252 94.1230957,11.5053711 C93.8966948,11.3614902 93.5211289,11.2345383 92.9963867,11.1245117 C92.4716445,11.0144851 92.0336606,10.8748381 91.6824218,10.7055664 C90.9122357,10.3331687 90.5271484,9.79362333 90.5271484,9.08691406 C90.5271484,8.49446318 90.7768204,7.99935095 91.2761718,7.6015625 C91.7755233,7.20377405 92.4102826,7.00488281 93.1804687,7.00488281 C94.0014364,7.00488281 94.6647598,7.20800578 95.170459,7.61425781 C95.6761581,8.02050984 95.9290039,8.54736004 95.9290039,9.19482422 L94.3865234,9.19482422 C94.3865234,8.89859878 94.2764985,8.65210059 94.0564453,8.45532227 C93.8363921,8.25854394 93.5444028,8.16015625 93.1804687,8.16015625 C92.8419254,8.16015625 92.5658051,8.23844323 92.3520996,8.39501953 C92.1383941,8.55159583 92.0315429,8.7610664 92.0315429,9.0234375 C92.0315429,9.26041785 92.1309886,9.44449804 92.3298828,9.57568359 C92.528777,9.70686915 92.9307912,9.83911066 93.5359375,9.97241211 C94.1410837,10.1057136 94.6160953,10.2644034 94.9609863,10.4484863 C95.3058773,10.6325693 95.5618969,10.8536771 95.7290527,11.1118164 C95.8962085,11.3699557 95.9797851,11.6831036 95.9797851,12.0512695 C95.9797851,12.6691112 95.7237656,13.1695131 95.2117187,13.5524902 C94.6996719,13.9354674 94.0289429,14.1269531 93.1995117,14.1269531 C92.6366834,14.1269531 92.1352235,14.0253916 91.6951172,13.8222656 C91.2550108,13.6191396 90.9122408,13.3398455 90.6667968,12.984375 C90.4213529,12.6289045 90.2986328,12.245933 90.2986328,11.8354492 L91.7966797,11.8354492 C91.8178386,12.1993833 91.9553698,12.4797353 92.2092773,12.6765137 C92.4631848,12.873292 92.7996073,12.9716797 93.2185547,12.9716797 C93.6248067,12.9716797 93.9337229,12.8944506 94.1453125,12.7399902 C94.3569021,12.5855298 94.4626953,12.3834648 94.4626953,12.1337891 Z M96.852539,10.5151367 C96.852539,9.44872514 97.1032689,8.59708977 97.6047363,7.96020508 C98.1062036,7.32332038 98.771643,7.00488281 99.6010742,7.00488281 C100.383956,7.00488281 100.999672,7.2778293 101.448242,7.82373047 L101.518066,7.13183594 L102.908203,7.13183594 L102.908203,13.7905273 C102.908203,14.691899 102.627851,15.4028294 102.067139,15.9233398 C101.506426,16.4438503 100.750005,16.7041016 99.7978515,16.7041016 C99.2942683,16.7041016 98.8023298,16.5993663 98.3220215,16.3898926 C97.8417131,16.1804189 97.4767265,15.9064145 97.2270508,15.5678711 L97.9570312,14.6411133 C98.4309919,15.2039416 99.0149705,15.4853516 99.7089843,15.4853516 C100.221031,15.4853516 100.625161,15.3467625 100.921387,15.0695801 C101.217612,14.7923977 101.365723,14.3850938 101.365723,13.8476562 L101.365723,13.3842773 C100.921384,13.879397 100.328942,14.1269531 99.5883789,14.1269531 C98.7843384,14.1269531 98.1273625,13.8074576 97.6174316,13.168457 C97.1075007,12.5294564 96.852539,11.6450252 96.852539,10.5151367 Z M98.3886718,10.6484375 C98.3886718,11.3382196 98.5293768,11.8809388 98.810791,12.2766113 C99.0922052,12.6722839 99.4825821,12.8701172 99.9819336,12.8701172 C100.604007,12.8701172 101.065265,12.6035183 101.365723,12.0703125 L101.365723,9.04882812 C101.073729,8.52831771 100.616702,8.26806641 99.9946289,8.26806641 C99.4868138,8.26806641 99.0922052,8.46907351 98.810791,8.87109375 C98.5293768,9.27311399 98.3886718,9.86555598 98.3886718,10.6484375 Z M105.253613,12.375 C105.541375,12.375 105.763541,12.4564608 105.920117,12.6193848 C106.076693,12.7823088 106.15498,12.9864897 106.15498,13.2319336 C106.15498,13.4731457 106.076693,13.6730949 105.920117,13.8317871 C105.763541,13.9904793 105.541375,14.0698242 105.253613,14.0698242 C104.978547,14.0698242 104.760613,13.9915372 104.599805,13.8349609 C104.438997,13.6783846 104.358594,13.4773775 104.358594,13.2319336 C104.358594,12.9864897 104.436881,12.7823088 104.593457,12.6193848 C104.750033,12.4564608 104.970083,12.375 105.253613,12.375 Z M109.173242,7.13183594 L109.217676,7.84912109 C109.7001,7.28629276 110.36025,7.00488281 111.198144,7.00488281 C112.116443,7.00488281 112.744855,7.35611628 113.083398,8.05859375 C113.58275,7.35611628 114.285217,7.00488281 115.19082,7.00488281 C115.948311,7.00488281 116.512189,7.21435337 116.882471,7.63330078 C117.252752,8.05224819 117.442122,8.67008055 117.450586,9.48681641 L117.450586,14 L115.908105,14 L115.908105,9.53125 C115.908105,9.09537542 115.812892,8.77587992 115.622461,8.57275391 C115.43203,8.36962789 115.116766,8.26806641 114.67666,8.26806641 C114.325421,8.26806641 114.038722,8.36222237 113.816553,8.55053711 C113.594384,8.73885185 113.438868,8.98535004 113.35,9.29003906 L113.356348,14 L111.813867,14 L111.813867,9.48046875 C111.792708,8.67219648 111.380115,8.26806641 110.576074,8.26806641 C109.958233,8.26806641 109.520249,8.51985425 109.262109,9.0234375 L109.262109,14 L107.719629,14 L107.719629,7.13183594 L109.173242,7.13183594 Z M121.858984,14.1269531 C120.88144,14.1269531 120.089049,13.8190949 119.481787,13.2033691 C118.874525,12.5876434 118.570898,11.767746 118.570898,10.7436523 L118.570898,10.5532227 C118.570898,9.86767235 118.70314,9.25512965 118.967627,8.71557617 C119.232114,8.17602269 119.603448,7.75602364 120.081641,7.45556641 C120.559833,7.15510917 121.093031,7.00488281 121.68125,7.00488281 C122.616476,7.00488281 123.339044,7.30321967 123.848975,7.89990234 C124.358906,8.49658501 124.613867,9.34081485 124.613867,10.4326172 L124.613867,11.0546875 L120.126074,11.0546875 C120.172624,11.6217476 120.361994,12.0703108 120.694189,12.4003906 C121.026385,12.7304704 121.444268,12.8955078 121.947852,12.8955078 C122.654561,12.8955078 123.230076,12.6098661 123.674414,12.0385742 L124.505957,12.8320312 C124.230891,13.2425151 123.863788,13.5609526 123.404639,13.7873535 C122.945489,14.0137544 122.430276,14.1269531 121.858984,14.1269531 Z M121.674902,8.24267578 C121.251723,8.24267578 120.910011,8.39078628 120.649756,8.68701172 C120.389501,8.98323716 120.223405,9.39583069 120.151465,9.92480469 L123.09043,9.92480469 L123.09043,9.81054688 C123.056575,9.29426825 122.919044,8.9038913 122.677832,8.6394043 C122.43662,8.3749173 122.102313,8.24267578 121.674902,8.24267578 Z" id="We-use-mssg.me" fill="#2CA6FF"></path>
                <g id="Group-14">
                    <rect id="Combined-Shape" fill="#2CA6FF" x="0" y="0" width="20" height="20" rx="4.88000011"></rect>
                    <path d="M6.70604262,5.02473798 C6.70604262,4.68147423 6.99328933,4.40320397 7.34762611,4.40320397 C7.7019629,4.40320397 7.98920961,4.68147423 7.98920961,5.02473798 L7.98920961,10.8257221 C7.98920961,11.1689858 7.7019629,11.4472561 7.34762611,11.4472561 C6.99328933,11.4472561 6.70604262,11.1689858 6.70604262,10.8257221 L6.70604262,5.02473798 Z M11.8387106,5.85345 C11.8387106,5.51018624 12.1259573,5.23191599 12.4802941,5.23191599 C12.8346309,5.23191599 13.1218776,5.51018624 13.1218776,5.85345 L13.1218776,11.6544341 C13.1218776,11.9976979 12.8346309,12.2759681 12.4802941,12.2759681 C12.1259573,12.2759681 11.8387106,11.9976979 11.8387106,11.6544341 L11.8387106,5.85345 Z M9.2723766,4.19602597 C9.2723766,3.85276221 9.55962332,3.57449196 9.9139601,3.57449196 C10.2682969,3.57449196 10.5555436,3.85276221 10.5555436,4.19602597 L10.5555436,9.99701007 C10.5555436,10.3402738 10.2682969,10.6185441 9.9139601,10.6185441 C9.55962332,10.6185441 9.2723766,10.3402738 9.2723766,9.99701007 L9.2723766,4.19602597 Z M16.0514661,12.3374989 C16.3707241,12.1885858 16.754146,12.3185897 16.9078629,12.627871 C17.0615797,12.9371522 16.927382,13.3085921 16.608124,13.4575053 L11.1923707,15.9836032 C8.74472575,17.1252709 5.80515799,16.1285737 4.6266623,13.7574177 C4.30614644,13.1125337 4.13970864,12.4059868 4.13970864,11.6902455 L4.13970864,7.09651802 C4.13970864,6.75325427 4.42695535,6.47498401 4.78129213,6.47498401 C5.13562891,6.47498401 5.42287563,6.75325427 5.42287563,7.09651802 L5.42287563,11.6902455 C5.42287563,12.2192716 5.54589487,12.741502 5.7827979,13.2181554 C6.65385993,14.970749 8.82658393,15.7074382 10.6357128,14.8635969 L16.0514661,12.3374989 Z" id="Combined-Shape" fill="#FFFFFF"></path>
                </g>
            </g>
        </g>
    </g>
</svg>