<svg width="240" height="240" viewBox="0 0 240 240" fill="none" xmlns="http://www.w3.org/2000/svg">
<path d="M120 240C53.736 240 0 186.264 0 120C0 53.736 53.736 0 120 0C186.264 0 240 53.736 240 120C240 186.264 186.264 240 120 240Z" fill="url(#paint0_linear)"/>
<path d="M120.008 74.9092C134.687 74.9092 136.427 74.9575 142.227 75.2314C147.593 75.4731 150.509 76.3754 152.442 77.1327C155.004 78.1317 156.841 79.324 158.759 81.2414C160.676 83.1588 161.868 84.9956 162.867 87.5575C163.625 89.491 164.511 92.4074 164.769 97.7728C165.026 103.573 165.091 105.313 165.091 119.992C165.091 134.67 165.042 136.411 164.769 142.211C164.527 147.577 163.625 150.493 162.867 152.426C161.868 154.988 160.676 156.825 158.759 158.742C156.841 160.66 155.004 161.852 152.442 162.851C150.509 163.608 147.593 164.495 142.227 164.752C136.427 165.01 134.687 165.075 120.008 165.075C105.33 165.075 103.589 165.026 97.7889 164.752C92.4235 164.511 89.5071 163.608 87.5736 162.851C85.0117 161.852 83.1749 160.66 81.2575 158.742C79.3401 156.825 78.1478 154.988 77.1488 152.426C76.3915 150.493 75.5053 147.577 75.2475 142.211C74.9897 136.411 74.9253 134.67 74.9253 119.992C74.9253 105.313 74.9736 103.573 75.2475 97.7728C75.4892 92.4074 76.3915 89.491 77.1488 87.5575C78.1478 84.9956 79.3401 83.1588 81.2575 81.2414C83.1749 79.324 85.0117 78.1317 87.5736 77.1327C89.5071 76.3754 92.4235 75.4892 97.7889 75.2314C103.589 74.9575 105.33 74.9092 120.008 74.9092ZM120.008 65C105.072 65 103.203 65.0645 97.3378 65.3384C91.4889 65.6123 87.493 66.5307 83.9805 67.9002C80.3713 69.2859 77.2938 71.1711 74.2486 74.2325C71.1872 77.2938 69.3181 80.3552 67.9002 83.9805C66.5468 87.4769 65.6123 91.4728 65.3384 97.3378C65.0644 103.203 65 105.072 65 120.008C65 134.944 65.0644 136.813 65.3384 142.678C65.6123 148.527 66.5307 152.523 67.9002 156.036C69.302 159.629 71.1872 162.706 74.2486 165.751C77.3099 168.813 80.3713 170.682 83.9966 172.1C87.493 173.453 91.4889 174.388 97.3539 174.662C103.219 174.936 105.088 175 120.024 175C134.96 175 136.829 174.936 142.694 174.662C148.543 174.388 152.539 173.469 156.052 172.1C159.645 170.698 162.722 168.813 165.768 165.751C168.829 162.69 170.698 159.629 172.116 156.003C173.469 152.507 174.404 148.511 174.678 142.646C174.952 136.781 175.016 134.912 175.016 119.976C175.016 105.04 174.952 103.171 174.678 97.3056C174.404 91.4567 173.485 87.4608 172.116 83.9483C170.714 80.3552 168.829 77.2777 165.768 74.2325C162.706 71.1711 159.645 69.302 156.019 67.8841C152.523 66.5307 148.527 65.5962 142.662 65.3222C136.813 65.0644 134.944 65 120.008 65Z" fill="white"/>
<path d="M120.009 91.7466C104.412 91.7466 91.7637 104.395 91.7637 119.992C91.7637 135.589 104.412 148.237 120.009 148.237C135.606 148.237 148.254 135.589 148.254 119.992C148.254 104.395 135.606 91.7466 120.009 91.7466ZM120.009 138.328C109.89 138.328 101.673 130.127 101.673 119.992C101.673 109.857 109.89 101.656 120.009 101.656C130.128 101.656 138.345 109.857 138.345 119.992C138.345 130.127 130.128 138.328 120.009 138.328Z" fill="white"/>
<path d="M149.366 97.241C153.014 97.241 155.972 94.2834 155.972 90.6349C155.972 86.9865 153.014 84.0288 149.366 84.0288C145.717 84.0288 142.76 86.9865 142.76 90.6349C142.76 94.2834 145.717 97.241 149.366 97.241Z" fill="white"/>
<defs>
<linearGradient id="paint0_linear" x1="35.1472" y1="204.853" x2="204.853" y2="35.1472" gradientUnits="userSpaceOnUse">
<stop stop-color="#FFD521"/>
<stop offset="0.0551048" stop-color="#FFD020"/>
<stop offset="0.1241" stop-color="#FEC01E"/>
<stop offset="0.2004" stop-color="#FCA71B"/>
<stop offset="0.2821" stop-color="#FA8316"/>
<stop offset="0.3681" stop-color="#F85510"/>
<stop offset="0.4563" stop-color="#F51E09"/>
<stop offset="0.5" stop-color="#F30005"/>
<stop offset="0.5035" stop-color="#F20007"/>
<stop offset="0.5966" stop-color="#E1003B"/>
<stop offset="0.6879" stop-color="#D30067"/>
<stop offset="0.7757" stop-color="#C70088"/>
<stop offset="0.8589" stop-color="#BF00A0"/>
<stop offset="0.9357" stop-color="#BB00AF"/>
<stop offset="1" stop-color="#B900B4"/>
</linearGradient>
</defs>
</svg>
