<?xml version="1.0" encoding="UTF-8"?>
<svg width="40px" height="40px" viewBox="0 0 40 40" version="1.1" xmlns="http://www.w3.org/2000/svg" xmlns:xlink="http://www.w3.org/1999/xlink">
    <!-- Generator: Sketch 47.1 (45422) - http://www.bohemiancoding.com/sketch -->
    <title>icon_viber</title>
    <desc>Created with Sketch.</desc>
    <defs>
        <linearGradient x1="50%" y1="3.34821429%" x2="50%" y2="99.5555644%" id="linearGradient-1">
            <stop stop-color="#8761FF" offset="0%"></stop>
            <stop stop-color="#4B399C" offset="100%"></stop>
        </linearGradient>
    </defs>
    <g id="Page-1" stroke="none" stroke-width="1" fill="none" fill-rule="evenodd">
        <g id="Настройки-–-Общие-Copy-3" transform="translate(-430.000000, -287.000000)">
            <g id="icon_viber" transform="translate(430.000000, 287.000000)">
                <circle id="Oval-2-Copy-3" fill="url(#linearGradient-1)" cx="20" cy="20" r="20"></circle>
                <g id="Logo-&amp;-Icon-Guidelines" transform="translate(9.333333, 8.666667)" fill="#FFFFFF">
                    <g id="Page-3">
                        <g id="Group-4">
                            <g id="Group-3">
                                <path d="M18.8150123,2.50668148 C18.2701728,2.0054963 16.0698272,0.407916049 11.1675309,0.386088889 C11.1675309,0.386088889 5.3862716,0.0372740741 2.56846914,2.62295309 C0.999851852,4.19157037 0.447876543,6.48678025 0.389530864,9.33354568 C0.331604938,12.1803111 0.256049383,17.5141136 5.39802469,18.9610025 C5.3997037,18.9614222 5.40138272,18.961842 5.40306173,18.9622617 L5.3997037,21.1689037 C5.3997037,21.1689037 5.36738272,22.0629778 5.95503704,22.2451506 C6.66693827,22.4659407 7.08459259,21.7867802 7.76417284,21.0547309 C8.13733333,20.6530272 8.65153086,20.0624346 9.04022222,19.6112 C12.5569136,19.9058667 15.2613827,19.230484 15.568642,19.1310025 C16.2788642,18.8997185 20.2967407,18.3859407 20.9502963,13.0521383 C21.624,7.55295309 20.6233086,4.07529877 18.8150123,2.50668148 M19.410642,12.6550519 C18.8578272,17.1086321 15.6005432,17.3898667 14.9998765,17.5825333 C14.7442469,17.6648049 12.3680247,18.2558173 9.38148148,18.0606321 C9.38148148,18.0606321 7.15553086,20.7457926 6.46083951,21.4442617 C6.35212346,21.5533975 6.22451852,21.5970519 6.13930864,21.576484 C6.01967901,21.547521 5.98651852,21.4056444 5.98819753,21.1982864 C5.98987654,20.9023605 6.00708642,17.5309037 6.00708642,17.5309037 C6.00330864,17.5300642 6.0045679,17.530484 6.00624691,17.5309037 C1.65760494,16.3224346 1.9111358,11.7819654 1.96024691,9.4049037 C2.00935802,7.02742222 2.45597531,5.0797679 3.78323457,3.76971852 C6.16659259,1.6109284 11.0768642,1.93329877 11.0768642,1.93329877 C15.2236049,1.9517679 17.210716,3.20011358 17.6716049,3.61860741 C19.2011852,4.92865679 19.9806667,8.06295309 19.410642,12.6550519" id="Fill-4775"></path>
                                <path d="M13.185242,9.48662963 C13.0383284,9.48662963 12.9161802,9.37161728 12.9086247,9.22344444 C12.8616123,8.28235802 12.4183531,7.82146914 11.5137852,7.77319753 C11.3609951,7.76480247 11.2434642,7.63425926 11.2518593,7.48146914 C11.2602543,7.32867901 11.3907975,7.21114815 11.5435877,7.21954321 C12.7373654,7.28376543 13.4009951,7.96712346 13.462279,9.19574074 C13.4698346,9.34853086 13.3523037,9.47865432 13.1990938,9.48620988 C13.1944765,9.48662963 13.1898593,9.48662963 13.185242,9.48662963" id="Fill-4777"></path>
                                <path d="M14.6078691,9.96346914 L14.6015728,9.96346914 C14.448363,9.96011111 14.3270543,9.83292593 14.3308321,9.6801358 C14.3522395,8.73233333 14.0814988,7.96502469 13.503079,7.33455556 C12.9275975,6.70492593 12.1376222,6.36198765 11.0874,6.28475309 C10.9350296,6.27341975 10.8200173,6.14077778 10.8313506,5.98798765 C10.842684,5.83561728 10.9753259,5.72060494 11.128116,5.73193827 C12.3093012,5.81840741 13.2461901,6.2318642 13.9123383,6.9601358 C14.5818444,7.69092593 14.9092519,8.61018519 14.8849062,9.6927284 C14.8815481,9.84341975 14.7581407,9.96346914 14.6078691,9.96346914" id="Fill-4779"></path>
                                <path d="M16.0643284,10.5330741 C15.9123778,10.5330741 15.7885506,10.4105062 15.7872914,10.2581358 C15.774279,8.56317284 15.2861062,7.26907407 14.2950691,6.30112346 C13.3157852,5.34744444 12.0783531,4.85801235 10.6171926,4.84751852 C10.4644025,4.84667901 10.3409951,4.72159259 10.3422543,4.56838272 C10.3430938,4.41601235 10.4673407,4.29344444 10.6192914,4.29344444 L10.6213901,4.29344444 C12.2303037,4.30477778 13.5966,4.84667901 14.6820815,5.90445679 C15.769242,6.96601235 16.3275136,8.4292716 16.3413654,10.2539383 C16.3426247,10.4067284 16.219637,10.5318148 16.0664272,10.5330741 L16.0643284,10.5330741 Z" id="Fill-4781"></path>
                            </g>
                            <path d="M11.5834222,12.9225605 C11.5834222,12.9225605 11.9733728,12.9569802 12.1828296,12.6967333 L12.5920889,12.1825358 C12.7889531,11.9269062 13.2657926,11.7644617 13.7321383,12.0242889 C13.9919654,12.1707827 14.4574716,12.4587333 14.7496198,12.6736469 C15.0589778,12.9011531 15.6923852,13.4287827 15.694484,13.4304617 C15.9967062,13.6852519 16.0663852,14.0596716 15.8607062,14.4542395 C15.8607062,14.4563383 15.8590272,14.4605358 15.8590272,14.4626346 C15.6478914,14.8357951 15.3653975,15.1850296 15.0077679,15.5111778 C15.0035704,15.5128568 15.0035704,15.5149556 15.0002123,15.5170543 C14.7068049,15.7617704 14.4184346,15.9007086 14.135521,15.9347086 C14.101521,15.9414247 14.0599654,15.944363 14.0091753,15.942684 C13.8853481,15.9439432 13.7627802,15.9254741 13.6414716,15.8860173 L13.632237,15.8725852 C13.1961136,15.7495975 12.4682617,15.4419185 11.2555951,14.7728321 C10.4677185,14.3383877 9.8120642,13.8951284 9.25882963,13.4535481 C8.96626173,13.2231037 8.66571852,12.960758 8.36055802,12.6572765 C8.35048395,12.6472025 8.34040988,12.6371284 8.3303358,12.6270543 C8.32026173,12.6169802 8.31018765,12.6069062 8.29969383,12.5968321 L8.29969383,12.5968321 L8.29969383,12.5964123 C8.28961975,12.5863383 8.27954568,12.5762642 8.2694716,12.5661901 C8.25939753,12.556116 8.24932346,12.546042 8.23924938,12.5359679 C7.9357679,12.2308074 7.67342222,11.9302642 7.44255802,11.6376963 C7.00139753,11.0844617 6.55813827,10.4288074 6.12369383,9.64093086 C5.45460741,8.4282642 5.1469284,7.70041235 5.02394074,7.26428889 L5.01050864,7.25463457 C4.97105185,7.13332593 4.95258272,7.01075802 4.95384198,6.88735062 C4.95174321,6.83614074 4.95510123,6.79500494 4.96139753,6.76100494 C4.99581728,6.47809136 5.13475556,6.18972099 5.3794716,5.89631358 C5.38157037,5.8925358 5.38366914,5.8925358 5.38534815,5.88875802 C5.7114963,5.53154815 6.06073086,5.24863457 6.43389136,5.03749877 C6.43599012,5.03749877 6.44018765,5.03581975 6.44186667,5.03581975 C6.83685432,4.83014074 7.21127407,4.89981975 7.46564444,5.20204198 C7.46774321,5.20372099 7.99537284,5.83754815 8.22287901,6.14690617 C8.43779259,6.43905432 8.72574321,6.90414074 8.87223704,7.16438765 C9.1320642,7.63073333 8.9692,8.10757284 8.71399012,8.30443704 L8.19937284,8.71327654 C7.93954568,8.92315309 7.97396543,9.3131037 7.97396543,9.3131037 C7.97396543,9.3131037 8.73497778,12.1955481 11.5834222,12.9225605" id="Fill-4783"></path>
                        </g>
                    </g>
                </g>
            </g>
        </g>
    </g>
</svg>