<?xml version="1.0" encoding="UTF-8"?>
<svg width="20px" height="20px" viewBox="0 0 20 20" version="1.1" xmlns="http://www.w3.org/2000/svg" xmlns:xlink="http://www.w3.org/1999/xlink">
    <!-- Generator: Sketch 47.1 (45422) - http://www.bohemiancoding.com/sketch -->
    <title>4</title>
    <desc>Created with Sketch.</desc>
    <defs>
        <linearGradient x1="50%" y1="3.34821429%" x2="50%" y2="99.5555644%" id="linearGradient-1">
            <stop stop-color="#8761FF" offset="0%"></stop>
            <stop stop-color="#4B399C" offset="100%"></stop>
        </linearGradient>
        <circle id="path-2" cx="8" cy="8" r="8"></circle>
    </defs>
    <g id="Realese-1" stroke="none" stroke-width="1" fill="none" fill-rule="evenodd">
        <g id="Desktop-Landscape-Copy-11" transform="translate(-119.000000, -547.000000)">
            <g id="4" transform="translate(121.000000, 549.000000)">
                <g id="Oval-2-Copy-3">
                    <use fill="url(#linearGradient-1)" fill-rule="evenodd" xlink:href="#path-2"></use>
                    <circle stroke="#FAFAFA" stroke-width="2" cx="8" cy="8" r="9"></circle>
                </g>
                <path d="M11.2593383,4.46933926 C11.0414025,4.26886519 10.1612642,3.62983309 8.20034568,3.62110222 C8.20034568,3.62110222 5.88784198,3.4815763 4.76072099,4.5158479 C4.13327407,5.14329481 3.91248395,6.06137877 3.88914568,7.20008494 C3.86597531,8.33879111 3.83575309,10.4723121 5.89254321,11.0510677 C5.89321481,11.0512356 5.89388642,11.0514035 5.89455802,11.0515714 L5.89321481,11.9342281 C5.89321481,11.9342281 5.88028642,12.2918578 6.11534815,12.3647269 C6.40010864,12.453043 6.56717037,12.1813788 6.83900247,11.888559 C6.98826667,11.7278775 7.19394568,11.4916405 7.34942222,11.3111467 C8.75609877,11.4290133 9.83788642,11.1588602 9.96079012,11.1190677 C10.244879,11.0265541 11.8520296,10.821043 12.1134519,8.68752198 C12.3829333,6.4878479 11.9826568,5.09678617 11.2593383,4.46933926 M11.4975901,8.52868741 C11.2764642,10.3101195 9.97355062,10.4226133 9.73328395,10.49968 C9.6310321,10.5325886 8.68054321,10.7689936 7.48592593,10.6909195 C7.48592593,10.6909195 6.59554568,11.7649837 6.31766914,12.0443714 C6.27418272,12.0880257 6.22314074,12.1054874 6.18905679,12.0972602 C6.14120494,12.0856751 6.12794074,12.0289244 6.12861235,11.9459812 C6.12928395,11.8276109 6.1361679,10.4790281 6.1361679,10.4790281 C6.13465679,10.4786923 6.13516049,10.4788602 6.1358321,10.4790281 C4.39637531,9.99564049 4.49778765,8.17945284 4.5174321,7.22862815 C4.53707654,6.27763556 4.71572346,5.49857383 5.24662716,4.97455407 C6.19997037,4.11103802 8.16407901,4.23998617 8.16407901,4.23998617 C9.82277531,4.24737383 10.6176198,4.7467121 10.8019753,4.91410963 C11.4138074,5.43812938 11.7256,6.6918479 11.4975901,8.52868741" id="Fill-4775" fill="#FFFFFF"></path>
                <path d="M9.00743012,7.26131852 C8.94866469,7.26131852 8.89980543,7.21531358 8.89678321,7.15604444 C8.87797827,6.77960988 8.70067457,6.59525432 8.33884741,6.57594568 C8.27773136,6.57258765 8.23071901,6.52037037 8.23407704,6.45925432 C8.23743506,6.39813827 8.28965235,6.35112593 8.3507684,6.35448395 C8.82827951,6.38017284 9.09373136,6.65351605 9.11824494,7.14496296 C9.12126716,7.20607901 9.07425481,7.2581284 9.01297086,7.26115062 C9.01112395,7.26131852 9.00927704,7.26131852 9.00743012,7.26131852" id="Fill-4777" fill="#FFFFFF"></path>
                <path d="M9.57648099,7.45205432 L9.57396247,7.45205432 C9.51267852,7.45071111 9.46415506,7.39983704 9.46566617,7.33872099 C9.47422914,6.9596 9.36593284,6.65267654 9.13456494,6.40048889 C8.90437235,6.14863704 8.58838222,6.01146173 8.16829333,5.9805679 C8.10734519,5.97603457 8.06134025,5.92297778 8.06587358,5.86186173 C8.07040691,5.80091358 8.1234637,5.75490864 8.18457975,5.75944198 C8.65705383,5.79402963 9.03180938,5.95941235 9.29826864,6.25072099 C9.56607111,6.54303704 9.69703407,6.91074074 9.6872958,7.34375802 C9.68595259,7.40403457 9.63658963,7.45205432 9.57648099,7.45205432" id="Fill-4779" fill="#FFFFFF"></path>
                <path d="M10.1590647,7.6798963 C10.0982844,7.6798963 10.0487536,7.63086914 10.0482499,7.56992099 C10.0430449,6.8919358 9.8477758,6.3742963 9.45136099,5.98711605 C9.05964741,5.60564444 8.56467457,5.4098716 7.98021037,5.40567407 C7.91909432,5.40533827 7.86973136,5.3553037 7.87023506,5.29401975 C7.87057086,5.2330716 7.92026963,5.18404444 7.98104988,5.18404444 L7.98188938,5.18404444 C8.62545481,5.18857778 9.17197333,5.40533827 9.60616593,5.82844938 C10.0410301,6.2530716 10.2643388,6.83837531 10.2698795,7.56824198 C10.2703832,7.62935802 10.2211881,7.67939259 10.1599042,7.6798963 L10.1590647,7.6798963 Z" id="Fill-4781" fill="#FFFFFF"></path>
                <path d="M8.36670222,8.63569086 C8.36670222,8.63569086 8.52268247,8.64945877 8.60646519,8.54536 L8.77016889,8.33968099 C8.84891457,8.23742914 9.03965037,8.17245136 9.22618864,8.27638222 C9.33011951,8.33497975 9.51632198,8.45016 9.63318123,8.53612543 C9.75692444,8.6271279 10.0102874,8.83817975 10.0111269,8.83885136 C10.1320158,8.94076741 10.1598874,9.09053531 10.0776158,9.24836247 C10.0776158,9.24920198 10.0769442,9.25088099 10.0769442,9.25172049 C9.99248988,9.40098469 9.87949235,9.54067852 9.73644049,9.67113778 C9.73476148,9.67180938 9.73476148,9.67264889 9.73341827,9.6734884 C9.61605531,9.77137481 9.50070716,9.82695012 9.38754173,9.84055012 C9.37394173,9.84323654 9.35731951,9.84441185 9.33700346,9.84374025 C9.28747259,9.84424395 9.23844543,9.8368563 9.18992198,9.82107358 L9.18622815,9.81570074 C9.01177877,9.76650568 8.72063802,9.64343407 8.23557136,9.37579951 C7.92042074,9.20202173 7.65815901,9.02471802 7.43686519,8.84808593 C7.31983802,8.75590815 7.19962074,8.65096988 7.07755654,8.52957728 C7.07352691,8.52554765 7.06949728,8.52151802 7.06546765,8.5174884 C7.06143802,8.51345877 7.0574084,8.50942914 7.05321086,8.50539951 L7.05321086,8.50539951 L7.05321086,8.5052316 C7.04918123,8.50120198 7.0451516,8.49717235 7.04112198,8.49314272 C7.03709235,8.48911309 7.03306272,8.48508346 7.02903309,8.48105383 C6.90764049,8.35898963 6.80270222,8.23877235 6.71035654,8.12174519 C6.53389235,7.90045136 6.35658864,7.63818963 6.18281086,7.32303901 C5.9151763,6.83797235 5.79210469,6.5468316 5.74290963,6.37238222 L5.73753679,6.36852049 C5.72175407,6.31999704 5.71436642,6.27096988 5.71487012,6.22160691 C5.71403062,6.20112296 5.71537383,6.18466864 5.71789235,6.17106864 C5.73166025,6.05790321 5.78723556,5.94255506 5.88512198,5.8251921 C5.88596148,5.82368099 5.88680099,5.82368099 5.88747259,5.82216988 C6.01793185,5.67928593 6.15762568,5.56612049 6.30688988,5.48166617 C6.30772938,5.48166617 6.3094084,5.48099457 6.31008,5.48099457 C6.46807506,5.39872296 6.61784296,5.42659457 6.71959111,5.54748346 C6.72043062,5.54815506 6.93148247,5.80168593 7.02248494,5.92542914 C7.10845037,6.0422884 7.22363062,6.22832296 7.28222815,6.33242173 C7.38615901,6.51896 7.32101333,6.7096958 7.21892938,6.78844148 L7.01308247,6.95197728 C6.9091516,7.0359279 6.92291951,7.19190815 6.92291951,7.19190815 C6.92291951,7.19190815 7.22732444,8.34488593 8.36670222,8.63569086" id="Fill-4783" fill="#FFFFFF"></path>
            </g>
        </g>
    </g>
</svg>
