<svg width="60" height="60" viewBox="0 0 60 60" fill="none" xmlns="http://www.w3.org/2000/svg">
<path fill-rule="evenodd" clip-rule="evenodd" d="M30 60C46.5685 60 60 46.5685 60 30C60 13.4315 46.5685 0 30 0C13.4315 0 0 13.4315 0 30C0 46.5685 13.4315 60 30 60Z" fill="url(#paint0_linear)"/>
<path fill-rule="evenodd" clip-rule="evenodd" d="M38.5381 29.8256C38.5381 29.8256 42.5888 24.1118 42.9913 22.234C43.1254 21.5634 42.8303 21.1876 42.1327 21.1876H38.6186C37.8138 21.1876 37.5188 21.5364 37.2773 22.0461C37.2773 22.0461 35.3774 26.0944 33.0657 28.6454C32.3236 29.4701 31.9462 29.7183 31.5366 29.7183C31.2062 29.7183 31.0538 29.4429 31.0538 28.699V22.1803C31.0538 21.2683 30.9465 21 30.1954 21H24.562C24.1327 21 23.8644 21.2496 23.8644 21.59C23.8644 22.449 25.1789 22.6429 25.1789 24.9701V29.772C25.1789 30.7378 25.1253 31.1133 24.6692 31.1133C23.4621 31.1133 20.5918 26.9554 18.9823 22.234C18.6603 21.2683 18.3116 21 17.3994 21H13.8854C13.3756 21 13 21.3486 13 21.8582C13 22.7971 14.0999 27.143 18.4189 32.9643C21.316 36.8808 25.1253 39 28.5589 39C30.6514 39 31.1611 38.6514 31.1611 37.766V34.7616C31.1611 34.0104 31.4562 33.6886 31.8854 33.6886C32.3682 33.6886 33.2204 33.8437 35.2118 35.8078C37.5724 38.0612 37.7334 39 39.0212 39H42.9644C43.3668 39 43.7423 38.8122 43.7423 38.1416C43.7423 37.2563 42.5888 35.6737 40.8183 33.7958C40.094 32.8301 38.9137 31.784 38.5381 31.3011C38.0017 30.7378 38.1626 30.4157 38.5381 29.8256Z" fill="#FFFFFE"/>
<defs>
<linearGradient id="paint0_linear" x1="0.301677" y1="0.603357" x2="0.301677" y2="60" gradientUnits="userSpaceOnUse">
<stop stop-color="#639FE5"/>
<stop offset="1" stop-color="#3A76BB"/>
</linearGradient>
</defs>
</svg>
