<?xml version="1.0" encoding="UTF-8"?>
<svg width="36px" height="36px" viewBox="0 0 36 36" version="1.1" xmlns="http://www.w3.org/2000/svg" xmlns:xlink="http://www.w3.org/1999/xlink">
    <!-- Generator: Sketch 52.2 (67145) - http://www.bohemiancoding.com/sketch -->
    <title>vkontakte</title>
    <desc>Created with Sketch.</desc>
    <g id="corporate-website-RU" stroke="none" stroke-width="1" fill="none" fill-rule="evenodd">
        <g id="profile-(en)-copy-2" transform="translate(-35.000000, -344.000000)">
            <g id="vkontakte" transform="translate(35.000000, 344.000000)">
                <rect id="Rectangle-2" fill="#5B88BD" x="0" y="0" width="36" height="36" rx="18"></rect>
                <path d="M25.0308077,17.8837529 C25.0308077,17.8837529 27.7321231,14.0745232 28.000552,12.8226544 C28.089978,12.3755907 27.8931955,12.1250965 27.427984,12.1250965 L25.0845237,12.1250965 C24.5478165,12.1250965 24.351034,12.3575907 24.1900369,12.6974073 C24.1900369,12.6974073 22.9230043,15.3962833 21.3813651,17.0969479 C20.8864705,17.6467398 20.6348419,17.8122046 20.3616668,17.8122046 C20.1413034,17.8122046 20.0396726,17.6285892 20.0396726,17.1326467 L20.0396726,12.7868803 C20.0396726,12.1788707 19.9681016,12 19.4672553,12 L15.7104562,12 C15.4241722,12 15.2452447,12.1663685 15.2452447,12.3933648 C15.2452447,12.9659769 16.1218764,13.095291 16.1218764,14.6467587 L16.1218764,17.8479788 C16.1218764,18.4918378 16.0860909,18.7421815 15.7819519,18.7421815 C14.9769665,18.7421815 13.0627814,15.970251 11.9894425,12.8226544 C11.7747296,12.1788707 11.5421615,12 10.9338834,12 L8.59042303,12 C8.25049848,12 8,12.2324189 8,12.5721602 C8,13.1980946 8.73348968,16.0953475 11.6137325,19.9762008 C13.5457726,22.5871853 16.0860909,24 18.3759107,24 C19.7713191,24 20.1112436,23.7675811 20.1112436,23.1773456 L20.1112436,21.1743707 C20.1112436,20.6736081 20.3080262,20.4590386 20.5942348,20.4590386 C20.916229,20.4590386 21.484578,20.5624447 22.8125589,21.8718533 C24.3868195,23.374141 24.494176,24 25.3529525,24 L27.9826215,24 C28.2509751,24 28.5013982,23.8748282 28.5013982,23.4277645 C28.5013982,22.8375289 27.7321231,21.7824556 26.5514277,20.5305116 C26.0684365,19.8867278 25.2813062,19.1893205 25.0308077,18.8674286 C24.6731034,18.4918378 24.7803846,18.2771177 25.0308077,17.8837529" id="Fill-4" fill="#FFFFFE"></path>
            </g>
        </g>
    </g>
</svg>