<?xml version="1.0" encoding="UTF-8"?>
<svg width="20px" height="20px" viewBox="0 0 20 20" version="1.1" xmlns="http://www.w3.org/2000/svg" xmlns:xlink="http://www.w3.org/1999/xlink">
    <!-- Generator: Sketch 52.6 (67491) - http://www.bohemiancoding.com/sketch -->
    <title>email</title>
    <desc>Created with Sketch.</desc>
    <defs>
        <path d="M13.9136101,9.56560791 L13.9136101,10.4351731 C13.9136101,11.3956683 14.6922453,12.1743036 15.6527405,12.1743036 C16.6132357,12.1743036 17.391871,11.3956683 17.391871,10.4351731 L17.391871,9.5656627 C17.3916419,5.92880541 14.8860631,2.77137825 11.3443707,1.94485206 C7.80267822,1.11832588 4.15833482,2.84054322 2.54833213,6.10162009 C0.938329443,9.36269696 1.78700625,13.3031309 4.59671043,15.6123068 C7.4064146,17.9214827 11.4366092,17.990785 14.3240449,15.7795757 C14.7053312,15.4875852 15.25113,15.5599737 15.5431205,15.9412601 C15.8351111,16.3225464 15.7627225,16.8683452 15.3814362,17.1603358 C11.8523482,19.8629249 6.92655472,19.7782221 3.49247184,16.9558959 C0.0583889652,14.1335698 -0.97888269,9.31748391 0.988898374,5.33172332 C2.95667943,1.3459627 7.41087693,-0.758969604 11.7396122,0.251229069 C16.0683474,1.26142775 19.1307215,5.12050538 19.1310014,9.56560791 L19.1310014,10.4351731 C19.1310014,12.3561636 17.573731,13.913434 15.6527405,13.913434 C14.4832639,13.913434 13.4485903,13.3362734 12.8180221,12.4512542 C12.021568,13.348233 10.8596809,13.913434 9.565784,13.913434 C7.16454597,13.913434 5.21795792,11.966846 5.21795792,9.56560791 C5.21795792,7.1643699 7.16454597,5.21778185 9.565784,5.21778185 C11.9670221,5.21778185 13.9136101,7.1643699 13.9136101,9.56560791 Z M9.565784,12.1743036 C11.0065269,12.1743036 12.1744797,11.0063508 12.1744797,9.56560791 C12.1744797,8.12486513 11.0065269,6.95691229 9.565784,6.95691229 C8.12504122,6.95691229 6.95708836,8.12486513 6.95708836,9.56560791 C6.95708836,11.0063508 8.12504122,12.1743036 9.565784,12.1743036 Z" id="path-1"></path>
    </defs>
    <g id="Page-1" stroke="none" stroke-width="1" fill="none" fill-rule="evenodd">
        <g id="email">
            <g id="Combined-Shape" fill="#000000" fill-rule="nonzero">
                <path d="M13.9136101,9.56560791 L13.9136101,10.4351731 C13.9136101,11.3956683 14.6922453,12.1743036 15.6527405,12.1743036 C16.6132357,12.1743036 17.391871,11.3956683 17.391871,10.4351731 L17.391871,9.5656627 C17.3916419,5.92880541 14.8860631,2.77137825 11.3443707,1.94485206 C7.80267822,1.11832588 4.15833482,2.84054322 2.54833213,6.10162009 C0.938329443,9.36269696 1.78700625,13.3031309 4.59671043,15.6123068 C7.4064146,17.9214827 11.4366092,17.990785 14.3240449,15.7795757 C14.7053312,15.4875852 15.25113,15.5599737 15.5431205,15.9412601 C15.8351111,16.3225464 15.7627225,16.8683452 15.3814362,17.1603358 C11.8523482,19.8629249 6.92655472,19.7782221 3.49247184,16.9558959 C0.0583889652,14.1335698 -0.97888269,9.31748391 0.988898374,5.33172332 C2.95667943,1.3459627 7.41087693,-0.758969604 11.7396122,0.251229069 C16.0683474,1.26142775 19.1307215,5.12050538 19.1310014,9.56560791 L19.1310014,10.4351731 C19.1310014,12.3561636 17.573731,13.913434 15.6527405,13.913434 C14.4832639,13.913434 13.4485903,13.3362734 12.8180221,12.4512542 C12.021568,13.348233 10.8596809,13.913434 9.565784,13.913434 C7.16454597,13.913434 5.21795792,11.966846 5.21795792,9.56560791 C5.21795792,7.1643699 7.16454597,5.21778185 9.565784,5.21778185 C11.9670221,5.21778185 13.9136101,7.1643699 13.9136101,9.56560791 Z M9.565784,12.1743036 C11.0065269,12.1743036 12.1744797,11.0063508 12.1744797,9.56560791 C12.1744797,8.12486513 11.0065269,6.95691229 9.565784,6.95691229 C8.12504122,6.95691229 6.95708836,8.12486513 6.95708836,9.56560791 C6.95708836,11.0063508 8.12504122,12.1743036 9.565784,12.1743036 Z" id="path-1"></path>
            </g>
        </g>
    </g>
</svg>