<?xml version="1.0" encoding="UTF-8"?>
<svg width="20px" height="20px" viewBox="0 0 20 20" version="1.1" xmlns="http://www.w3.org/2000/svg" xmlns:xlink="http://www.w3.org/1999/xlink">
    <!-- Generator: Sketch 52.6 (67491) - http://www.bohemiancoding.com/sketch -->
    <title>link</title>
    <desc>Created with Sketch.</desc>
    <defs>
        <path d="M7.45384996,11.4536169 C7.15311656,11.0515712 7.23524645,10.4818561 7.6372922,10.1811227 C8.03933795,9.88038927 8.609053,9.96251918 8.90978636,10.3645649 C9.541754,11.2094325 10.5095154,11.7381653 11.5618954,11.8135346 C12.6142755,11.888904 13.647507,11.5034785 14.3935393,10.7571756 L17.109738,8.0411711 C18.4878187,6.61433878 18.4681103,4.34631736 17.0654419,2.943649 C15.6627735,1.54098065 13.3947521,1.52127215 11.9773111,2.89015027 L10.4136747,4.44469573 C10.0576192,4.79868126 9.48201709,4.79700312 9.12803155,4.4409475 C8.774046,4.08489188 8.77572418,3.5092898 9.13177982,3.15530427 L10.7048075,1.59155617 C12.8450559,-0.475564966 16.2470881,-0.446002226 18.3510906,1.65800031 C20.4550931,3.76200285 20.4846559,7.16403497 18.4064607,9.31555164 L15.6793045,12.0427078 C14.5604308,13.1619872 13.0105835,13.7401255 11.4320135,13.6270715 C9.85344336,13.5140174 8.40180136,12.7209183 7.45384996,11.4536169 Z M12.54615,8.54638309 C12.8468835,8.94842882 12.7647535,9.51814391 12.3627078,9.81887727 C11.9606621,10.1196107 11.390947,10.0374808 11.0902136,9.63543509 C10.458246,8.79056745 9.49048464,8.26183473 8.43810464,8.18646536 C7.38572455,8.11109598 6.35249302,8.49652155 5.60646071,9.24282436 L2.89026201,11.9588289 C1.51218125,13.3856612 1.53188974,15.6536826 2.93455809,17.056351 C4.33722645,18.4590194 6.60524787,18.4787278 8.02081202,17.1117211 L9.57535745,15.5571756 C9.93037955,15.2021535 10.5059841,15.2021535 10.8610062,15.5571756 C11.2160283,15.9121977 11.2160283,16.4878023 10.8610062,16.8428244 L9.29519255,18.4084438 C7.15494406,20.475565 3.75291194,20.4460022 1.6489094,18.3419997 C-0.455093135,16.2379972 -0.484655875,12.835965 1.59353929,10.6844484 L4.32069549,7.9572922 C5.43956916,6.83801279 6.98941648,6.25987446 8.56798655,6.37292855 C10.1465566,6.48598265 11.5981986,7.27908174 12.54615,8.54638309 Z" id="path-1"></path>
    </defs>
    <g id="Page-1" stroke="none" stroke-width="1" fill="none" fill-rule="evenodd">
        <g id="link">
            <g id="Combined-Shape" fill="#000000" fill-rule="nonzero">
                <path d="M7.45384996,11.4536169 C7.15311656,11.0515712 7.23524645,10.4818561 7.6372922,10.1811227 C8.03933795,9.88038927 8.609053,9.96251918 8.90978636,10.3645649 C9.541754,11.2094325 10.5095154,11.7381653 11.5618954,11.8135346 C12.6142755,11.888904 13.647507,11.5034785 14.3935393,10.7571756 L17.109738,8.0411711 C18.4878187,6.61433878 18.4681103,4.34631736 17.0654419,2.943649 C15.6627735,1.54098065 13.3947521,1.52127215 11.9773111,2.89015027 L10.4136747,4.44469573 C10.0576192,4.79868126 9.48201709,4.79700312 9.12803155,4.4409475 C8.774046,4.08489188 8.77572418,3.5092898 9.13177982,3.15530427 L10.7048075,1.59155617 C12.8450559,-0.475564966 16.2470881,-0.446002226 18.3510906,1.65800031 C20.4550931,3.76200285 20.4846559,7.16403497 18.4064607,9.31555164 L15.6793045,12.0427078 C14.5604308,13.1619872 13.0105835,13.7401255 11.4320135,13.6270715 C9.85344336,13.5140174 8.40180136,12.7209183 7.45384996,11.4536169 Z M12.54615,8.54638309 C12.8468835,8.94842882 12.7647535,9.51814391 12.3627078,9.81887727 C11.9606621,10.1196107 11.390947,10.0374808 11.0902136,9.63543509 C10.458246,8.79056745 9.49048464,8.26183473 8.43810464,8.18646536 C7.38572455,8.11109598 6.35249302,8.49652155 5.60646071,9.24282436 L2.89026201,11.9588289 C1.51218125,13.3856612 1.53188974,15.6536826 2.93455809,17.056351 C4.33722645,18.4590194 6.60524787,18.4787278 8.02081202,17.1117211 L9.57535745,15.5571756 C9.93037955,15.2021535 10.5059841,15.2021535 10.8610062,15.5571756 C11.2160283,15.9121977 11.2160283,16.4878023 10.8610062,16.8428244 L9.29519255,18.4084438 C7.15494406,20.475565 3.75291194,20.4460022 1.6489094,18.3419997 C-0.455093135,16.2379972 -0.484655875,12.835965 1.59353929,10.6844484 L4.32069549,7.9572922 C5.43956916,6.83801279 6.98941648,6.25987446 8.56798655,6.37292855 C10.1465566,6.48598265 11.5981986,7.27908174 12.54615,8.54638309 Z" id="path-1"></path>
            </g>
        </g>
    </g>
</svg>