<?xml version="1.0" encoding="utf-8"?>
<svg version="1.1" id="Слой_1" xmlns="http://www.w3.org/2000/svg" xmlns:xlink="http://www.w3.org/1999/xlink" x="0px" y="0px"
	 width="36px" height="36px" viewBox="0 0 36 36" style="enable-background:new 0 0 36 36;" xml:space="preserve">
<style type="text/css">
	.st0{fill:#303541;}
</style>
<path id="Line-2-Copy-8" class="st0" d="M7.5,4.5v15.8c0,0.9,0.8,1.7,1.7,1.7s1.7-0.8,1.7-1.7V4.5c0-0.9-0.8-1.7-1.7-1.7
	S7.5,3.6,7.5,4.5z"/>
<path id="Line-2-Copy-9" class="st0" d="M21.5,6.8v15.8c0,0.9,0.8,1.7,1.7,1.7c1,0,1.7-0.8,1.7-1.7V6.8c0-0.9-0.8-1.7-1.7-1.7
	C22.3,5.1,21.5,5.8,21.5,6.8z"/>
<path id="Line-2-Copy-10" class="st0" d="M14.5,2.3V18c0,0.9,0.8,1.7,1.7,1.7S18,18.9,18,18V2.3c0-0.9-0.8-1.7-1.7-1.7
	S14.5,1.3,14.5,2.3z"/>
<path id="Triangle-3-Copy-3" class="st0" d="M32.9,24.4l-14.7,6.9C13.3,33.5,7.4,31.5,5,26.7c-0.6-1.3-1-2.7-1-4.1V10.1
	c0-0.9-0.8-1.7-1.7-1.7s-1.7,0.8-1.7,1.7v12.5c0,1.9,0.5,3.9,1.3,5.6c3.2,6.4,11.2,9.1,17.8,6l14.7-6.9c0.9-0.4,1.2-1.4,0.8-2.3
	S33.8,24,32.9,24.4z"/>
</svg>
