<?xml version="1.0" encoding="UTF-8"?>
<svg width="40px" height="40px" viewBox="0 0 40 40" version="1.1" xmlns="http://www.w3.org/2000/svg" xmlns:xlink="http://www.w3.org/1999/xlink">
    <!-- Generator: Sketch 54.1 (76490) - https://sketchapp.com -->
    <title>Group 7</title>
    <desc>Created with Sketch.</desc>
    <defs>
        <linearGradient x1="50%" y1="0%" x2="50%" y2="100%" id="linearGradient-1">
            <stop stop-color="#00B8F1" offset="0%"></stop>
            <stop stop-color="#007DD6" offset="100%"></stop>
        </linearGradient>
    </defs>
    <g id="Contact-Page-New" stroke="none" stroke-width="1" fill="none" fill-rule="evenodd">
        <g id="add-3.0" transform="translate(-24.000000, -405.000000)">
            <g id="Group-7" transform="translate(24.000000, 405.000000)">
                <circle id="Oval-2-Copy-3" fill="url(#linearGradient-1)" fill-rule="nonzero" cx="20" cy="20" r="20"></circle>
                <path d="M29.9980026,24.545606 C29.97599,27.5792012 27.5000184,30.020784 24.4672608,29.9995314 C23.5554937,30.0009197 22.6573102,29.7785295 21.8514707,29.3518622 C21.2760161,29.4567731 20.6922673,29.5095008 20.1073329,29.5094034 C17.595247,29.5275957 15.178855,28.546696 13.3898817,26.7825503 C11.6009083,25.0184045 10.5859416,22.6155665 10.568324,20.1027782 C10.5677282,19.4676464 10.6325132,18.8341411 10.7616542,18.2122841 C10.2630183,17.3778027 9.99980329,16.4237432 10.0000001,15.4515626 C10.0233857,12.4189468 12.4989532,9.97888171 15.5307419,10.0001378 C16.5704239,9.99746839 17.5900561,10.2862327 18.4740266,10.833689 C19.0133252,10.7418146 19.5594355,10.6958048 20.1064996,10.6961531 C25.3371997,10.6591935 29.607528,14.8706255 29.6446751,20.1027782 C29.6451949,20.782157 29.5705756,21.4595083 29.4221788,22.1224727 C29.8025694,22.8734232 29.9998879,23.7037625 29.9980026,24.545606 Z M24.658091,20.8263006 C24.434275,20.373658 24.104348,19.9818679 23.6964402,19.6843355 C23.2468086,19.3669429 22.7547726,19.1144027 22.2347977,18.9341394 C21.6155429,18.7160613 20.985236,18.5307563 20.3464956,18.3789944 C19.8006713,18.2381242 19.4015112,18.128929 19.1648485,18.05641 C18.9255532,17.981792 18.6950451,17.8814581 18.4773599,17.7571652 C18.2780848,17.6515514 18.1040864,17.503953 17.9673683,17.3245521 C17.852178,17.1616684 17.793626,16.9654648 17.8007044,16.7660728 C17.8108568,16.3904156 18.0102887,16.0453903 18.3306956,15.8491665 C18.7670252,15.5574268 19.2856486,15.4139254 19.8098378,15.4398929 C20.3133646,15.3945282 20.8170865,15.5246901 21.2356476,15.8083225 C21.5644431,16.1031531 21.8259198,16.4653422 22.0023016,16.8702667 C22.1339896,17.1478862 22.3058301,17.4045951 22.5122931,17.6321325 C22.7139721,17.8125781 22.9797834,17.9042109 23.2497809,17.8863656 C23.5877999,17.8897415 23.90918,17.7398859 24.1239331,17.4787591 C24.3508594,17.2240632 24.4760484,16.8946828 24.475594,16.5535173 C24.4699219,16.174009 24.3784733,15.8007038 24.2080984,15.4615652 C24.0037393,15.059951 23.7202832,14.7038311 23.3747789,14.4146249 C22.9590073,14.0649508 22.4805012,13.7976257 21.9648022,13.626919 C21.3209327,13.419358 20.6470068,13.3204805 19.9706685,13.3343426 C19.1147591,13.3153461 18.2635141,13.4654743 17.4657099,13.7761247 C16.7988242,14.0342161 16.2226583,14.4829851 15.8090707,15.0664619 C15.4197586,15.6372795 15.2160476,16.3143702 15.225747,17.005302 C15.2027831,17.686575 15.3958826,18.3576507 15.7774045,18.9224697 C16.1546968,19.44368 16.6601817,19.8585742 17.2448803,20.1269512 C17.963429,20.4535024 18.713791,20.7049031 19.4840099,20.8771473 C20.1356658,21.0305207 20.6623237,21.1780592 21.0498173,21.3139281 C21.3945081,21.4267865 21.7073224,21.6202423 21.9623022,21.8782422 C22.1889037,22.1243183 22.3074618,22.4509692 22.2914634,22.7851459 C22.2919584,23.2634216 22.0549472,23.7107133 21.6589739,23.9787912 C21.157515,24.3328315 20.5520591,24.508885 19.9390024,24.4789219 C19.5116413,24.4958275 19.0864497,24.4100796 18.6990229,24.2288566 C18.412644,24.0837312 18.1662689,23.8704902 17.9815347,23.6078609 C17.7830363,23.3016805 17.6187225,22.9746387 17.4915428,22.6326061 C17.3880954,22.325825 17.2172471,22.0461255 16.9915511,21.8140588 C16.7901762,21.620906 16.5205109,21.5154076 16.2415635,21.5206488 C15.905336,21.5125017 15.5814862,21.6476535 15.3507449,21.8924126 C15.1180225,22.1349946 14.9907026,22.4598255 14.9965841,22.7959821 C15.0130078,23.4122743 15.2021293,24.0115661 15.5424084,24.5256008 C15.8930972,25.0972854 16.3750322,25.5770684 16.9482185,25.9251332 C17.8847733,26.4347435 18.9410456,26.6831948 20.0065012,26.6444879 C20.9229546,26.6642664 21.8327779,26.4848108 22.6731238,26.1185171 C24.1113995,25.5016503 25.0331367,24.0751637 25.0047519,22.510074 C25.0225545,21.9291425 24.9038179,21.3521389 24.658091,20.8254671 L24.658091,20.8263006 Z" id="Combined-Shape" fill="#FFFFFF"></path>
            </g>
        </g>
    </g>
</svg>