<?xml version="1.0" encoding="UTF-8"?>
<svg width="40px" height="40px" viewBox="0 0 40 40" version="1.1" xmlns="http://www.w3.org/2000/svg" xmlns:xlink="http://www.w3.org/1999/xlink">
    <!-- Generator: Sketch 54.1 (76490) - https://sketchapp.com -->
    <title>Group 2</title>
    <desc>Created with Sketch.</desc>
    <defs>
        <linearGradient x1="50%" y1="3.34821429%" x2="50%" y2="99.5555644%" id="linearGradient-1">
            <stop stop-color="#865FFC" offset="0%"></stop>
            <stop stop-color="#4F3AA1" offset="100%"></stop>
        </linearGradient>
    </defs>
    <g id="Contact-Page-New" stroke="none" stroke-width="1" fill="none" fill-rule="evenodd">
        <g id="add-3.0" transform="translate(-24.000000, -293.000000)">
            <g id="Group-2" transform="translate(24.000000, 293.000000)">
                <circle id="Oval-2-Copy-3" fill="url(#linearGradient-1)" cx="20" cy="20" r="20"></circle>
                <path d="M28.1483453,11.1733485 C27.6035058,10.6721633 25.4031602,9.07458305 20.5008639,9.05275589 C20.5008639,9.05275589 14.7196046,8.70394107 11.9018021,11.2896201 C10.3331849,12.8582374 9.78120954,15.1534473 9.72286386,18.0002127 C9.66493794,20.8469781 9.58938238,26.1807806 14.7313577,27.6276695 C14.7330367,27.6280892 14.7347157,27.628509 14.7363947,27.6289287 L14.7330367,29.8355707 C14.7330367,29.8355707 14.7007157,30.7296448 15.28837,30.9118176 C16.0002713,31.1326077 16.4179256,30.4534472 17.0975058,29.7213979 C17.4706663,29.3196942 17.9848639,28.7291016 18.3735552,28.277867 C21.8902466,28.5725337 24.5947157,27.897151 24.901975,27.7976695 C25.6121972,27.5663855 29.6300737,27.0526077 30.2836293,21.7188053 C30.957333,16.2196201 29.9566416,12.7419658 28.1483453,11.1733485 M28.743975,21.3217189 C28.1911602,25.7752991 24.9338762,26.0565337 24.3332095,26.2492003 C24.0775799,26.3314719 21.7013577,26.9224843 18.7148145,26.7272991 C18.7148145,26.7272991 16.4888639,29.4124596 15.7941725,30.1109287 C15.6854565,30.2200645 15.5578515,30.2637189 15.4726416,30.243151 C15.353012,30.214188 15.3198515,30.0723114 15.3215305,29.8649534 C15.3232095,29.5690275 15.3404194,26.1975707 15.3404194,26.1975707 C15.3366416,26.1967312 15.3379009,26.197151 15.3395799,26.1975707 C10.9909379,24.9891016 11.2444688,20.4486324 11.2935799,18.0715707 C11.342691,15.6940892 11.7893083,13.7464349 13.1165676,12.4363855 C15.4999256,10.2775954 20.4101972,10.5999658 20.4101972,10.5999658 C24.5569379,10.6184349 26.544049,11.8667806 27.0049379,12.2852744 C28.5345182,13.5953238 29.3139997,16.7296201 28.743975,21.3217189" id="Fill-4775" fill="#FFFFFF" fill-rule="nonzero"></path>
                <path d="M22.518575,18.1532966 C22.3716614,18.1532966 22.2495132,18.0382843 22.2419577,17.8901114 C22.1949453,16.949025 21.7516861,16.4881361 20.8471182,16.4398645 C20.6943281,16.4314695 20.5767972,16.3009263 20.5851923,16.1481361 C20.5935873,15.995346 20.7241305,15.8778151 20.8769207,15.8862102 C22.0706984,15.9504324 22.7343281,16.6337905 22.795612,17.8624077 C22.8031676,18.0151979 22.6856367,18.1453213 22.5324268,18.1528769 C22.5278095,18.1532966 22.5231923,18.1532966 22.518575,18.1532966" id="Fill-4777" fill="#FFFFFF"></path>
                <path d="M23.9412021,18.6301361 L23.9349058,18.6301361 C23.781696,18.6267781 23.6603873,18.4995929 23.6641651,18.3468028 C23.6855725,17.3990003 23.4148318,16.6316917 22.836412,16.0012226 C22.2609305,15.3715929 21.4709552,15.0286546 20.420733,14.9514201 C20.2683626,14.9400867 20.1533503,14.8074448 20.1646836,14.6546546 C20.176017,14.5022843 20.3086589,14.3872719 20.461449,14.3986053 C21.6426342,14.4850744 22.5795231,14.8985312 23.2456713,15.6268028 C23.9151774,16.3575929 24.2425849,17.2768522 24.2182392,18.3593954 C24.2148811,18.5100867 24.0914737,18.6301361 23.9412021,18.6301361" id="Fill-4779" fill="#FFFFFF"></path>
                <path d="M25.3976614,19.1997411 C25.2457108,19.1997411 25.1218836,19.0771732 25.1206244,18.9248028 C25.107612,17.2298398 24.6194392,15.9357411 23.6284021,14.9677905 C22.6491182,14.0141114 21.4116861,13.5246793 19.9505256,13.5141855 C19.7977355,13.513346 19.6743281,13.3882596 19.6755873,13.2350497 C19.6764268,13.0826793 19.8006737,12.9601114 19.9526244,12.9601114 L19.9547231,12.9601114 C21.5636367,12.9714448 22.929933,13.513346 24.0154145,14.5711238 C25.102575,15.6326793 25.6608466,17.0959386 25.6746984,18.9206053 C25.6759577,19.0733954 25.55297,19.1984818 25.3997602,19.1997411 L25.3976614,19.1997411 Z" id="Fill-4781" fill="#FFFFFF"></path>
                <path d="M20.9167552,21.5892275 C20.9167552,21.5892275 21.3067058,21.6236472 21.5161626,21.3634003 L21.9254219,20.8492028 C22.1222861,20.5935732 22.5991256,20.4311287 23.0654713,20.6909559 C23.3252984,20.8374497 23.7908046,21.1254003 24.0829528,21.3403139 C24.3923108,21.5678201 25.0257182,22.0954497 25.027817,22.0971287 C25.3300392,22.3519189 25.3997182,22.7263386 25.1940392,23.1209065 C25.1940392,23.1230053 25.1923602,23.1272028 25.1923602,23.1293016 C24.9812244,23.5024621 24.6987305,23.8516966 24.3411009,24.1778448 C24.3369034,24.1795238 24.3369034,24.1816226 24.3335453,24.1837213 C24.0401379,24.4284374 23.7517676,24.5673756 23.468854,24.6013756 C23.434854,24.6080917 23.3932984,24.61103 23.3425083,24.609351 C23.2186811,24.6106102 23.0961132,24.5921411 22.9748046,24.5526843 L22.96557,24.5392522 C22.5294466,24.4162645 21.8015947,24.1085855 20.5889281,23.4394991 C19.8010515,23.0050547 19.1453972,22.5617954 18.5921626,22.1202151 C18.2995947,21.8897707 17.9990515,21.627425 17.693891,21.3239435 C17.6838169,21.3138695 17.6737429,21.3037954 17.6636688,21.2937213 C17.6535947,21.2836472 17.6435206,21.2735732 17.6330268,21.2634991 L17.6330268,21.2634991 L17.6330268,21.2630793 C17.6229527,21.2530053 17.6128787,21.2429312 17.6028046,21.2328571 C17.5927305,21.222783 17.5826565,21.212709 17.5725824,21.2026349 C17.2691009,20.8974744 17.0067552,20.5969312 16.775891,20.3043633 C16.3347305,19.7511287 15.8914713,19.0954744 15.4570268,18.3075979 C14.7879404,17.0949312 14.4802614,16.3670794 14.3572737,15.9309559 L14.3438416,15.9213016 C14.3043848,15.7999929 14.2859157,15.677425 14.287175,15.5540176 C14.2850762,15.5028077 14.2884342,15.4616719 14.2947305,15.4276719 C14.3291503,15.1447584 14.4680886,14.856388 14.7128046,14.5629806 C14.7149034,14.5592028 14.7170021,14.5592028 14.7186811,14.555425 C15.0448293,14.1982152 15.3940639,13.9153016 15.7672244,13.7041658 C15.7693231,13.7041658 15.7735206,13.7024868 15.7751997,13.7024868 C16.1701873,13.4968077 16.5446071,13.5664868 16.7989774,13.868709 C16.8010762,13.870388 17.3287058,14.5042152 17.556212,14.8135732 C17.7711256,15.1057213 18.0590762,15.5708077 18.20557,15.8310547 C18.4653972,16.2974003 18.302533,16.7742398 18.0473231,16.971104 L17.5327058,17.3799435 C17.2728787,17.5898201 17.3072984,17.9797707 17.3072984,17.9797707 C17.3072984,17.9797707 18.0683108,20.8622151 20.9167552,21.5892275" id="Fill-4783" fill="#FFFFFF"></path>
            </g>
        </g>
    </g>
</svg>