<?xml version="1.0" encoding="UTF-8"?>
<svg width="56px" height="56px" viewBox="0 0 56 56" version="1.1" xmlns="http://www.w3.org/2000/svg" xmlns:xlink="http://www.w3.org/1999/xlink">
    <!-- Generator: sketchtool 52.2 (67145) - http://www.bohemiancoding.com/sketch -->
    <title>DD6053F4-4EEE-44CE-A27F-0984A0F311A5</title>
    <desc>Created with sketchtool.</desc>
    <g id="corporate-website-EN" stroke="none" stroke-width="1" fill="none" fill-rule="evenodd">
        <g id="homepage" transform="translate(-530.000000, -2904.000000)" fill-rule="nonzero">
            <g id="block-with-advantages" transform="translate(160.000000, 2740.000000)">
                <g id="icon-percent" transform="translate(370.000000, 164.000000)">
                    <rect id="Rectangle-Copy-2" fill="#FFCC00" x="0" y="0" width="56" height="56" rx="13"></rect>
                    <g transform="translate(17.000000, 17.000000)" fill="#FFFFFF" id="Combined-Shape">
                        <path d="M18.6913139,1.58020282 C19.1686214,1.10289536 19.9424897,1.10289536 20.4197972,1.58020282 C20.8971046,2.05751029 20.8971046,2.8313786 20.4197972,3.30868607 L3.30868607,20.4197972 C2.8313786,20.8971046 2.05751029,20.8971046 1.58020282,20.4197972 C1.10289536,19.9424897 1.10289536,19.1686214 1.58020282,18.6913139 L18.6913139,1.58020282 Z M4.27777778,8.55555556 C1.91522635,8.55555556 0,6.64032921 0,4.27777778 C0,1.91522635 1.91522635,0 4.27777778,0 C6.64032921,0 8.55555556,1.91522635 8.55555556,4.27777778 C8.55555556,6.64032921 6.64032921,8.55555556 4.27777778,8.55555556 Z M4.27777778,6.11111111 C5.29029982,6.11111111 6.11111111,5.29029982 6.11111111,4.27777778 C6.11111111,3.26525574 5.29029982,2.44444444 4.27777778,2.44444444 C3.26525574,2.44444444 2.44444444,3.26525574 2.44444444,4.27777778 C2.44444444,5.29029982 3.26525574,6.11111111 4.27777778,6.11111111 Z M17.7222222,22 C15.3596708,22 13.4444444,20.0847737 13.4444444,17.7222222 C13.4444444,15.3596708 15.3596708,13.4444444 17.7222222,13.4444444 C20.0847737,13.4444444 22,15.3596708 22,17.7222222 C22,20.0847737 20.0847737,22 17.7222222,22 Z M17.7222222,19.5555556 C18.7347443,19.5555556 19.5555556,18.7347443 19.5555556,17.7222222 C19.5555556,16.7097002 18.7347443,15.8888889 17.7222222,15.8888889 C16.7097002,15.8888889 15.8888889,16.7097002 15.8888889,17.7222222 C15.8888889,18.7347443 16.7097002,19.5555556 17.7222222,19.5555556 Z"></path>
                    </g>
                </g>
            </g>
        </g>
    </g>
</svg>