<?xml version="1.0" encoding="UTF-8"?>
<svg width="44px" height="44px" viewBox="0 0 44 44" version="1.1" xmlns="http://www.w3.org/2000/svg" xmlns:xlink="http://www.w3.org/1999/xlink">
    <!-- Generator: Sketch 52.2 (67145) - http://www.bohemiancoding.com/sketch -->
    <title>icon-create-page-with-messengers</title>
    <desc>Created with Sketch.</desc>
    <g id="icon-create-page-with-messengers" stroke="none" stroke-width="1" fill="none" fill-rule="evenodd">
        <g id="icon-create-page-with-messengers-copy" fill-rule="nonzero">
            <path d="M33.3333333,39.1818182 C34.3765379,39.1818182 35.2222222,38.3270891 35.2222222,37.2727273 L35.2222222,6.72727273 C35.2222222,5.67291093 34.3765379,4.81818182 33.3333333,4.81818182 L10.6666667,4.81818182 C9.62346214,4.81818182 8.77777778,5.67291093 8.77777778,6.72727273 L8.77777778,37.2727273 C8.77777778,38.3270891 9.62346214,39.1818182 10.6666667,39.1818182 L33.3333333,39.1818182 Z M33.3333333,43 L10.6666667,43 C7.53705308,43 5,40.4358127 5,37.2727273 L5,6.72727273 C5,3.56418734 7.53705308,1 10.6666667,1 L33.3333333,1 C36.4629469,1 39,3.56418734 39,6.72727273 L39,37.2727273 C39,40.4358127 36.4629469,43 33.3333333,43 Z M11.2,22.8 L16.2,22.8 C16.7522847,22.8 17.2,23.2477153 17.2,23.8 L17.2,25.8 C17.2,26.3522847 16.7522847,26.8 16.2,26.8 L11.2,26.8 C10.6477153,26.8 10.2,26.3522847 10.2,25.8 L10.2,23.8 C10.2,23.2477153 10.6477153,22.8 11.2,22.8 Z M11.2,17.5 L16.2,17.5 C16.7522847,17.5 17.2,17.9477153 17.2,18.5 L17.2,20.5 C17.2,21.0522847 16.7522847,21.5 16.2,21.5 L11.2,21.5 C10.6477153,21.5 10.2,21.0522847 10.2,20.5 L10.2,18.5 C10.2,17.9477153 10.6477153,17.5 11.2,17.5 Z M19.5,22.8 L24.5,22.8 C25.0522847,22.8 25.5,23.2477153 25.5,23.8 L25.5,25.8 C25.5,26.3522847 25.0522847,26.8 24.5,26.8 L19.5,26.8 C18.9477153,26.8 18.5,26.3522847 18.5,25.8 L18.5,23.8 C18.5,23.2477153 18.9477153,22.8 19.5,22.8 Z M19.5,17.5 L24.5,17.5 C25.0522847,17.5 25.5,17.9477153 25.5,18.5 L25.5,20.5 C25.5,21.0522847 25.0522847,21.5 24.5,21.5 L19.5,21.5 C18.9477153,21.5 18.5,21.0522847 18.5,20.5 L18.5,18.5 C18.5,17.9477153 18.9477153,17.5 19.5,17.5 Z M27.8,22.8 L32.8,22.8 C33.3522847,22.8 33.8,23.2477153 33.8,23.8 L33.8,25.8 C33.8,26.3522847 33.3522847,26.8 32.8,26.8 L27.8,26.8 C27.2477153,26.8 26.8,26.3522847 26.8,25.8 L26.8,23.8 C26.8,23.2477153 27.2477153,22.8 27.8,22.8 Z M27.8,17.5 L32.8,17.5 C33.3522847,17.5 33.8,17.9477153 33.8,18.5 L33.8,20.5 C33.8,21.0522847 33.3522847,21.5 32.8,21.5 L27.8,21.5 C27.2477153,21.5 26.8,21.0522847 26.8,20.5 L26.8,18.5 C26.8,17.9477153 27.2477153,17.5 27.8,17.5 Z" id="Combined-Shape-Copy-3" fill="#111111"></path>
            <rect id="Rectangle" fill-opacity="0" fill="#FFFFFF" x="0" y="0" width="44" height="44"></rect>
        </g>
    </g>
</svg>