<?xml version="1.0" encoding="UTF-8"?>
<svg width="40px" height="40px" viewBox="0 0 40 40" version="1.1" xmlns="http://www.w3.org/2000/svg" xmlns:xlink="http://www.w3.org/1999/xlink">
    <!-- Generator: Sketch 54.1 (76490) - https://sketchapp.com -->
    <title>Group 8</title>
    <desc>Created with Sketch.</desc>
    <defs>
        <linearGradient x1="50%" y1="1.00559544%" x2="50%" y2="100%" id="linearGradient-1">
            <stop stop-color="#639FE5" offset="0%"></stop>
            <stop stop-color="#3A76BB" offset="100%"></stop>
        </linearGradient>
    </defs>
    <g id="Contact-Page-New" stroke="none" stroke-width="1" fill="none" fill-rule="evenodd">
        <g id="add-3.0" transform="translate(-24.000000, -181.000000)">
            <g id="Group-8" transform="translate(24.000000, 181.000000)">
                <circle id="Oval-2-Copy-5" fill="url(#linearGradient-1)" cx="20" cy="20" r="20"></circle>
                <path d="M26.358733,19.8837529 C26.358733,19.8837529 29.0591905,16.0745232 29.3275342,14.8226544 C29.4169318,14.3755907 29.2202118,14.1250965 28.755148,14.1250965 L26.4124318,14.1250965 C25.8758951,14.1250965 25.6791751,14.3575907 25.5182291,14.6974073 C25.5182291,14.6974073 24.2515989,17.3962833 22.7104492,19.0969479 C22.2157117,19.6467398 21.9641631,19.8122046 21.6910747,19.8122046 C21.4707813,19.8122046 21.3691828,19.6285892 21.3691828,19.1326467 L21.3691828,14.7868803 C21.3691828,14.1788707 21.2976345,14 20.7969473,14 L17.0413411,14 C16.755148,14 16.5762774,14.1663685 16.5762774,14.3933648 C16.5762774,14.9659769 17.4526307,15.095291 17.4526307,16.6467587 L17.4526307,19.8479788 C17.4526307,20.4918378 17.4168565,20.7421815 17.112814,20.7421815 C16.3080843,20.7421815 14.3945071,17.970251 13.321509,14.8226544 C13.1068642,14.1788707 12.87437,14 12.2662851,14 L9.92356888,14 C9.58375227,14 9.33333333,14.2324189 9.33333333,14.5721602 C9.33333333,15.1980946 10.0665901,18.0953475 12.9459183,21.9762008 C14.8773449,24.5871853 17.4168565,26 19.7059492,26 C21.1009144,26 21.440731,25.7675811 21.440731,25.1773456 L21.440731,23.1743707 C21.440731,22.6736081 21.6374511,22.4590386 21.9235689,22.4590386 C22.2454608,22.4590386 22.8136293,22.5624447 24.1411886,23.8718533 C25.7149492,25.374141 25.8222716,26 26.6807755,26 L29.3096094,26 C29.5778778,26 29.8282214,25.8748282 29.8282214,25.4277645 C29.8282214,24.8375289 29.0591905,23.7824556 27.87887,22.5305116 C27.3960322,21.8867278 26.6091519,21.1893205 26.358733,20.8674286 C26.0011423,20.4918378 26.1083893,20.2771177 26.358733,19.8837529" id="Fill-4" fill="#FFFFFE"></path>
            </g>
        </g>
    </g>
</svg>