<?xml version="1.0" encoding="UTF-8"?>
<svg width="40px" height="40px" viewBox="0 0 40 40" version="1.1" xmlns="http://www.w3.org/2000/svg" xmlns:xlink="http://www.w3.org/1999/xlink">
    <!-- Generator: Sketch 54.1 (76490) - https://sketchapp.com -->
    <title>Group 6</title>
    <desc>Created with Sketch.</desc>
    <defs>
        <linearGradient x1="50%" y1="0%" x2="50%" y2="100%" id="linearGradient-1">
            <stop stop-color="#5DFB79" offset="0%"></stop>
            <stop stop-color="#09B927" offset="100%"></stop>
        </linearGradient>
    </defs>
    <g id="Contact-Page-New" stroke="none" stroke-width="1" fill="none" fill-rule="evenodd">
        <g id="add-3.0" transform="translate(-24.000000, -349.000000)">
            <g id="Group-6" transform="translate(24.000000, 349.000000)">
                <circle id="Oval-2-Copy-3" fill="url(#linearGradient-1)" fill-rule="nonzero" cx="20" cy="20" r="20"></circle>
                <path d="M10.7362963,29 L12.097037,24.0518519 C9.7240949,19.8862655 10.796797,14.6078609 14.6074548,11.6989347 C18.4181126,8.79000852 23.7925799,9.14686378 27.1851852,12.5340741 C28.9875311,14.3177186 29.9984285,16.7502238 29.9911111,19.2859259 C29.9702988,24.5646076 25.6839073,28.8321192 20.4051852,28.8296296 L20.4007407,28.8296296 C18.8008196,28.8293771 17.2262829,28.4296322 15.82,27.6666667 L10.7362963,29 Z" id="WA_Logo_copy_24" stroke="#FFFFFF" stroke-width="2"></path>
                <path d="M24.797037,21.5451852 C24.6795055,21.4233122 24.5355606,21.3300521 24.3762963,21.2725926 C24.1577778,21.1562963 23.08,20.5874074 22.88,20.5103704 C22.8013793,20.4516569 22.700688,20.4310227 22.6053105,20.4540795 C22.509933,20.4771362 22.4297861,20.5414865 22.3866667,20.6296296 C22.2385185,20.862963 21.8214815,21.3888889 21.6933333,21.5451852 C21.6410665,21.6201062 21.5595161,21.6693883 21.4688837,21.6808233 C21.3782514,21.6922582 21.2870157,21.6647762 21.2177778,21.6051852 C20.5659072,21.3251272 19.9693605,20.9307742 19.4562963,20.4407407 C18.9731183,19.9618218 18.5625992,19.4147956 18.2377778,18.817037 C18.1381136,18.6574377 18.1803679,18.4477917 18.3340741,18.3392593 C18.4318519,18.2355556 18.5562963,18.0666667 18.662963,17.9296296 C18.7535926,17.8097589 18.8271347,17.6778818 18.8814815,17.5377778 C18.9396413,17.4058395 18.9327905,17.2543004 18.862963,17.1281481 C18.8081481,17.0111111 18.3696296,15.8577778 18.1874074,15.3881481 C18.0096296,14.9318519 17.8288889,14.9933333 17.6940741,14.9874074 C17.5592593,14.9814815 17.42,14.9785185 17.2748148,14.9785185 C17.0458463,14.9862961 16.8319793,15.0947204 16.6903704,15.2748148 C16.1828698,15.7957884 15.9072199,16.4996039 15.9259259,17.2266667 C15.9912737,18.1014646 16.2990804,18.9407509 16.8148148,19.6503704 C17.7343272,21.1340041 19.0239625,22.3529289 20.557037,23.1874074 C20.9636358,23.3756286 21.3806046,23.540586 21.8059259,23.6814815 C22.2514028,23.8273817 22.7262641,23.8597181 23.1874074,23.7755556 C23.8171504,23.633532 24.3562183,23.2292311 24.6688889,22.6644444 C24.8134147,22.3101634 24.8577466,21.9229644 24.797037,21.5451852 L24.797037,21.5451852 Z" id="WA_Logo_copy_24-2" fill="#FFFFFF"></path>
            </g>
        </g>
    </g>
</svg>