<svg width="217" height="40" viewBox="0 0 217 40" fill="none" xmlns="http://www.w3.org/2000/svg">
<path d="M6.80083 6.05287C6.80083 5.09358 7.56205 4.31593 8.50106 4.31593C9.44007 4.31593 10.2013 5.09358 10.2013 6.05287V22.2644C10.2013 23.2236 9.44007 24.0013 8.50106 24.0013C7.56205 24.0013 6.80083 23.2236 6.80083 22.2644V6.05287ZM20.4027 8.36879C20.4027 7.40951 21.1639 6.63185 22.1029 6.63185C23.0419 6.63185 23.8031 7.40951 23.8031 8.36879V24.5803C23.8031 25.5395 23.0419 26.3172 22.1029 26.3172C21.1639 26.3172 20.4027 25.5395 20.4027 24.5803V8.36879ZM13.6017 3.73694C13.6017 2.77766 14.363 2 15.302 2C16.241 2 17.0022 2.77766 17.0022 3.73694V19.9484C17.0022 20.9077 16.241 21.6854 15.302 21.6854C14.363 21.6854 13.6017 20.9077 13.6017 19.9484V3.73694ZM31.5667 26.4892C32.4127 26.073 33.4288 26.4363 33.8361 27.3007C34.2435 28.165 33.8879 29.203 33.0419 29.6192L18.6898 36.6786C12.2035 39.8691 4.41345 37.0837 1.29038 30.4573C0.44103 28.6551 0 26.6806 0 24.6803V11.8426C0 10.8834 0.761139 10.1057 1.70023 10.1057C2.63923 10.1057 3.40038 10.8834 3.40038 11.8426V24.6803C3.40038 26.1588 3.72638 27.6182 4.35424 28.9503C6.66254 33.848 12.4204 35.9068 17.2147 33.5486L31.5667 26.4892Z" fill="#F2F5FA"/>
<path fill-rule="evenodd" clip-rule="evenodd" d="M63.7499 13C65.2207 13 66.2384 13.4563 66.8029 14.369C67.3675 15.2818 67.6498 16.5452 67.6498 18.1594V23.9525C67.6498 24.3447 67.5235 24.6729 67.2709 24.9369C67.0183 25.2009 66.6989 25.3329 66.3127 25.3329C65.9264 25.3329 65.607 25.2009 65.3544 24.9369C65.1018 24.6729 64.9755 24.3447 64.9755 23.9525V18.1594C64.9755 17.3297 64.8158 16.6772 64.4964 16.202C64.177 15.7268 63.6162 15.4892 62.8139 15.4892C61.9819 15.4892 61.332 15.7419 60.864 16.2473C60.396 16.7526 60.162 17.39 60.162 18.1594V23.9525C60.162 24.3447 60.0357 24.6729 59.7831 24.9369C59.5306 25.2009 59.2111 25.3329 58.8249 25.3329C58.4386 25.3329 58.1192 25.2009 57.8666 24.9369C57.6141 24.6729 57.4878 24.3447 57.4878 23.9525V18.1594C57.4878 17.3297 57.3281 16.6772 57.0086 16.202C56.6892 15.7268 56.1284 15.4892 55.3261 15.4892C54.4941 15.4892 53.8442 15.7419 53.3762 16.2473C52.9082 16.7526 52.6742 17.39 52.6742 18.1594V23.9525C52.6742 24.3447 52.5479 24.6729 52.2954 24.9369C52.0428 25.2009 51.7234 25.3329 51.3371 25.3329C50.9508 25.3329 50.6314 25.2009 50.3788 24.9369C50.1263 24.6729 50 24.3447 50 23.9525V14.6066C50 14.2144 50.1263 13.8863 50.3788 13.6223C50.6314 13.3583 50.9508 13.2263 51.3371 13.2263C51.7234 13.2263 52.0428 13.3583 52.2954 13.6223C52.5479 13.8863 52.6742 14.2144 52.6742 14.6066V14.9687C53.0753 14.4256 53.5842 13.9617 54.2007 13.577C54.8173 13.1923 55.5044 13 56.2621 13C58.134 13 59.33 13.8297 59.85 15.4892C60.1917 14.8556 60.708 14.2823 61.3988 13.7694C62.0896 13.2564 62.8733 13 63.7499 13ZM70.1345 23.4547C70.0008 23.2736 69.934 23.0473 69.934 22.7758C69.934 22.3835 70.1271 22.0516 70.5134 21.7801C70.7214 21.6443 70.9368 21.5764 71.1596 21.5764C71.4716 21.5764 71.7688 21.7198 72.0511 22.0064C72.4968 22.4741 72.961 22.821 73.4439 23.0473C73.9267 23.2736 74.5098 23.3868 75.1932 23.3868C76.3521 23.3415 76.9315 22.8965 76.9315 22.0516C76.9315 21.6141 76.7346 21.2823 76.3409 21.056C75.9472 20.8297 75.3344 20.6034 74.5024 20.3771C73.6407 20.1357 72.9387 19.8943 72.3965 19.653C71.8542 19.4116 71.3862 19.0457 70.9925 18.5554C70.5988 18.0651 70.402 17.4051 70.402 16.5754C70.402 15.8512 70.6062 15.2214 71.0148 14.6858C71.4234 14.1503 71.9582 13.7354 72.6193 13.4412C73.2804 13.1471 73.9824 13 74.7253 13C75.483 13 76.2406 13.1433 76.9983 13.4299C77.756 13.7166 78.3503 14.139 78.7811 14.6972C78.9743 14.9385 79.0708 15.2101 79.0708 15.5118C79.0708 15.8588 78.9297 16.1454 78.6474 16.3717C78.4394 16.5377 78.2017 16.6206 77.9343 16.6206C77.6075 16.6206 77.34 16.515 77.132 16.3038C76.8646 15.9719 76.5192 15.7079 76.0958 15.5118C75.6724 15.3157 75.1932 15.2176 74.6584 15.2176C73.5293 15.2176 72.9647 15.6325 72.9647 16.4622C72.9647 16.7941 73.0687 17.0619 73.2767 17.2656C73.4847 17.4692 73.7484 17.6276 74.0679 17.7408C74.3873 17.8539 74.8367 17.9935 75.4161 18.1594C76.2184 18.3857 76.8869 18.6196 77.4217 18.8609C77.9566 19.1023 78.4097 19.4719 78.7811 19.9698C79.1526 20.4676 79.3383 21.1238 79.3383 21.9385C79.3383 22.6777 79.1228 23.3227 78.692 23.8733C78.2612 24.4239 77.7077 24.8426 77.0318 25.1292C76.3558 25.4159 75.6612 25.5592 74.9481 25.5592C73.9676 25.5592 73.0539 25.3932 72.207 25.0613C71.3602 24.7294 70.6694 24.1939 70.1345 23.4547ZM81.1545 23.4547C81.0208 23.2736 80.9539 23.0473 80.9539 22.7758C80.9539 22.3835 81.1471 22.0516 81.5333 21.7801C81.7413 21.6443 81.9568 21.5764 82.1796 21.5764C82.4916 21.5764 82.7887 21.7198 83.071 22.0064C83.5167 22.4741 83.981 22.821 84.4638 23.0473C84.9467 23.2736 85.5298 23.3868 86.2132 23.3868C87.372 23.3415 87.9514 22.8965 87.9514 22.0516C87.9514 21.6141 87.7546 21.2823 87.3609 21.056C86.9672 20.8297 86.3543 20.6034 85.5224 20.3771C84.6607 20.1357 83.9587 19.8943 83.4164 19.653C82.8742 19.4116 82.4062 19.0457 82.0125 18.5554C81.6188 18.0651 81.4219 17.4051 81.4219 16.5754C81.4219 15.8512 81.6262 15.2214 82.0348 14.6858C82.4433 14.1503 82.9782 13.7354 83.6393 13.4412C84.3004 13.1471 85.0024 13 85.7452 13C86.5029 13 87.2606 13.1433 88.0183 13.4299C88.776 13.7166 89.3702 14.139 89.8011 14.6972C89.9942 14.9385 90.0908 15.2101 90.0908 15.5118C90.0908 15.8588 89.9497 16.1454 89.6674 16.3717C89.4594 16.5377 89.2217 16.6206 88.9543 16.6206C88.6274 16.6206 88.36 16.515 88.152 16.3038C87.8846 15.9719 87.5392 15.7079 87.1157 15.5118C86.6923 15.3157 86.2132 15.2176 85.6784 15.2176C84.5492 15.2176 83.9847 15.6325 83.9847 16.4622C83.9847 16.7941 84.0887 17.0619 84.2967 17.2656C84.5047 17.4692 84.7684 17.6276 85.0878 17.7408C85.4072 17.8539 85.8566 17.9935 86.436 18.1594C87.2383 18.3857 87.9069 18.6196 88.4417 18.8609C88.9765 19.1023 89.4297 19.4719 89.8011 19.9698C90.1725 20.4676 90.3582 21.1238 90.3582 21.9385C90.3582 22.6777 90.1428 23.3227 89.7119 23.8733C89.2811 24.4239 88.7277 24.8426 88.0517 25.1292C87.3757 25.4159 86.6812 25.5592 85.9681 25.5592C84.9875 25.5592 84.0738 25.3932 83.227 25.0613C82.3802 24.7294 81.6893 24.1939 81.1545 23.4547ZM102.738 13C103.124 13 103.443 13.1282 103.696 13.3847C103.948 13.6411 104.075 13.973 104.075 14.3804V24.4503C104.075 26.2909 103.514 27.6524 102.392 28.5349C101.27 29.4175 99.8479 29.8587 98.1246 29.8587C97.6789 29.8587 97.066 29.7833 96.286 29.6324C95.5061 29.4816 94.9526 29.3307 94.6258 29.1798C93.8978 28.863 93.5338 28.4255 93.5338 27.8674C93.5338 27.7617 93.5561 27.6411 93.6007 27.5053C93.6898 27.1734 93.8421 26.9207 94.0575 26.7472C94.273 26.5737 94.5069 26.487 94.7595 26.487C94.9081 26.487 95.0492 26.5096 95.1829 26.5549C95.2424 26.5699 95.6101 26.7095 96.286 26.9735C96.962 27.2375 97.5749 27.3695 98.1246 27.3695C99.224 27.3695 100.045 27.147 100.587 26.7019C101.129 26.2569 101.4 25.6271 101.4 24.8124V23.7262C101.074 24.1939 100.58 24.6163 99.9185 24.9934C99.2574 25.3706 98.548 25.5592 97.7903 25.5592C96.7503 25.5592 95.8032 25.2914 94.9489 24.7558C94.0947 24.2203 93.4224 23.4773 92.9321 22.5269C92.4419 21.5764 92.1967 20.4978 92.1967 19.2909C92.1967 18.084 92.4381 17.0016 92.921 16.0436C93.4038 15.0856 94.065 14.3389 94.9044 13.8033C95.7438 13.2677 96.676 13 97.7011 13C98.4588 13 99.1645 13.1584 99.8182 13.4752C100.472 13.792 100.999 14.1767 101.4 14.6293V14.3804C101.4 13.9881 101.527 13.66 101.779 13.396C102.032 13.132 102.351 13 102.738 13ZM98.1246 23.07C99.12 23.07 99.9333 22.7117 100.565 21.9951C101.196 21.2785 101.512 20.3771 101.512 19.2909C101.512 18.2047 101.196 17.2995 100.565 16.5754C99.9333 15.8512 99.12 15.4892 98.1246 15.4892C97.1292 15.4892 96.3195 15.8512 95.6955 16.5754C95.0715 17.2995 94.7595 18.2047 94.7595 19.2909C94.7595 20.3771 95.0715 21.2785 95.6955 21.9951C96.3195 22.7117 97.1292 23.07 98.1246 23.07ZM108.431 25.3103C108 25.3103 107.67 25.1933 107.44 24.9595C107.209 24.7257 107.094 24.39 107.094 23.9525V23.5678C107.094 23.1303 107.209 22.7946 107.44 22.5608C107.67 22.327 108 22.2101 108.431 22.2101H108.721C109.152 22.2101 109.482 22.327 109.713 22.5608C109.943 22.7946 110.058 23.1303 110.058 23.5678V23.9525C110.058 24.39 109.943 24.7257 109.713 24.9595C109.482 25.1933 109.152 25.3103 108.721 25.3103H108.431ZM126.828 13C128.298 13 129.316 13.4563 129.881 14.369C130.445 15.2818 130.728 16.5452 130.728 18.1594V23.9525C130.728 24.3447 130.601 24.6729 130.349 24.9369C130.096 25.2009 129.777 25.3329 129.39 25.3329C129.004 25.3329 128.685 25.2009 128.432 24.9369C128.18 24.6729 128.053 24.3447 128.053 23.9525V18.1594C128.053 17.3297 127.894 16.6772 127.574 16.202C127.255 15.7268 126.694 15.4892 125.892 15.4892C125.06 15.4892 124.41 15.7419 123.942 16.2473C123.474 16.7526 123.24 17.39 123.24 18.1594V23.9525C123.24 24.3447 123.113 24.6729 122.861 24.9369C122.608 25.2009 122.289 25.3329 121.903 25.3329C121.516 25.3329 121.197 25.2009 120.944 24.9369C120.692 24.6729 120.566 24.3447 120.566 23.9525V18.1594C120.566 17.3297 120.406 16.6772 120.086 16.202C119.767 15.7268 119.206 15.4892 118.404 15.4892C117.572 15.4892 116.922 15.7419 116.454 16.2473C115.986 16.7526 115.752 17.39 115.752 18.1594V23.9525C115.752 24.3447 115.626 24.6729 115.373 24.9369C115.121 25.2009 114.801 25.3329 114.415 25.3329C114.029 25.3329 113.709 25.2009 113.457 24.9369C113.204 24.6729 113.078 24.3447 113.078 23.9525V14.6066C113.078 14.2144 113.204 13.8863 113.457 13.6223C113.709 13.3583 114.029 13.2263 114.415 13.2263C114.801 13.2263 115.121 13.3583 115.373 13.6223C115.626 13.8863 115.752 14.2144 115.752 14.6066V14.9687C116.153 14.4256 116.662 13.9617 117.278 13.577C117.895 13.1923 118.582 13 119.34 13C121.212 13 122.408 13.8297 122.928 15.4892C123.269 14.8556 123.786 14.2823 124.477 13.7694C125.167 13.2564 125.951 13 126.828 13ZM144.6 18.9967C144.585 19.3588 144.444 19.653 144.177 19.8792C143.909 20.1055 143.597 20.2187 143.241 20.2187H135.887C136.065 21.1088 136.473 21.8065 137.112 22.3119C137.751 22.8173 138.472 23.07 139.274 23.07C139.883 23.07 140.358 23.0134 140.7 22.9002C141.042 22.7871 141.313 22.6664 141.513 22.5382C141.714 22.4099 141.851 22.3232 141.926 22.2779C142.193 22.1422 142.446 22.0743 142.683 22.0743C142.995 22.0743 143.263 22.1874 143.486 22.4137C143.709 22.64 143.82 22.904 143.82 23.2057C143.82 23.6131 143.612 23.9827 143.196 24.3146C142.78 24.6616 142.223 24.9557 141.525 25.1971C140.826 25.4385 140.121 25.5592 139.408 25.5592C138.16 25.5592 137.071 25.2952 136.143 24.7672C135.214 24.2391 134.497 23.5112 133.992 22.5834C133.487 21.6556 133.235 20.6109 133.235 19.4493C133.235 18.1519 133.502 17.0129 134.037 16.0323C134.572 15.0517 135.277 14.3012 136.154 13.7807C137.03 13.2602 137.966 13 138.962 13C139.942 13 140.867 13.2715 141.736 13.8146C142.605 14.3577 143.3 15.0894 143.82 16.0097C144.34 16.9299 144.6 17.9256 144.6 18.9967ZM138.962 15.4892C137.238 15.4892 136.221 16.3114 135.909 17.9558H141.747V17.7974C141.688 17.1637 141.383 16.6206 140.834 16.1681C140.284 15.7155 139.66 15.4892 138.962 15.4892Z" fill="#F2F5FA"/>
<rect x="157" y="2" width="60" height="36" rx="8" fill="#F2F5FA"/>
<path d="M169.332 29H173.551V23.5795H176.415C180.412 23.5795 182.909 21.2102 182.909 17.5881C182.909 14 180.463 11.5455 176.542 11.5455H169.332V29ZM173.551 20.2557V14.946H175.631C177.523 14.946 178.537 15.9688 178.537 17.5881C178.537 19.1989 177.523 20.2557 175.631 20.2557H173.551ZM184.509 29H188.676V21.892C188.676 20.3324 189.784 19.2841 191.276 19.2841C191.77 19.2841 192.511 19.3693 192.912 19.5057V15.8835C192.562 15.7898 192.128 15.7301 191.744 15.7301C190.312 15.7301 189.17 16.5653 188.693 18.2955H188.557V15.9091H184.509V29ZM199.561 29.2472C203.678 29.2472 206.175 26.5284 206.175 22.4972C206.175 18.4574 203.678 15.7386 199.561 15.7386C195.445 15.7386 192.948 18.4574 192.948 22.4972C192.948 26.5284 195.445 29.2472 199.561 29.2472ZM199.587 26.1023C198.044 26.1023 197.192 24.6364 197.192 22.4716C197.192 20.2983 198.044 18.8239 199.587 18.8239C201.078 18.8239 201.931 20.2983 201.931 22.4716C201.931 24.6364 201.078 26.1023 199.587 26.1023Z" fill="#000103"/>
</svg>
