<?xml version="1.0" encoding="UTF-8"?>
<svg width="180px" height="20px" viewBox="0 0 180 20" version="1.1" xmlns="http://www.w3.org/2000/svg" xmlns:xlink="http://www.w3.org/1999/xlink">
    <!-- Generator: Sketch 50.2 (55047) - http://www.bohemiancoding.com/sketch -->
    <title>icon_we_use_mssgme_ru</title>
    <desc>Created with Sketch.</desc>
    <defs></defs>
    <g id="cards" stroke="none" stroke-width="1" fill="none" fill-rule="evenodd">
        <g id="marks-copy-6" transform="translate(-98.000000, -864.000000)">
            <g id="icon_we_use_mssgme_ru" transform="translate(98.000000, 864.000000)">
                <path d="M31.0214844,4.7578125 L33.6875,11.8417969 L36.347168,4.7578125 L38.4228516,4.7578125 L38.4228516,14 L36.8232422,14 L36.8232422,10.953125 L36.9819336,6.87792969 L34.2524414,14 L33.1035156,14 L30.3803711,6.88427734 L30.5390625,10.953125 L30.5390625,14 L28.9394531,14 L28.9394531,4.7578125 L31.0214844,4.7578125 Z M41.631543,9.31542969 L43.1422852,9.31542969 C43.7051135,9.31542969 44.195994,9.41275944 44.6149414,9.60742188 C45.0338888,9.80208431 45.3523264,10.0750308 45.5702637,10.4262695 C45.788201,10.7775083 45.897168,11.1858701 45.897168,11.6513672 C45.897168,12.3580765 45.647496,12.9251281 45.1481445,13.3525391 C44.6487931,13.7799501 43.9844117,13.9957682 43.1549805,14 L40.0890625,14 L40.0890625,7.13183594 L41.631543,7.13183594 L41.631543,9.31542969 Z M48.5822266,14 L47.0397461,14 L47.0397461,7.13183594 L48.5822266,7.13183594 L48.5822266,14 Z M41.631543,10.5532227 L41.631543,12.7685547 L43.1359375,12.7685547 C43.512567,12.7685547 43.8098459,12.6743987 44.0277832,12.486084 C44.2457205,12.2977692 44.3546875,12.0301124 44.3546875,11.6831055 C44.3546875,11.3360985 44.2478364,11.0620941 44.0341309,10.861084 C43.8204254,10.6600739 43.5316099,10.5574544 43.1676758,10.5532227 L41.631543,10.5532227 Z M57.5513672,7.13183594 L59.0875,7.13183594 L59.0875,14 L57.5513672,14 L57.5513672,9.41699219 L54.8599609,14 L53.3238281,14 L53.3238281,7.13183594 L54.8599609,7.13183594 L54.8599609,11.7148438 L57.5513672,7.13183594 Z M63.3499023,12.8955078 C63.7349954,12.8955078 64.0544909,12.783367 64.3083984,12.559082 C64.5623059,12.3347971 64.6977213,12.0576188 64.7146484,11.7275391 L66.1682617,11.7275391 C66.1513345,12.1549501 66.0180351,12.5537905 65.7683594,12.9240723 C65.5186836,13.2943541 65.1801454,13.5874013 64.7527344,13.8032227 C64.3253234,14.019044 63.864065,14.1269531 63.3689453,14.1269531 C62.4083285,14.1269531 61.6466174,13.8159211 61.0837891,13.1938477 C60.5209607,12.5717742 60.2395508,11.7127333 60.2395508,10.6166992 L60.2395508,10.4580078 C60.2395508,9.41275519 60.5188449,8.57593088 61.0774414,7.94750977 C61.6360379,7.31908865 62.3977491,7.00488281 63.3625976,7.00488281 C64.1793335,7.00488281 64.8447728,7.24291754 65.3589355,7.71899414 C65.8730983,8.19507074 66.142871,8.82030863 66.1682617,9.59472656 L64.7146484,9.59472656 C64.6977213,9.20116991 64.5633639,8.87744268 64.3115723,8.62353516 C64.0597806,8.36962764 63.7392272,8.24267578 63.3499023,8.24267578 C62.8505509,8.24267578 62.4654636,8.42358218 62.1946289,8.78540039 C61.9237942,9.14721861 61.786263,9.69628538 61.7820312,10.4326172 L61.7820312,10.6801758 C61.7820312,11.4249712 61.9163886,11.9803855 62.1851074,12.3464355 C62.4538262,12.7124856 62.8420873,12.8955078 63.3499023,12.8955078 Z M72.9570312,14 L71.4145508,14 L71.4145508,8.37597656 L68.7358398,8.37597656 L68.7358398,14 L67.1933594,14 L67.1933594,7.13183594 L72.9570312,7.13183594 L72.9570312,14 Z M74.109082,10.5024414 C74.109082,9.82958648 74.2423815,9.22339137 74.5089844,8.68383789 C74.7755873,8.14428441 75.1500952,7.72957502 75.6325195,7.43969727 C76.1149438,7.14981951 76.6693002,7.00488281 77.2956055,7.00488281 C78.2223679,7.00488281 78.9745576,7.30321967 79.5521972,7.89990234 C80.1298369,8.49658501 80.4419268,9.28791825 80.4884765,10.2739258 L80.4948242,10.6357422 C80.4948242,11.3128289 80.3646985,11.9179661 80.1044433,12.4511719 C79.8441881,12.9843777 79.471796,13.3969712 78.9872558,13.6889648 C78.5027157,13.9809585 77.9430696,14.1269531 77.3083008,14.1269531 C76.3392204,14.1269531 75.5637561,13.8042838 74.9818847,13.1589355 C74.4000133,12.5135873 74.109082,11.6534884 74.109082,10.5786133 L74.109082,10.5024414 Z M75.6515625,10.6357422 C75.6515625,11.3424515 75.7975571,11.89575 76.0895508,12.2956543 C76.3815444,12.6955586 76.7877903,12.8955078 77.3083008,12.8955078 C77.8288112,12.8955078 78.2339992,12.6923848 78.5238769,12.2861328 C78.8137547,11.8798808 78.9586914,11.2853229 78.9586914,10.5024414 C78.9586914,9.80842752 78.809523,9.25830281 78.5111816,8.85205078 C78.2128403,8.44579875 77.8076523,8.24267578 77.2956055,8.24267578 C76.7920222,8.24267578 76.3921239,8.44262495 76.0958984,8.8425293 C75.799673,9.24243364 75.6515625,9.84016529 75.6515625,10.6357422 Z M87.334375,7.13183594 L87.334375,14 L85.7918945,14 L85.7918945,8.37597656 L83.8495117,8.37597656 L83.7225586,10.769043 C83.6421545,11.9200904 83.4210467,12.7463354 83.0592285,13.2478027 C82.6974103,13.7492701 82.1441118,14 81.3993164,14 L80.9232422,14 L80.9168945,12.7177734 L81.2342773,12.6860352 C81.5728207,12.6394854 81.8193189,12.4331887 81.9737793,12.0671387 C82.1282397,11.7010887 82.2266274,11.0335335 82.2689453,10.0644531 L82.3958984,7.13183594 L87.334375,7.13183594 Z M90.4351562,9.31542969 L91.9458984,9.31542969 C92.5087267,9.31542969 92.9996073,9.41275944 93.4185547,9.60742188 C93.8375021,9.80208431 94.1559396,10.0750308 94.3738769,10.4262695 C94.5918142,10.7775083 94.7007812,11.1858701 94.7007812,11.6513672 C94.7007812,12.3580765 94.4511092,12.9251281 93.9517578,13.3525391 C93.4524063,13.7799501 92.788025,13.9957682 91.9585937,14 L88.8926758,14 L88.8926758,7.13183594 L90.4351562,7.13183594 L90.4351562,9.31542969 Z M90.4351562,10.5532227 L90.4351562,12.7685547 L91.9395508,12.7685547 C92.3161802,12.7685547 92.6134592,12.6743987 92.8313965,12.486084 C93.0493337,12.2977692 93.1583008,12.0301124 93.1583008,11.6831055 C93.1583008,11.3360985 93.0514496,11.0620941 92.8377441,10.861084 C92.6240386,10.6600739 92.3352231,10.5574544 91.971289,10.5532227 L90.4351562,10.5532227 Z M100.937305,9.01074219 C100.937305,9.31543121 100.845265,9.59578323 100.661182,9.85180664 C100.477099,10.1078301 100.217905,10.312011 99.8835937,10.4643555 C100.670707,10.7394219 101.064258,11.2705039 101.064258,12.0576172 C101.064258,12.6881542 100.808238,13.190672 100.296191,13.5651855 C99.7841445,13.9396991 99.0986045,14.1269531 98.2395508,14.1269531 C97.7148085,14.1269531 97.2366232,14.0391448 96.8049804,13.8635254 C96.3733377,13.687906 96.0369152,13.438234 95.7957031,13.114502 C95.554491,12.7907699 95.4338867,12.4067405 95.4338867,11.9624023 L96.9700195,11.9624023 C96.9700195,12.2417006 97.0948555,12.4755036 97.3445312,12.6638184 C97.594207,12.8521331 97.9094707,12.9462891 98.290332,12.9462891 C98.6669615,12.9462891 98.9663563,12.8584807 99.1885254,12.6828613 C99.4106944,12.507242 99.5217773,12.2776707 99.5217773,11.9941406 C99.5217773,11.6598291 99.4244476,11.4186205 99.2297851,11.2705078 C99.0351227,11.1223951 98.73467,11.0483398 98.3284179,11.0483398 L97.2239258,11.0483398 L97.2239258,9.9375 L98.3665039,9.9375 C99.056286,9.92903642 99.4011718,9.64551061 99.4011718,9.08691406 C99.4011718,8.80761579 99.3017262,8.58968177 99.102832,8.43310547 C98.9039378,8.27652917 98.6309913,8.19824219 98.2839843,8.19824219 C97.945441,8.19824219 97.6597993,8.28181883 97.4270508,8.44897461 C97.1943022,8.61613039 97.0779297,8.82665889 97.0779297,9.08056641 L95.5417968,9.08056641 C95.5417968,8.47542015 95.7957006,7.97924998 96.3035156,7.59204102 C96.8113306,7.20483205 97.4566692,7.01123047 98.2395508,7.01123047 C99.0901409,7.01123047 99.7524065,7.18473134 100.226367,7.53173828 C100.700328,7.87874522 100.937305,8.3717416 100.937305,9.01074219 Z M104.577637,11.7910156 L105.974121,7.13183594 L107.618164,7.13183594 L104.888672,15.0410156 C104.469724,16.1962948 103.758794,16.7739258 102.755859,16.7739258 C102.531574,16.7739258 102.284018,16.7358402 102.013184,16.659668 L102.013184,15.4663086 L102.305176,15.4853516 C102.694501,15.4853516 102.987548,15.4144701 103.184326,15.2727051 C103.381104,15.13094 103.53662,14.8929053 103.650879,14.5585938 L103.873047,13.9682617 L101.460937,7.13183594 L103.124023,7.13183594 L104.577637,11.7910156 Z M111.245801,14.1269531 C110.268257,14.1269531 109.475866,13.8190949 108.868603,13.2033691 C108.261341,12.5876434 107.957715,11.767746 107.957715,10.7436523 L107.957715,10.5532227 C107.957715,9.86767235 108.089956,9.25512965 108.354443,8.71557617 C108.61893,8.17602269 108.990265,7.75602364 109.468457,7.45556641 C109.946649,7.15510917 110.479847,7.00488281 111.068066,7.00488281 C112.003292,7.00488281 112.72586,7.30321967 113.235791,7.89990234 C113.745722,8.49658501 114.000684,9.34081485 114.000684,10.4326172 L114.000684,11.0546875 L109.512891,11.0546875 C109.55944,11.6217476 109.74881,12.0703108 110.081006,12.4003906 C110.413201,12.7304704 110.831085,12.8955078 111.334668,12.8955078 C112.041377,12.8955078 112.616892,12.6098661 113.06123,12.0385742 L113.892773,12.8320312 C113.617707,13.2425151 113.250604,13.5609526 112.791455,13.7873535 C112.332306,14.0137544 111.817093,14.1269531 111.245801,14.1269531 Z M111.061719,8.24267578 C110.63854,8.24267578 110.296827,8.39078628 110.036572,8.68701172 C109.776317,8.98323716 109.610222,9.39583069 109.538281,9.92480469 L112.477246,9.92480469 L112.477246,9.81054688 C112.443392,9.29426825 112.305861,8.9038913 112.064648,8.6394043 C111.823436,8.3749173 111.48913,8.24267578 111.061719,8.24267578 Z M119.075586,12.1020508 L121.106836,7.13183594 L123.036523,7.13183594 L123.036523,14 L121.494043,14 L121.494043,9.45507812 L119.602441,14 L118.555078,14 L116.657129,9.4296875 L116.657129,14 L115.114648,14 L115.114648,7.13183594 L117.057031,7.13183594 L119.075586,12.1020508 Z M129.054004,7.13183594 L129.098437,7.84912109 C129.580862,7.28629276 130.241011,7.00488281 131.078906,7.00488281 C131.997205,7.00488281 132.625617,7.35611628 132.96416,8.05859375 C133.463512,7.35611628 134.165979,7.00488281 135.071582,7.00488281 C135.829073,7.00488281 136.392951,7.21435337 136.763232,7.63330078 C137.133514,8.05224819 137.322884,8.67008055 137.331348,9.48681641 L137.331348,14 L135.788867,14 L135.788867,9.53125 C135.788867,9.09537542 135.693653,8.77587992 135.503223,8.57275391 C135.312792,8.36962789 134.997528,8.26806641 134.557422,8.26806641 C134.206183,8.26806641 133.919483,8.36222237 133.697314,8.55053711 C133.475145,8.73885185 133.319629,8.98535004 133.230762,9.29003906 L133.237109,14 L131.694629,14 L131.694629,9.48046875 C131.67347,8.67219648 131.260876,8.26806641 130.456836,8.26806641 C129.838994,8.26806641 129.40101,8.51985425 129.142871,9.0234375 L129.142871,14 L127.600391,14 L127.600391,7.13183594 L129.054004,7.13183594 Z M142.564941,12.1337891 C142.564941,11.8587226 142.451743,11.649252 142.225342,11.5053711 C141.998941,11.3614902 141.623375,11.2345383 141.098633,11.1245117 C140.573891,11.0144851 140.135907,10.8748381 139.784668,10.7055664 C139.014482,10.3331687 138.629394,9.79362333 138.629394,9.08691406 C138.629394,8.49446318 138.879066,7.99935095 139.378418,7.6015625 C139.877769,7.20377405 140.512529,7.00488281 141.282715,7.00488281 C142.103682,7.00488281 142.767006,7.20800578 143.272705,7.61425781 C143.778404,8.02050984 144.03125,8.54736004 144.03125,9.19482422 L142.488769,9.19482422 C142.488769,8.89859878 142.378745,8.65210059 142.158691,8.45532227 C141.938638,8.25854394 141.646649,8.16015625 141.282715,8.16015625 C140.944171,8.16015625 140.668051,8.23844323 140.454346,8.39501953 C140.24064,8.55159583 140.133789,8.7610664 140.133789,9.0234375 C140.133789,9.26041785 140.233235,9.44449804 140.432129,9.57568359 C140.631023,9.70686915 141.033037,9.83911066 141.638184,9.97241211 C142.24333,10.1057136 142.718341,10.2644034 143.063232,10.4484863 C143.408123,10.6325693 143.664143,10.8536771 143.831299,11.1118164 C143.998455,11.3699557 144.082031,11.6831036 144.082031,12.0512695 C144.082031,12.6691112 143.826012,13.1695131 143.313965,13.5524902 C142.801918,13.9354674 142.131189,14.1269531 141.301758,14.1269531 C140.738929,14.1269531 140.23747,14.0253916 139.797363,13.8222656 C139.357257,13.6191396 139.014487,13.3398455 138.769043,12.984375 C138.523599,12.6289045 138.400879,12.245933 138.400879,11.8354492 L139.898926,11.8354492 C139.920085,12.1993833 140.057616,12.4797353 140.311523,12.6765137 C140.565431,12.873292 140.901853,12.9716797 141.320801,12.9716797 C141.727053,12.9716797 142.035969,12.8944506 142.247559,12.7399902 C142.459148,12.5855298 142.564941,12.3834648 142.564941,12.1337891 Z M149.074414,12.1337891 C149.074414,11.8587226 148.961215,11.649252 148.734814,11.5053711 C148.508414,11.3614902 148.132848,11.2345383 147.608105,11.1245117 C147.083363,11.0144851 146.645379,10.8748381 146.294141,10.7055664 C145.523954,10.3331687 145.138867,9.79362333 145.138867,9.08691406 C145.138867,8.49446318 145.388539,7.99935095 145.887891,7.6015625 C146.387242,7.20377405 147.022001,7.00488281 147.792187,7.00488281 C148.613155,7.00488281 149.276479,7.20800578 149.782178,7.61425781 C150.287877,8.02050984 150.540723,8.54736004 150.540723,9.19482422 L148.998242,9.19482422 C148.998242,8.89859878 148.888217,8.65210059 148.668164,8.45532227 C148.448111,8.25854394 148.156122,8.16015625 147.792187,8.16015625 C147.453644,8.16015625 147.177524,8.23844323 146.963818,8.39501953 C146.750113,8.55159583 146.643262,8.7610664 146.643262,9.0234375 C146.643262,9.26041785 146.742707,9.44449804 146.941602,9.57568359 C147.140496,9.70686915 147.54251,9.83911066 148.147656,9.97241211 C148.752802,10.1057136 149.227814,10.2644034 149.572705,10.4484863 C149.917596,10.6325693 150.173616,10.8536771 150.340771,11.1118164 C150.507927,11.3699557 150.591504,11.6831036 150.591504,12.0512695 C150.591504,12.6691112 150.335484,13.1695131 149.823437,13.5524902 C149.311391,13.9354674 148.640662,14.1269531 147.81123,14.1269531 C147.248402,14.1269531 146.746942,14.0253916 146.306836,13.8222656 C145.86673,13.6191396 145.52396,13.3398455 145.278516,12.984375 C145.033072,12.6289045 144.910352,12.245933 144.910352,11.8354492 L146.408398,11.8354492 C146.429557,12.1993833 146.567089,12.4797353 146.820996,12.6765137 C147.074904,12.873292 147.411326,12.9716797 147.830273,12.9716797 C148.236525,12.9716797 148.545442,12.8944506 148.757031,12.7399902 C148.968621,12.5855298 149.074414,12.3834648 149.074414,12.1337891 Z M151.464258,10.5151367 C151.464258,9.44872514 151.714988,8.59708977 152.216455,7.96020508 C152.717922,7.32332038 153.383362,7.00488281 154.212793,7.00488281 C154.995674,7.00488281 155.611391,7.2778293 156.059961,7.82373047 L156.129785,7.13183594 L157.519922,7.13183594 L157.519922,13.7905273 C157.519922,14.691899 157.23957,15.4028294 156.678857,15.9233398 C156.118145,16.4438503 155.361723,16.7041016 154.40957,16.7041016 C153.905987,16.7041016 153.414049,16.5993663 152.93374,16.3898926 C152.453432,16.1804189 152.088445,15.9064145 151.838769,15.5678711 L152.56875,14.6411133 C153.042711,15.2039416 153.626689,15.4853516 154.320703,15.4853516 C154.83275,15.4853516 155.23688,15.3467625 155.533105,15.0695801 C155.829331,14.7923977 155.977441,14.3850938 155.977441,13.8476562 L155.977441,13.3842773 C155.533103,13.879397 154.940661,14.1269531 154.200098,14.1269531 C153.396057,14.1269531 152.739081,13.8074576 152.22915,13.168457 C151.719219,12.5294564 151.464258,11.6450252 151.464258,10.5151367 Z M153.000391,10.6484375 C153.000391,11.3382196 153.141096,11.8809388 153.42251,12.2766113 C153.703924,12.6722839 154.094301,12.8701172 154.593652,12.8701172 C155.215726,12.8701172 155.676984,12.6035183 155.977441,12.0703125 L155.977441,9.04882812 C155.685448,8.52831771 155.228421,8.26806641 154.606348,8.26806641 C154.098533,8.26806641 153.703924,8.46907351 153.42251,8.87109375 C153.141096,9.27311399 153.000391,9.86555598 153.000391,10.6484375 Z M159.865332,12.375 C160.153094,12.375 160.37526,12.4564608 160.531836,12.6193848 C160.688412,12.7823088 160.766699,12.9864897 160.766699,13.2319336 C160.766699,13.4731457 160.688412,13.6730949 160.531836,13.8317871 C160.37526,13.9904793 160.153094,14.0698242 159.865332,14.0698242 C159.590265,14.0698242 159.372331,13.9915372 159.211523,13.8349609 C159.050715,13.6783846 158.970312,13.4773775 158.970312,13.2319336 C158.970312,12.9864897 159.048599,12.7823088 159.205176,12.6193848 C159.361752,12.4564608 159.581802,12.375 159.865332,12.375 Z M163.784961,7.13183594 L163.829394,7.84912109 C164.311819,7.28629276 164.971968,7.00488281 165.809863,7.00488281 C166.728162,7.00488281 167.356574,7.35611628 167.695117,8.05859375 C168.194469,7.35611628 168.896936,7.00488281 169.802539,7.00488281 C170.56003,7.00488281 171.123908,7.21435337 171.494189,7.63330078 C171.864471,8.05224819 172.053841,8.67008055 172.062305,9.48681641 L172.062305,14 L170.519824,14 L170.519824,9.53125 C170.519824,9.09537542 170.42461,8.77587992 170.23418,8.57275391 C170.043749,8.36962789 169.728485,8.26806641 169.288379,8.26806641 C168.93714,8.26806641 168.650441,8.36222237 168.428271,8.55053711 C168.206102,8.73885185 168.050586,8.98535004 167.961719,9.29003906 L167.968066,14 L166.425586,14 L166.425586,9.48046875 C166.404427,8.67219648 165.991833,8.26806641 165.187793,8.26806641 C164.569951,8.26806641 164.131967,8.51985425 163.873828,9.0234375 L163.873828,14 L162.331348,14 L162.331348,7.13183594 L163.784961,7.13183594 Z M176.470703,14.1269531 C175.493159,14.1269531 174.700768,13.8190949 174.093506,13.2033691 C173.486244,12.5876434 173.182617,11.767746 173.182617,10.7436523 L173.182617,10.5532227 C173.182617,9.86767235 173.314859,9.25512965 173.579346,8.71557617 C173.843833,8.17602269 174.215167,7.75602364 174.693359,7.45556641 C175.171552,7.15510917 175.70475,7.00488281 176.292969,7.00488281 C177.228195,7.00488281 177.950762,7.30321967 178.460693,7.89990234 C178.970624,8.49658501 179.225586,9.34081485 179.225586,10.4326172 L179.225586,11.0546875 L174.737793,11.0546875 C174.784343,11.6217476 174.973712,12.0703108 175.305908,12.4003906 C175.638104,12.7304704 176.055987,12.8955078 176.55957,12.8955078 C177.26628,12.8955078 177.841795,12.6098661 178.286133,12.0385742 L179.117676,12.8320312 C178.842609,13.2425151 178.475507,13.5609526 178.016357,13.7873535 C177.557208,14.0137544 177.041995,14.1269531 176.470703,14.1269531 Z M176.286621,8.24267578 C175.863442,8.24267578 175.52173,8.39078628 175.261475,8.68701172 C175.001219,8.98323716 174.835124,9.39583069 174.763184,9.92480469 L177.702148,9.92480469 L177.702148,9.81054688 C177.668294,9.29426825 177.530763,8.9038913 177.289551,8.6394043 C177.048339,8.3749173 176.714032,8.24267578 176.286621,8.24267578 Z" id="Мы-используем-mssg.m" fill="#2CA6FF"></path>
                <g id="Group-14">
                    <rect id="Combined-Shape" fill="#2CA6FF" x="0" y="0" width="20" height="20" rx="4.88000011"></rect>
                    <path d="M6.70604262,5.02473798 C6.70604262,4.68147423 6.99328933,4.40320397 7.34762611,4.40320397 C7.7019629,4.40320397 7.98920961,4.68147423 7.98920961,5.02473798 L7.98920961,10.8257221 C7.98920961,11.1689858 7.7019629,11.4472561 7.34762611,11.4472561 C6.99328933,11.4472561 6.70604262,11.1689858 6.70604262,10.8257221 L6.70604262,5.02473798 Z M11.8387106,5.85345 C11.8387106,5.51018624 12.1259573,5.23191599 12.4802941,5.23191599 C12.8346309,5.23191599 13.1218776,5.51018624 13.1218776,5.85345 L13.1218776,11.6544341 C13.1218776,11.9976979 12.8346309,12.2759681 12.4802941,12.2759681 C12.1259573,12.2759681 11.8387106,11.9976979 11.8387106,11.6544341 L11.8387106,5.85345 Z M9.2723766,4.19602597 C9.2723766,3.85276221 9.55962332,3.57449196 9.9139601,3.57449196 C10.2682969,3.57449196 10.5555436,3.85276221 10.5555436,4.19602597 L10.5555436,9.99701007 C10.5555436,10.3402738 10.2682969,10.6185441 9.9139601,10.6185441 C9.55962332,10.6185441 9.2723766,10.3402738 9.2723766,9.99701007 L9.2723766,4.19602597 Z M16.0514661,12.3374989 C16.3707241,12.1885858 16.754146,12.3185897 16.9078629,12.627871 C17.0615797,12.9371522 16.927382,13.3085921 16.608124,13.4575053 L11.1923707,15.9836032 C8.74472575,17.1252709 5.80515799,16.1285737 4.6266623,13.7574177 C4.30614644,13.1125337 4.13970864,12.4059868 4.13970864,11.6902455 L4.13970864,7.09651802 C4.13970864,6.75325427 4.42695535,6.47498401 4.78129213,6.47498401 C5.13562891,6.47498401 5.42287563,6.75325427 5.42287563,7.09651802 L5.42287563,11.6902455 C5.42287563,12.2192716 5.54589487,12.741502 5.7827979,13.2181554 C6.65385993,14.970749 8.82658393,15.7074382 10.6357128,14.8635969 L16.0514661,12.3374989 Z" id="Combined-Shape" fill="#FFFFFF"></path>
                </g>
            </g>
        </g>
    </g>
</svg>