<svg width="240" height="240" viewBox="0 0 240 240" fill="none" xmlns="http://www.w3.org/2000/svg">
<path d="M120 240C186.274 240 240 186.274 240 120C240 53.7258 186.274 0 120 0C53.7258 0 0 53.7258 0 120C0 186.274 53.7258 240 120 240Z" fill="url(#paint0_linear)"/>
<path fill-rule="evenodd" clip-rule="evenodd" d="M73.6962 143.369L65 175L97.4213 166.494C104.827 170.155 112.984 172.067 121.286 172.068C150.864 172.082 174.883 148.162 175 118.575C175.041 104.339 169.369 90.6887 159.258 80.6792C140.262 61.7086 110.144 59.7083 88.7897 76.0137C68.0065 91.8831 61.7566 120.333 73.6962 143.369ZM98.6711 155.67L79.4474 160.714L84.576 142.059L83.5346 140.231C72.7514 121.296 77.626 97.3036 94.9425 84.0814C112.259 70.8591 136.682 72.4811 152.099 87.8774C160.293 95.989 164.88 107.03 164.847 118.539C164.752 142.529 145.273 161.928 121.259 161.916C113.987 161.915 106.829 160.097 100.436 156.628L98.6711 155.67Z" fill="white"/>
<path fill-rule="evenodd" clip-rule="evenodd" d="M143.575 130.023C142.979 129.404 142.249 128.931 141.441 128.639C140.332 128.049 134.863 125.162 133.848 124.771C133.449 124.473 132.938 124.368 132.455 124.485C131.971 124.602 131.564 124.929 131.345 125.376C130.593 126.56 128.477 129.23 127.827 130.023C127.562 130.403 127.148 130.653 126.688 130.711C126.228 130.769 125.765 130.63 125.414 130.328C122.107 128.906 119.08 126.905 116.476 124.418C114.025 121.987 111.942 119.211 110.294 116.177C109.788 115.367 110.002 114.303 110.782 113.752C111.278 113.225 111.91 112.368 112.451 111.673C112.911 111.064 113.284 110.395 113.56 109.684C113.855 109.014 113.82 108.245 113.466 107.605C113.188 107.011 110.963 101.157 110.038 98.7738C109.136 96.458 108.219 96.77 107.535 96.7399C106.851 96.7099 106.144 96.6948 105.407 96.6948C104.246 96.7343 103.16 97.2846 102.442 98.1986C99.8669 100.843 98.4682 104.415 98.5631 108.105C98.8947 112.545 100.457 116.805 103.073 120.406C107.739 127.936 114.283 134.123 122.062 138.358C124.125 139.313 126.24 140.15 128.398 140.865C130.659 141.606 133.068 141.77 135.408 141.343C138.603 140.622 141.339 138.57 142.925 135.704C143.658 133.906 143.883 131.94 143.575 130.023V130.023Z" fill="white"/>
<defs>
<linearGradient id="paint0_linear" x1="0" y1="0" x2="0" y2="240" gradientUnits="userSpaceOnUse">
<stop stop-color="#5DFB79"/>
<stop offset="1" stop-color="#09B927"/>
</linearGradient>
</defs>
</svg>
