<?xml version="1.0" encoding="utf-8"?>
<!-- Generator: Adobe Illustrator 23.0.0, SVG Export Plug-In . SVG Version: 6.00 Build 0)  -->
<svg version="1.1" id="Слой_1" xmlns="http://www.w3.org/2000/svg" xmlns:xlink="http://www.w3.org/1999/xlink" x="0px" y="0px"
	 width="36px" height="36px" viewBox="0 0 36 36" style="enable-background:new 0 0 36 36;" xml:space="preserve">
<style type="text/css">
	.st0{fill:#FFFFFF;}
	.st1{fill:#333333;}
</style>
<rect class="st0" width="36" height="36"/>
<title>logotype_element</title>
<desc>Created with Sketch.</desc>
<g id="Page-1">
	<g transform="translate(-15.000000, -14.000000)">
		<g id="logotype_element" transform="translate(15.000000, 14.000000)">
			<path id="Line-2-Copy-8" class="st1" d="M12.9,11.4v7.7c0,0.5,0.4,0.8,0.8,0.8s0.8-0.4,0.8-0.8v-7.7c0-0.5-0.4-0.8-0.8-0.8
				S12.9,11,12.9,11.4z"/>
			<path id="Line-2-Copy-9" class="st1" d="M19.7,12.5v7.7c0,0.5,0.4,0.8,0.8,0.8c0.5,0,0.8-0.4,0.8-0.8v-7.7c0-0.5-0.4-0.8-0.8-0.8
				C20.1,11.7,19.7,12.1,19.7,12.5z"/>
			<path id="Line-2-Copy-10" class="st1" d="M16.3,10.3V18c0,0.5,0.4,0.8,0.8,0.8S18,18.5,18,18v-7.7c0-0.5-0.4-0.8-0.8-0.8
				S16.3,9.9,16.3,10.3z"/>
			<path id="Triangle-3-Copy-3" class="st1" d="M25.3,21.1l-7.2,3.3c-2.4,1.1-5.3,0.1-6.4-2.2c-0.3-0.6-0.5-1.3-0.5-2v-6.1
				c0-0.5-0.4-0.8-0.8-0.8s-0.8,0.4-0.8,0.8v6.1c0,0.9,0.2,1.9,0.6,2.7c1.6,3.1,5.5,4.5,8.7,2.9l7.2-3.3c0.4-0.2,0.6-0.7,0.4-1.1
				C26.2,21.1,25.7,20.9,25.3,21.1z"/>
		</g>
	</g>
</g>
</svg>
