<?xml version="1.0" encoding="UTF-8"?>
<svg width="144px" height="135px" viewBox="0 0 144 135" version="1.1" xmlns="http://www.w3.org/2000/svg" xmlns:xlink="http://www.w3.org/1999/xlink">
    <!-- Generator: Sketch 52.2 (67145) - http://www.bohemiancoding.com/sketch -->
    <title>icon-inbox-messengers-in-process</title>
    <desc>Created with Sketch.</desc>
    <defs>
        <linearGradient x1="88.3998596%" y1="7.40271519%" x2="12.3633547%" y2="97.0718029%" id="linearGradient-1">
            <stop stop-color="#F4F4F4" stop-opacity="0" offset="0%"></stop>
            <stop stop-color="#D1D1D6" offset="100%"></stop>
        </linearGradient>
        <circle id="path-2" cx="32" cy="32" r="32"></circle>
    </defs>
    <g id="corporate-website-EN" stroke="none" stroke-width="1" fill="none" fill-rule="evenodd">
        <g id="inbox-(mobile)" transform="translate(-116.000000, -1083.000000)">
            <g id="icon-inbox-messengers-in-process" transform="translate(116.000000, 1082.000000)">
                <g id="Group-6" fill-rule="nonzero">
                    <path d="M55.2541193,-0.711304756 C55.646962,-2.88523417 57.727742,-4.32909017 59.9016714,-3.93624741 C62.0756008,-3.54340464 63.5194569,-1.46262466 63.1266141,0.711304756 C60.3751843,15.9372798 57.4761873,28.581814 54.4207478,38.660481 C51.3938147,48.6451169 47.176509,61.2038111 41.7668216,76.3457538 C41.0235823,78.4261119 38.7346043,79.5100609 36.6542462,78.7668216 C34.5738881,78.0235823 33.4899391,75.7346043 34.2331784,73.6542462 C39.6025138,58.6252504 43.7803996,46.1839446 46.7648267,36.339519 C49.7207474,26.5891245 52.55347,14.2336587 55.2541193,-0.711304756 Z" id="Path-2-Copy-9" fill="url(#linearGradient-1)"></path>
                    <g id="Group-19-Copy-3" transform="translate(0.000000, 72.000000)">
                        <circle id="Oval-Copy" fill="#D1D1D6" cx="32" cy="32" r="32"></circle>
                        <g id="Group-3" transform="translate(16.000000, 16.000000)" fill="#FFFFFF">
                            <g id="whatsapp-logo">
                                <path d="M31.9508449,15.5879111 C31.9508449,24.1969778 24.9291142,31.1758222 16.2658201,31.1758222 C13.5155624,31.1758222 10.9318041,30.4718222 8.68388462,29.2362667 L0,32 L2.83119986,23.6366222 C1.4029971,21.2878222 0.580440348,18.5329778 0.580440348,15.5879111 C0.580440348,6.97884444 7.60288104,0 16.2658201,0 C24.9298242,0 31.9508449,6.97884444 31.9508449,15.5879111 Z M16.2658201,2.48248889 C8.99380782,2.48248889 3.07864141,8.3616 3.07864141,15.5879111 C3.07864141,18.4554667 4.01196109,21.1111111 5.59068783,23.2714667 L3.94308926,28.1386667 L9.01084827,26.5255111 C11.0929783,27.8947556 13.5872743,28.6933333 16.2661751,28.6933333 C23.5371224,28.6933333 29.4533538,22.8149333 29.4533538,15.5886222 C29.4533538,8.36231111 23.5374774,2.48248889 16.2658201,2.48248889 Z M24.1864345,19.1779556 C24.089517,19.0190222 23.8335552,18.9230222 23.4494351,18.7320889 C23.0646049,18.5411556 21.1738249,17.6163556 20.8223656,17.4894222 C20.4698413,17.3621333 20.2128145,17.2981333 19.9568527,17.6803556 C19.7008909,18.0629333 18.9638914,18.9230222 18.7391705,19.1779556 C18.5148046,19.4336 18.2907937,19.4656 17.9059635,19.2743111 C17.5218433,19.0833778 16.2832156,18.6794667 14.8145417,17.3781333 C13.6717665,16.3655111 12.8999761,15.1153778 12.6756102,14.7324444 C12.4515992,14.3502222 12.6521796,14.1436444 12.8442396,13.9534222 C13.0174842,13.7820444 13.2290698,13.5072 13.4211299,13.2842667 C13.6139,13.0609778 13.6778017,12.9020444 13.80525,12.6467556 C13.9341185,12.3918222 13.8698618,12.1688889 13.7732992,11.9772444 C13.6774467,11.7863111 12.9077863,9.90613333 12.5875678,9.14097778 C12.2673494,8.37653333 11.9474859,8.50382222 11.722765,8.50382222 C11.4987541,8.50382222 11.2420823,8.47182222 10.9857655,8.47182222 C10.7294487,8.47182222 10.3126677,8.56746667 9.96014337,8.94968889 C9.60797406,9.33226667 8.6150128,10.2567111 8.6150128,12.1365333 C8.6150128,14.0167111 9.99209421,15.8332444 10.1848643,16.0878222 C10.3769244,16.3424 12.8438846,20.3260444 16.752538,21.856 C20.6615463,23.3852444 20.6615463,22.8750222 21.366595,22.8110222 C22.0709336,22.7473778 23.6407851,21.8869333 23.9624236,20.9952 C24.2819321,20.1020444 24.2819321,19.3372444 24.1864345,19.1779556 Z" id="WhatsApp"></path>
                            </g>
                        </g>
                    </g>
                </g>
                <g id="Group-5" transform="translate(80.000000, 0.000000)">
                    <path d="M22.2541193,-0.711304756 C22.646962,-2.88523417 24.727742,-4.32909017 26.9016714,-3.93624741 C29.0756008,-3.54340464 30.5194569,-1.46262466 30.1266141,0.711304756 C27.3751843,15.9372798 24.4761873,28.581814 21.4207478,38.660481 C18.3938147,48.6451169 14.176509,61.2038111 8.76682157,76.3457538 C8.02358226,78.4261119 5.73460429,79.5100609 3.65424618,78.7668216 C1.57388807,78.0235823 0.489939118,75.7346043 1.23317843,73.6542462 C6.60251383,58.6252504 10.7803996,46.1839446 13.7648267,36.339519 C16.7207474,26.5891245 19.55347,14.2336587 22.2541193,-0.711304756 Z" id="Path-2-Copy-12" fill="url(#linearGradient-1)" fill-rule="nonzero" transform="translate(15.594983, 37.500201) scale(-1, 1) translate(-15.594983, -37.500201) "></path>
                    <g id="Group-19-Copy-4" transform="translate(0.000000, 72.000000)">
                        <mask id="mask-3" fill="white">
                            <use xlink:href="#path-2"></use>
                        </mask>
                        <use id="Oval-Copy" fill="#D1D1D6" fill-rule="nonzero" xlink:href="#path-2"></use>
                        <path d="M37.3329444,32 C37.3329444,30.527636 36.8122114,29.2707209 35.7707452,28.2292548 C34.7292791,27.1877886 33.472364,26.6670556 32,26.6670556 C30.527636,26.6670556 29.2707209,27.1877886 28.2292548,28.2292548 C27.1877886,29.2707209 26.6670556,30.527636 26.6670556,32 C26.6670556,33.472364 27.1877886,34.7292791 28.2292548,35.7707452 C29.2707209,36.8122114 30.527636,37.3329444 32,37.3329444 C33.472364,37.3329444 34.7292791,36.8122114 35.7707452,35.7707452 C36.8122114,34.7292791 37.3329444,33.472364 37.3329444,32 Z M40.207671,32 C40.207671,34.2781586 39.4088766,36.2156434 37.8112877,37.8124544 C36.2136989,39.4092655 34.2762141,40.2080599 31.9988333,40.2088377 C29.7214525,40.2096155 27.7839677,39.4108211 26.1863789,37.8124544 C24.58879,36.2140878 23.7899956,34.276603 23.7899956,32 C23.7899956,29.723397 24.58879,27.7859122 26.1863789,26.1875456 C27.7839677,24.5891789 29.7214525,23.7903845 31.9988333,23.7911623 C34.2762141,23.7919401 36.2136989,24.5907345 37.8112877,26.1875456 C39.4088766,27.7843566 40.207671,29.7218414 40.207671,32 Z M42.4582179,23.4586554 C42.4582179,23.9867775 42.2707695,24.4382869 41.8958728,24.8131836 C41.5209761,25.1880803 41.0694667,25.3755287 40.5413446,25.3755287 C40.0132225,25.3755287 39.5617131,25.1880803 39.1868164,24.8131836 C38.8119197,24.4382869 38.6244713,23.9867775 38.6244713,23.4586554 C38.6244713,22.9305333 38.8119197,22.4790239 39.1868164,22.1041272 C39.5617131,21.7292305 40.0132225,21.5417821 40.5413446,21.5417821 C41.0694667,21.5417821 41.5209761,21.7292305 41.8958728,22.1041272 C42.2707695,22.4790239 42.4582179,22.9305333 42.4582179,23.4586554 Z M31.9988333,18.8747266 L30.4051334,18.8642263 C29.4398911,18.8572262 28.7072092,18.8572262 28.2070876,18.8642263 C27.7069661,18.8712265 27.0368966,18.8922269 26.1968791,18.9272277 C25.3568616,18.9622284 24.64168,19.0318409 24.0513344,19.1360653 C23.4609888,19.2402897 22.9643673,19.3686257 22.56147,19.5210734 C21.8669,19.7987458 21.2559428,20.2016431 20.7285985,20.7297652 C20.2012542,21.2578873 19.7983569,21.8688445 19.5199067,22.5626367 C19.367459,22.965534 19.239123,23.4621555 19.1348986,24.0525011 C19.0306743,24.6428467 18.9610617,25.3580283 18.926061,26.1980458 C18.8910602,27.0380633 18.8700598,27.7081328 18.8630596,28.2082543 C18.8560595,28.7083759 18.8560595,29.4410578 18.8630596,30.4063001 C18.8700598,31.3715425 18.8735599,31.9027758 18.8735599,32 C18.8735599,32.0972242 18.8700598,32.6284575 18.8630596,33.5936999 C18.8560595,34.5589422 18.8560595,35.2916241 18.8630596,35.7917457 C18.8700598,36.2918672 18.8910602,36.9619367 18.926061,37.8019542 C18.9610617,38.6419717 19.0306743,39.3571533 19.1348986,39.9474989 C19.239123,40.5378445 19.367459,41.034466 19.5199067,41.4373633 C19.7975791,42.1319333 20.2004764,42.7428905 20.7285985,43.2702348 C21.2567206,43.7975791 21.8676778,44.2004764 22.56147,44.4789266 C22.9643673,44.6313743 23.4609888,44.7597103 24.0513344,44.8639347 C24.64168,44.9681591 25.3568616,45.0377716 26.1968791,45.0727723 C27.0368966,45.1077731 27.7069661,45.1287735 28.2070876,45.1357737 C28.7072092,45.1427738 29.4398911,45.1427738 30.4051334,45.1357737 C31.3703758,45.1287735 31.9016091,45.1252734 31.9988333,45.1252734 C32.0960576,45.1252734 32.6272908,45.1287735 33.5925332,45.1357737 C34.5577755,45.1427738 35.2904574,45.1427738 35.790579,45.1357737 C36.2907005,45.1287735 36.96077,45.1077731 37.8007875,45.0727723 C38.640805,45.0377716 39.3559866,44.9681591 39.9463322,44.8639347 C40.5366778,44.7597103 41.0332993,44.6313743 41.4361966,44.4789266 C42.1307666,44.2012542 42.7417238,43.7983569 43.2690681,43.2702348 C43.7964124,42.7421127 44.1993097,42.1311555 44.47776,41.4373633 C44.6302076,41.034466 44.7585436,40.5378445 44.862768,39.9474989 C44.9669924,39.3571533 45.0366049,38.6419717 45.0716057,37.8019542 C45.1066064,36.9619367 45.1276068,36.2918672 45.134607,35.7917457 C45.1416071,35.2916241 45.1416071,34.5589422 45.134607,33.5936999 C45.1276068,32.6284575 45.1241068,32.0972242 45.1241068,32 C45.1241068,31.9027758 45.1276068,31.3715425 45.134607,30.4063001 C45.1416071,29.4410578 45.1416071,28.7083759 45.134607,28.2082543 C45.1276068,27.7081328 45.1066064,27.0380633 45.0716057,26.1980458 C45.0366049,25.3580283 44.9669924,24.6428467 44.862768,24.0525011 C44.7585436,23.4621555 44.6302076,22.965534 44.47776,22.5626367 C44.2000875,21.8680667 43.7971902,21.2571095 43.2690681,20.7297652 C42.740946,20.2024209 42.1299888,19.7995236 41.4361966,19.5210734 C41.0332993,19.3686257 40.5366778,19.2402897 39.9463322,19.1360653 C39.3559866,19.0318409 38.640805,18.9622284 37.8007875,18.9272277 C36.96077,18.8922269 36.2907005,18.8712265 35.790579,18.8642263 C35.2904574,18.8572262 34.5577755,18.8572262 33.5925332,18.8642263 C32.6272908,18.8712265 32.0960576,18.8747266 31.9988333,18.8747266 L31.9988333,18.8747266 Z M48,32 C48,35.1803996 47.9653882,37.3819455 47.8961645,38.6046376 C47.7569394,41.4933644 46.8959214,43.7295221 45.3131107,45.3131107 C43.7302999,46.8966992 41.4941422,47.7577172 38.6046376,47.8961645 C37.3827233,47.9653882 35.1811774,48 32,48 C28.8188226,48 26.6172767,47.9653882 25.3953624,47.8961645 C22.5066356,47.7569394 20.2704779,46.8959214 18.6868893,45.3131107 C17.1033008,43.7302999 16.2422828,41.4941422 16.1038355,38.6046376 C16.0346118,37.3827233 16,35.1811774 16,32 C16,28.8188226 16.0346118,26.6172767 16.1038355,25.3953624 C16.2430606,22.5066356 17.1040786,20.2704779 18.6868893,18.6868893 C20.2697001,17.1033008 22.5058578,16.2422828 25.3953624,16.1038355 C26.6172767,16.0346118 28.8188226,16 32,16 C35.1811774,16 37.3827233,16.0346118 38.6046376,16.1038355 C41.4933644,16.2430606 43.7295221,17.1040786 45.3131107,18.6868893 C46.8966992,20.2697001 47.7577172,22.5058578 47.8961645,25.3953624 C47.9653882,26.6172767 48,28.8188226 48,32 L48,32 Z" id="Shape" fill="#FFFFFF" fill-rule="nonzero"></path>
                    </g>
                </g>
            </g>
        </g>
    </g>
</svg>