<?xml version="1.0" encoding="utf-8"?>
<!-- Generator: Adobe Illustrator 23.0.0, SVG Export Plug-In . SVG Version: 6.00 Build 0)  -->
<svg version="1.1" id="Слой_1" xmlns="http://www.w3.org/2000/svg" xmlns:xlink="http://www.w3.org/1999/xlink" x="0px" y="0px"
	 width="20px" height="20px" viewBox="0 0 20 20" style="enable-background:new 0 0 20 20;" xml:space="preserve">
<style type="text/css">
	.st0{fill-rule:evenodd;clip-rule:evenodd;fill:#475993;}
	.st1{fill:#FFFFFF;}
</style>
<title>icon-viber</title>
<desc>Created with Sketch.</desc>
<g id="EN-cards">
	<g transform="translate(-80.000000, -260.000000)">
		<g id="icon-viber" transform="translate(80.000000, 260.000000)">
			<path id="Rectangle-3" class="st0" d="M4,0h12c2.2,0,4,1.8,4,4v12c0,2.2-1.8,4-4,4H4c-2.2,0-4-1.8-4-4V4C0,1.8,1.8,0,4,0z"/>
		</g>
	</g>
</g>
<g>
	<path id="f_1_" class="st1" d="M10.9,15.5v-5h1.7l0.3-2h-1.9V7.3c0-0.6,0.2-1,1-1l1,0V4.5c-0.2,0-0.8-0.1-1.5-0.1
		c-1.5,0-2.5,0.9-2.5,2.6v1.4H7.1v2h1.7v5H10.9z"/>
</g>
</svg>
