<?xml version="1.0" encoding="UTF-8"?>
<svg width="20px" height="20px" viewBox="0 0 20 20" version="1.1" xmlns="http://www.w3.org/2000/svg" xmlns:xlink="http://www.w3.org/1999/xlink">
    <!-- Generator: Sketch 51.3 (57544) - http://www.bohemiancoding.com/sketch -->
    <title>icon-line</title>
    <desc>Created with Sketch.</desc>
    <defs>
        <polygon id="path-1" points="0 0 20 0 20 19.9967123 0 19.9967123"></polygon>
    </defs>
    <g id="EN-cards" stroke="none" stroke-width="1" fill="none" fill-rule="evenodd">
        <g id="001-basic:-messengers" transform="translate(-80.000000, -530.000000)">
            <g id="icon-line" transform="translate(80.000000, 530.000000)">
                <g id="Group-3">
                    <mask id="mask-2" fill="white">
                        <use xlink:href="#path-1"></use>
                    </mask>
                    <g id="Clip-2"></g>
                    <path d="M4.09331507,0 L15.9066849,0 C18.1579726,0 20,1.8420274 20,4.09331507 L20,15.9066849 C20,18.1579726 18.1579726,20 15.9066849,20 L4.09331507,20 C1.8419726,20.0000548 0,18.1580274 0,15.9066849 L0,4.09331507 C0,1.8420274 1.8419726,0 4.09331507,0" id="Fill-1" fill="#51AF46" mask="url(#mask-2)"></path>
                </g>
                <path d="M9.98060274,3.3129863 C14.0330411,3.3129863 17.318137,5.94356164 17.318137,9.18854795 C17.318137,10.3220274 16.9170411,11.3803288 16.2226849,12.277863 C16.1883288,12.3289315 16.1434521,12.3853699 16.0868493,12.447726 L16.0825753,12.4523836 C15.8453699,12.7361644 15.5783014,13.0025753 15.2846027,13.2484932 C13.2555068,15.1240548 9.91561644,17.3569863 9.47484932,17.0124384 C9.09161644,16.7130411 10.1059726,15.2483288 8.93572603,15.0046027 C8.85408219,14.9952329 8.77265753,14.9851507 8.69189041,14.9737534 L8.69035616,14.9736438 L8.69035616,14.9735342 C5.25326027,14.4852055 2.64306849,12.0809863 2.64306849,9.18854795 C2.6429589,5.94356164 5.92816438,3.3129863 9.98060274,3.3129863" id="Fill-4" fill="#FFFFFE"></path>
                <path d="M8.27742466,11.0626849 L8.30931507,11.0626849 C8.51983562,11.0626849 8.692,10.8904658 8.692,10.68 L8.692,7.84175342 C8.692,7.63123288 8.51983562,7.45906849 8.30931507,7.45906849 L8.27742466,7.45906849 C8.06690411,7.45906849 7.89468493,7.63123288 7.89468493,7.84175342 L7.89468493,10.68 C7.89468493,10.8904658 8.06690411,11.0626849 8.27742466,11.0626849 Z M12.0473973,10.9486027 L12.0475068,10.9484384 C12.1157808,10.8791781 12.158137,10.7843288 12.158137,10.6800548 L12.158137,7.84180822 C12.158137,7.63128767 11.9859726,7.45912329 11.7754521,7.45912329 L11.7435068,7.45912329 C11.5329863,7.45912329 11.3608219,7.63128767 11.3608219,7.84180822 L11.3608219,9.50789041 L9.97764384,7.65260274 C9.91156164,7.53726027 9.78712329,7.45912329 9.64536986,7.45912329 L9.61342466,7.45912329 C9.4029589,7.45912329 9.23068493,7.63128767 9.23068493,7.84180822 L9.23068493,10.6800548 C9.23068493,10.8905205 9.40290411,11.0627397 9.61342466,11.0627397 L9.64536986,11.0627397 C9.85583562,11.0627397 10.0280548,10.8905205 10.0280548,10.6800548 L10.0280548,8.98279452 L11.4212055,10.885589 C11.4297534,10.8989589 11.4391233,10.9117808 11.4492603,10.9239452 L11.4493151,10.9240548 C11.4875616,10.9762192 11.5399452,11.0120548 11.5983014,11.0339178 C11.6431233,11.0524384 11.6921644,11.0626849 11.7434521,11.0626849 L11.7753973,11.0626849 C11.8398356,11.0626849 11.9007123,11.0465205 11.954137,11.0180274 C11.9924384,10.9997808 12.0246575,10.976274 12.0473973,10.9486027 Z M14.8933699,9.28367123 L14.8933699,9.25172603 C14.8933699,9.04120548 14.7211507,8.8690411 14.5106301,8.8690411 L13.4454247,8.8690411 L13.4454247,8.26312329 L14.5106301,8.26312329 C14.7211507,8.26312329 14.8933699,8.0909589 14.8933699,7.88043836 L14.8933699,7.84849315 C14.8933699,7.6380274 14.7211507,7.46586301 14.5106301,7.46586301 L13.0307397,7.46586301 C12.820274,7.46586301 12.6481096,7.6380274 12.6481096,7.84849315 L12.6481096,10.6867397 C12.6481096,10.8972603 12.820274,11.0694795 13.0307397,11.0694795 L14.5106301,11.0694795 C14.7211507,11.0694795 14.8933699,10.8972603 14.8933699,10.6867397 L14.8933699,10.6548493 C14.8933699,10.4443288 14.7211507,10.2721644 14.5106301,10.2721644 L13.4454247,10.2721644 L13.4454247,9.66624658 L14.5106301,9.66624658 C14.7211507,9.66630137 14.8933699,9.49408219 14.8933699,9.28367123 Z M5.72334247,11.0626849 L7.20317808,11.0626849 C7.41369863,11.0626849 7.58586301,10.8904658 7.58586301,10.68 L7.58586301,10.6480548 C7.58586301,10.4375342 7.41369863,10.2653699 7.20317808,10.2653699 L6.13791781,10.2653699 L6.13791781,7.84169863 C6.13791781,7.63117808 5.96575342,7.4590137 5.75523288,7.4590137 L5.72334247,7.4590137 C5.51282192,7.4590137 5.34065753,7.63117808 5.34065753,7.84169863 L5.34065753,10.6799452 C5.34065753,10.8904658 5.51282192,11.0626849 5.72334247,11.0626849 Z" id="Fill-5" fill="#51AF46"></path>
            </g>
        </g>
    </g>
</svg>