<svg width="48" height="48" viewBox="0 0 48 48" fill="none" xmlns="http://www.w3.org/2000/svg">
<path d="M43.1213 35.2973C43.173 35.2369 43.2131 35.1673 43.2394 35.0922C45.1911 31.7213 46.2188 27.8952 46.2188 24.0001C46.2188 20.105 45.1911 16.2788 43.2394 12.908C43.2131 12.8329 43.173 12.7633 43.1213 12.7028C40.2349 7.83531 35.6068 4.24638 30.174 2.66258C30.1187 2.63738 30.0601 2.62008 30 2.61121C26.0766 1.5046 21.9235 1.5046 18 2.61121C17.9408 2.6196 17.883 2.636 17.8283 2.65996C12.3941 4.24365 7.76498 7.8337 4.87877 12.7028C4.82704 12.7633 4.78698 12.8329 4.76065 12.908C2.80897 16.2788 1.78125 20.105 1.78125 24.0001C1.78125 27.8952 2.80897 31.7213 4.76065 35.0922C4.78698 35.1673 4.82704 35.2369 4.87877 35.2973C7.76279 40.1628 12.3871 43.7512 17.8163 45.3368C17.8736 45.3624 17.9344 45.3797 17.9966 45.3882C21.9213 46.4955 26.0757 46.4955 30.0004 45.3882C30.0659 45.38 30.1297 45.3619 30.1898 45.3346C35.6162 43.748 40.2381 40.1606 43.1213 35.2973ZM24.6563 44.8898V35.5313H33.6236C32.6486 39.0976 31.2458 42.0608 29.5395 44.1563C27.9466 44.5936 26.3073 44.8398 24.6563 44.8898ZM18.4605 44.1556C16.7543 42.0608 15.3514 39.098 14.3764 35.5306H23.3438V44.8891C21.6927 44.8391 20.0534 44.5929 18.4605 44.1556ZM3.11027 24.6556H6.00002V29.8126C6.00012 29.9866 6.06929 30.1535 6.19234 30.2765C6.31539 30.3996 6.48225 30.4687 6.65627 30.4688H12.0244C12.1984 31.7525 12.4241 33.0076 12.6994 34.2188H5.77127C4.12414 31.2934 3.21105 28.0121 3.11027 24.6563V24.6556ZM5.77277 13.7806H12.6998C12.4241 14.9918 12.1984 16.2473 12.0248 17.5306H6.65627C6.57004 17.5306 6.48467 17.5477 6.40502 17.5807C6.32537 17.6137 6.25302 17.6622 6.19208 17.7232C6.13114 17.7842 6.08281 17.8566 6.04986 17.9363C6.01691 18.016 5.99997 18.1014 6.00002 18.1876V23.3438H3.11027C3.21105 19.9881 4.12414 16.7068 5.77127 13.7813L5.77277 13.7806ZM23.3438 3.11033V12.4688H14.3764C15.3514 8.90258 16.7543 5.93933 18.4605 3.84383C20.0534 3.40656 21.6927 3.16033 23.3438 3.11033ZM29.5395 3.84458C31.2458 5.93933 32.6486 8.90221 33.6236 12.4696H24.6563V3.11033C26.3074 3.16057 27.9466 3.40705 29.5395 3.84458ZM44.8898 23.3446H42V18.1876C41.9999 18.0136 41.9308 17.8467 41.8077 17.7237C41.6847 17.6006 41.5178 17.5314 41.3438 17.5313H35.9756C35.8016 16.2477 35.5759 14.9926 35.3006 13.7813H42.2288C43.8759 16.7068 44.789 19.9881 44.8898 23.3438V23.3446ZM42.2273 34.2196H35.3003C35.5759 33.0083 35.8016 31.7528 35.9753 30.4696H41.3438C41.43 30.4695 41.5154 30.4525 41.595 30.4195C41.6747 30.3864 41.747 30.338 41.808 30.277C41.8689 30.216 41.9172 30.1436 41.9502 30.0639C41.9831 29.9842 42.0001 29.8988 42 29.8126V24.6563H44.8898C44.789 28.0121 43.8759 31.2934 42.2288 34.2188L42.2273 34.2196ZM24.6548 34.2196V30.4696H34.65C34.4704 31.7562 34.2375 33.0117 33.9518 34.2196H24.6548ZM7.31252 29.1563V18.8438H40.6875V29.1563H7.31252ZM34.65 17.5313H24.6563V13.7813H33.9529C34.2375 14.9888 34.4711 16.2447 34.65 17.5313ZM23.3426 13.7813V17.5313H13.35C13.5296 16.2447 13.7625 14.9892 14.0483 13.7813H23.3426ZM13.35 30.4688H23.3438V34.2188H14.0471C13.7625 33.011 13.5289 31.7555 13.35 30.4688ZM31.671 43.4438C33.1776 40.9936 34.2947 38.3243 34.9823 35.5313H41.4281C39.0579 39.1014 35.6531 41.8618 31.6699 43.4423L31.671 43.4438ZM41.4281 12.4688H34.9811C34.2932 9.67597 33.1762 7.00673 31.6699 4.55633C35.6527 6.13769 39.0572 8.89849 41.427 12.4688H41.4281ZM16.3313 4.55633C14.8249 7.00669 13.7079 9.67594 13.02 12.4688H6.57302C8.94294 8.89879 12.3474 6.13836 16.3301 4.55746L16.3313 4.55633ZM6.57302 35.5313H13.0189C13.7064 38.3243 14.8234 40.9935 16.3298 43.4438C12.3471 41.8624 8.94279 39.1016 6.57302 35.5313Z" fill="url(#paint0_linear)"/>
<path d="M17.1709 25.1956L15.8666 21.2345H14.7716L13.4595 25.1956L12.276 21.2345H11.1728L12.9281 26.7657H13.9264L15.3191 22.6598L16.704 26.7657H17.7105L19.4573 21.2345H18.3544L17.1709 25.1956Z" fill="url(#paint1_linear)"/>
<path d="M25.389 26.7657H26.3951L28.1423 21.2345H27.039L25.8559 25.1956L24.5516 21.2345H23.4566L22.1441 25.1956L20.961 21.2345H19.8578L21.6128 26.7657H22.6114L24.0041 22.6598L25.389 26.7657Z" fill="url(#paint2_linear)"/>
<path d="M31.2964 26.7657L32.6888 22.6598L34.0736 26.7657H35.0801L36.8273 21.2345H35.724L34.5405 25.1956L33.2363 21.2345H32.1413L30.8291 25.1956L29.6456 21.2345H28.5428L30.2978 26.7657H31.2964Z" fill="url(#paint3_linear)"/>
<defs>
<linearGradient id="paint0_linear" x1="24" y1="1.78125" x2="24" y2="46.2186" gradientUnits="userSpaceOnUse">
<stop stop-color="#00ADFF"/>
<stop offset="1" stop-color="#0071FE"/>
</linearGradient>
<linearGradient id="paint1_linear" x1="24" y1="1.78125" x2="24" y2="46.2186" gradientUnits="userSpaceOnUse">
<stop stop-color="#00ADFF"/>
<stop offset="1" stop-color="#0071FE"/>
</linearGradient>
<linearGradient id="paint2_linear" x1="24" y1="1.78125" x2="24" y2="46.2186" gradientUnits="userSpaceOnUse">
<stop stop-color="#00ADFF"/>
<stop offset="1" stop-color="#0071FE"/>
</linearGradient>
<linearGradient id="paint3_linear" x1="24" y1="1.78125" x2="24" y2="46.2186" gradientUnits="userSpaceOnUse">
<stop stop-color="#00ADFF"/>
<stop offset="1" stop-color="#0071FE"/>
</linearGradient>
</defs>
</svg>
