<svg width="48" height="48" viewBox="0 0 48 48" fill="none" xmlns="http://www.w3.org/2000/svg">
<path d="M36.905 14.2154L34.721 11.8738L30.4595 14.2154L35.1473 9.21176L37.3845 11.5541L41.5927 9.21176L36.905 14.2154ZM36.0524 3.46289C31.3175 3.46289 27.4785 7.03919 27.4785 11.4513C27.4785 13.965 28.7254 16.2076 30.6742 17.6722V20.7172L33.5936 19.1056C34.3723 19.3226 35.1975 19.4398 36.0524 19.4398C40.788 19.4398 44.627 15.8627 44.627 11.4513C44.627 7.03919 40.788 3.46289 36.0524 3.46289Z" fill="url(#paint0_linear)"/>
<path fill-rule="evenodd" clip-rule="evenodd" d="M32.0017 41.7953C32.0017 41.7953 33.7606 42.969 35.9579 42.969C39.9224 42.969 43.1363 39.7927 43.1363 35.8744C43.1363 31.9562 39.9224 28.7799 35.9579 28.7799C31.9933 28.7799 28.7794 31.9562 28.7794 35.8744C28.7794 38.1691 30.1784 40.0831 30.1784 40.0831L29.3026 42.6657L32.0017 41.7953ZM27.5879 35.7818C27.5879 31.1173 31.4139 27.3359 36.1336 27.3359C40.8533 27.3359 44.6794 31.1173 44.6794 35.7818C44.6794 40.4464 40.8533 44.2277 36.1336 44.2277C33.7549 44.2277 32.0165 43.1847 32.0165 43.1847L27.334 44.6636L28.828 40.1661C28.828 40.1661 27.5879 38.0969 27.5879 35.7818ZM33.1449 31.958C33.0248 31.958 32.7945 32.1038 32.7945 32.1038C32.1044 32.545 31.9875 33.5745 31.9673 33.7967C31.9471 34.0189 31.9268 34.4902 32.291 35.2846C32.6551 36.079 33.5452 37.1562 34.6444 38.1795C35.704 39.1661 37.3084 39.6107 37.8792 39.7689C37.9005 39.7748 37.9203 39.7803 37.9386 39.7854C38.4483 39.9277 39.5249 39.6752 40.0312 39.1296C40.4843 38.6412 40.4381 38.1356 40.4165 37.8991C40.4139 37.8714 40.4117 37.8474 40.4107 37.8275C40.401 37.6381 40.2307 37.6089 40.2307 37.6089C40.2307 37.6089 38.834 36.9335 38.5469 36.8023C38.2598 36.6712 38.1137 36.8849 38.1137 36.8849C38.1137 36.8849 37.6903 37.4194 37.554 37.5943C37.5427 37.6088 37.5319 37.6231 37.5212 37.6372C37.403 37.7931 37.3105 37.915 36.9847 37.8081C36.6295 37.6915 35.9168 37.3084 35.3349 36.7877C34.7529 36.267 34.308 35.5778 34.1814 35.3689C34.0549 35.16 34.2009 35.0288 34.2009 35.0288C34.2009 35.0288 34.5696 34.6048 34.746 34.3777C34.9188 34.1551 34.8166 33.907 34.7728 33.8009C34.772 33.7987 34.7711 33.7967 34.7703 33.7947C34.7282 33.6922 34.162 32.364 34.0792 32.1767C33.9965 31.9893 33.8165 31.958 33.8165 31.958H33.1449Z" fill="url(#paint1_linear)"/>
<path d="M19.2471 13.6377C18.7834 17.4714 16.0522 17.7143 15.5491 17.8797C15.3336 17.9512 13.3411 18.4595 10.8364 18.2915C10.8364 18.2915 8.97059 20.6038 8.38779 21.2051C8.29639 21.2999 8.18988 21.3369 8.1186 21.3188C8.01797 21.2947 7.99032 21.1724 7.99116 20.9932C7.99653 19.9407 8.00183 18.8882 8.00707 17.8358C4.35935 16.7951 4.57235 12.8848 4.61428 10.8378C4.65537 8.79091 5.02936 7.11355 6.14212 5.98585C8.14125 4.12673 12.2586 4.40414 12.2586 4.40414C15.7361 4.42051 17.4023 5.49479 17.7889 5.85576C19.0719 6.98433 19.7251 9.68342 19.2471 13.6377ZM18.7473 4.89864C18.2903 4.46789 16.4455 3.09122 12.3349 3.07227C12.3349 3.07227 7.48717 2.77074 5.12328 4.99944C3.80842 6.35027 3.34553 8.32741 3.29689 10.7801C3.24825 13.2328 3.18452 17.8272 7.49639 19.0746H7.50058L7.49807 20.9768C7.49807 20.9768 7.47123 21.747 7.96347 21.9038C8.56052 22.0933 8.91104 21.5084 9.48126 20.8786C9.79404 20.5323 10.2251 20.0231 10.5504 19.6346C13.4996 19.8887 15.7679 19.3072 16.0254 19.2211C16.6208 19.0212 19.9901 18.5793 20.5385 13.9832C21.1028 9.24664 20.2643 6.25034 18.7473 4.89864Z" fill="url(#paint2_linear)"/>
<path d="M12.686 13.8653C12.686 13.8653 13.013 13.8955 13.1891 13.6706L13.5321 13.2278C13.6973 13.0081 14.0973 12.8677 14.4881 13.0917C14.7061 13.2183 15.096 13.4656 15.3409 13.6517C15.6008 13.8472 16.1316 14.3021 16.1333 14.303C16.3866 14.5226 16.4453 14.8457 16.2725 15.1851L16.2717 15.192C16.0821 15.5303 15.8412 15.8354 15.5581 16.0957C15.5539 16.0975 15.5539 16.0992 15.5514 16.1009C15.3057 16.312 15.0633 16.4309 14.826 16.4601C14.6866 16.4774 14.5452 16.463 14.4118 16.4179L14.4042 16.4067C14.0386 16.3008 13.4281 16.0363 12.411 15.4591C11.8227 15.1298 11.2627 14.7496 10.7372 14.3228C10.4915 14.1246 10.2391 13.898 9.98333 13.637L9.93301 13.5853L9.90786 13.5586L9.88186 13.5328C9.6448 13.288 9.42166 13.0294 9.21353 12.7583C8.79816 12.2183 8.42814 11.643 8.10747 11.0387C7.54648 9.99373 7.28903 9.36741 7.18505 8.99094L7.17415 8.98231C7.13039 8.84553 7.11638 8.70057 7.13308 8.55761C7.16243 8.31381 7.27899 8.06484 7.48359 7.81242L7.48861 7.80551C7.76198 7.49795 8.05465 7.25417 8.36827 7.07325L8.37497 7.07152C8.7062 6.89405 9.01983 6.95437 9.23282 7.21454C9.23534 7.2154 9.67726 7.76157 9.86845 8.02864C10.0487 8.2802 10.2903 8.68079 10.4127 8.90478C10.6307 9.30624 10.494 9.71719 10.2802 9.8869L9.84833 10.2393C9.63031 10.4202 9.65965 10.7562 9.65965 10.7562C9.65965 10.7562 10.2961 13.2381 12.686 13.8653Z" fill="url(#paint3_linear)"/>
<path d="M19.146 28.6983L2.8877 35.5329C2.32544 35.7692 2.3891 36.5857 2.9812 36.732L6.34802 37.5642C7.0619 37.7406 7.81721 37.5983 8.41791 37.1742L14.97 32.5478C15.1018 32.4547 15.2502 32.3877 15.4072 32.3503L16.0948 32.1865C16.4726 32.0965 16.7263 32.5641 16.4449 32.8317L10.5871 38.4029C10.2971 38.6788 10.3324 39.1511 10.6601 39.3808L16.534 43.4982C17.3014 44.0362 18.3671 43.5836 18.513 42.6578L20.5402 29.7906C20.6638 29.006 19.8781 28.3905 19.146 28.6983Z" fill="url(#paint4_linear)"/>
<defs>
<linearGradient id="paint0_linear" x1="36.0527" y1="3.46289" x2="36.0527" y2="20.7172" gradientUnits="userSpaceOnUse">
<stop stop-color="#00ADFF"/>
<stop offset="1" stop-color="#0071FE"/>
</linearGradient>
<linearGradient id="paint1_linear" x1="36.0067" y1="27.3359" x2="36.0067" y2="44.6636" gradientUnits="userSpaceOnUse">
<stop stop-color="#00ADFF"/>
<stop offset="1" stop-color="#0071FE"/>
</linearGradient>
<linearGradient id="paint2_linear" x1="12.0007" y1="3.05859" x2="12.0007" y2="21.9401" gradientUnits="userSpaceOnUse">
<stop stop-color="#00ADFF"/>
<stop offset="1" stop-color="#0071FE"/>
</linearGradient>
<linearGradient id="paint3_linear" x1="12.0007" y1="3.05859" x2="12.0007" y2="21.9401" gradientUnits="userSpaceOnUse">
<stop stop-color="#00ADFF"/>
<stop offset="1" stop-color="#0071FE"/>
</linearGradient>
<linearGradient id="paint4_linear" x1="10.9747" y1="27.9932" x2="10.9747" y2="44.6639" gradientUnits="userSpaceOnUse">
<stop stop-color="#00ADFF"/>
<stop offset="1" stop-color="#0071FE"/>
</linearGradient>
</defs>
</svg>
