<?xml version="1.0" encoding="UTF-8"?>
<svg width="36px" height="36px" viewBox="0 0 36 36" version="1.1" xmlns="http://www.w3.org/2000/svg" xmlns:xlink="http://www.w3.org/1999/xlink">
    <!-- Generator: Sketch 52.2 (67145) - http://www.bohemiancoding.com/sketch -->
    <title>facebook-messenger</title>
    <desc>Created with Sketch.</desc>
    <g id="corporate-website-RU" stroke="none" stroke-width="1" fill="none" fill-rule="evenodd">
        <g id="profile-(en)-copy-2" transform="translate(-34.000000, -297.000000)">
            <g id="facebook-messenger" transform="translate(34.000000, 297.000000)">
                <path d="M18,0 L18,0 C27.9411255,-1.82615513e-15 36,8.0588745 36,18 L36,18 C36,27.9411255 27.9411255,36 18,36 L18,36 C8.0588745,36 1.21743675e-15,27.9411255 0,18 L0,18 C-1.21743675e-15,8.0588745 8.0588745,1.82615513e-15 18,0 Z" id="Rectangle-2" fill="#0284FF"></path>
                <g id="messenger-logo" transform="translate(8.000000, 8.000000)">
                    <path d="M10,0.0100502513 C4.36619718,0.0100502513 0,4.13266332 0,9.70050251 C0,12.6130653 1.19517103,15.1296482 3.14084507,16.8683417 C3.30382294,17.0150754 3.40241449,17.2180905 3.41046278,17.4371859 L3.46478873,19.2140704 C3.48289738,19.7809045 4.06841046,20.1487437 4.58752515,19.921608 L6.57142857,19.0472362 C6.74044266,18.9728643 6.92756539,18.958794 7.10462777,19.0070352 C8.01609658,19.2582915 8.98792757,19.3909548 10,19.3909548 C15.6338028,19.3909548 20,15.2683417 20,9.70050251 C20,4.13266332 15.6338028,0.0100502513 10,0.0100502513 Z" id="Bubble_Solid_3_" fill="#FFFFFF"></path>
                    <path d="M3.99597586,12.5346734 L6.93360161,7.87939698 C7.40040241,7.13969849 8.40241449,6.95477387 9.10261569,7.47939698 L11.4386318,9.23015075 C11.6539235,9.39095477 11.9476861,9.38894472 12.1609658,9.2281407 L15.3158954,6.8361809 C15.7364185,6.51658291 16.2877264,7.02110553 16.0040241,7.46733668 L13.0684105,12.120603 C12.6016097,12.8603015 11.5995976,13.0452261 10.8993964,12.520603 L8.56338028,10.7698492 C8.34808853,10.6090452 8.05432596,10.6110553 7.84104628,10.7718593 L4.68410463,13.1658291 C4.26358149,13.4854271 3.71227364,12.9809045 3.99597586,12.5346734 Z" id="Bolt_4_" fill="#0284FF"></path>
                </g>
            </g>
        </g>
    </g>
</svg>