<?xml version="1.0" encoding="UTF-8"?>
<svg width="36px" height="36px" viewBox="0 0 36 36" version="1.1" xmlns="http://www.w3.org/2000/svg" xmlns:xlink="http://www.w3.org/1999/xlink">
    <!-- Generator: Sketch 52.2 (67145) - http://www.bohemiancoding.com/sketch -->
    <title>skype</title>
    <desc>Created with Sketch.</desc>
    <g id="corporate-website-RU" stroke="none" stroke-width="1" fill="none" fill-rule="evenodd">
        <g id="profile-(en)-copy-2" transform="translate(-149.000000, -344.000000)">
            <g id="skype" transform="translate(149.000000, 344.000000)">
                <rect id="Rectangle-2-Copy" fill="#00AFF0" x="0" y="0" width="36" height="36" rx="18"></rect>
                <path d="M27.2982336,19.6695506 C27.291897,19.7047926 27.2874613,19.7403521 27.2808078,19.7755941 L27.24659,19.5736669 C27.265283,19.605099 27.2808078,19.637801 27.2982336,19.6695506 C27.4015208,19.1063134 27.4556991,18.5297413 27.4556991,17.9534869 C27.4556991,16.6755671 27.2060355,15.4357468 26.7127281,14.268633 C26.2368465,13.1412062 25.5559747,12.1287127 24.6878552,11.2594098 C23.821003,10.3901068 22.8099923,9.7078088 21.6855557,9.23093042 C20.5211983,8.73722477 19.2839696,8.48703824 18.0087211,8.48703824 C17.4076908,8.48703824 16.8057101,8.54355246 16.2198879,8.65626339 C16.2186206,8.65658089 16.2170364,8.65658089 16.2154522,8.65689838 C16.2484028,8.67436064 16.2816701,8.68991793 16.313987,8.70801518 L16.1153333,8.67690061 C16.1486007,8.67055069 16.1821849,8.66356579 16.2154522,8.65689838 C15.4116496,8.22859683 14.5077281,8 13.5927174,8 C12.0988548,8 10.6943388,8.58292191 9.63802114,9.64176971 C8.58202028,10.7003 8,12.107758 8,13.6047497 C8,14.557554 8.24459426,15.494166 8.70368374,16.321877 C8.70970355,16.2875875 8.71382237,16.2529805 8.72047584,16.2186909 L8.75469369,16.4171257 C8.7369511,16.3860111 8.72142633,16.3536266 8.70368374,16.321877 C8.61053515,16.8581271 8.5614262,17.4061245 8.5614262,17.9534869 C8.5614262,19.2317242 8.81108977,20.4712269 9.30439711,21.6386583 C9.77964502,22.7664026 10.4608337,23.7782611 11.3280027,24.647564 C12.1961222,25.5168669 13.2058656,26.2001174 14.3315695,26.6757259 C15.4959269,27.170384 16.7334725,27.420888 18.0087211,27.420888 C18.5638106,27.420888 19.1201675,27.3700887 19.6632175,27.27357 C19.6315343,27.2557903 19.5992174,27.239598 19.5669005,27.2208658 L19.7687224,27.2564253 C19.733871,27.2630927 19.6987026,27.2672201 19.6632175,27.27357 C20.4999706,27.7479085 21.4472981,28 22.414586,28 C23.9081318,28 25.3120141,27.4180305 26.3683318,26.3588652 C27.4249663,25.3009699 28.006353,23.8931944 28.006353,22.3962027 C28.006353,21.4402235 27.7604914,20.5004365 27.2982336,19.6695506 L27.2982336,19.6695506 L27.2982336,19.6695506 Z M18.0464241,23.7512739 C14.6902233,23.7512739 13.1887567,22.0977568 13.1887567,20.8585716 C13.1887567,20.2229454 13.6570343,19.777499 14.302421,19.777499 C15.7386202,19.777499 15.3666595,21.8440779 18.0464241,21.8440779 C19.4183063,21.8440779 20.1758515,21.0976457 20.1758515,20.3337514 C20.1758515,19.8743353 19.9496335,19.3650723 19.0463456,19.1418729 L16.0611551,18.3951232 C13.6570343,17.7909292 13.2207567,16.4885622 13.2207567,15.2642992 C13.2207567,12.7224295 15.6090359,11.7680377 17.8518892,11.7680377 C19.9179503,11.7680377 22.3534374,12.9122918 22.3534374,14.4372232 C22.3534374,15.0906291 21.7888429,15.4706713 21.1437731,15.4706713 C19.9179503,15.4706713 20.1435347,13.7704824 17.6744634,13.7704824 C16.4492742,13.7704824 15.7706202,14.3264172 15.7706202,15.1220612 C15.7706202,15.9161177 16.738225,16.1697966 17.5784633,16.361564 L19.7880492,16.8530472 C22.2083285,17.3934246 22.8220319,18.809455 22.8220319,20.143254 C22.8220319,22.2088803 21.2397732,23.7512739 18.0464241,23.7512739 L18.0464241,23.7512739 Z M19.5669005,27.2208658 C19.5992174,27.2620886 19.6315343,27.2977218 19.6632175,27.3368486 C19.6987026,27.3228748 19.733871,27.3137918 19.7687224,27.2991192 L19.5669005,27.2208658 L19.5669005,27.2208658 Z M27.3221811,19.7755941 C27.3368795,19.7403521 27.3466783,19.7047926 27.3606766,19.6695506 C27.3221811,19.637801 27.2878851,19.605099 27.24659,19.5736669 L27.3221811,19.7755941 L27.3221811,19.7755941 Z M8.74077942,16.2186909 C8.72608113,16.2529805 8.71698219,16.2875875 8.70368374,16.321877 C8.74287917,16.3536266 8.77717517,16.3860111 8.8163706,16.4171257 L8.74077942,16.2186909 L8.74077942,16.2186909 Z M16.313987,8.76938769 C16.2816701,8.72956228 16.2484028,8.69532641 16.2154522,8.65689838 C16.1821849,8.6715709 16.1486007,8.68694211 16.1153333,8.70091594 L16.313987,8.76938769 L16.313987,8.76938769 Z" id="Shape" fill="#FFFFFF"></path>
            </g>
        </g>
    </g>
</svg>