<?xml version="1.0" encoding="UTF-8"?>
<svg width="36px" height="36px" viewBox="0 0 36 36" version="1.1" xmlns="http://www.w3.org/2000/svg" xmlns:xlink="http://www.w3.org/1999/xlink">
    <!-- Generator: Sketch 52.2 (67145) - http://www.bohemiancoding.com/sketch -->
    <title>telegram</title>
    <desc>Created with Sketch.</desc>
    <defs>
        <linearGradient x1="65.97%" y1="43.69%" x2="85.12%" y2="80.24%" id="linearGradient-1">
            <stop stop-color="#EFF7FC" offset="0%"></stop>
            <stop stop-color="#FFFFFF" offset="100%"></stop>
        </linearGradient>
    </defs>
    <g id="corporate-website-RU" stroke="none" stroke-width="1" fill="none" fill-rule="evenodd">
        <g id="profile-(en)-copy-2" transform="translate(-264.000000, -297.000000)">
            <g id="telegram" transform="translate(264.000000, 297.000000)">
                <rect id="Rectangle-2-Copy" fill="#2EA5E1" x="0" y="0" width="36" height="36" rx="18"></rect>
                <g id="Group-33" transform="translate(8.000000, 10.000000)">
                    <path d="M7.27272727,14.9818182 C6.70725818,14.9818182 6.80334545,14.7683055 6.60832,14.2298909 L4.94545455,8.75722182 L17.7454545,1.16363636" id="Path" fill="#C8DAEA"></path>
                    <path d="M7.27272727,14.9818182 C7.70909091,14.9818182 7.90189091,14.7822545 8.14545455,14.5454545 L10.4727273,12.2824727 L7.56974545,10.5319273" id="Path" fill="#A9C9DD"></path>
                    <path d="M7.56945455,10.5323636 L14.6036364,15.7293091 C15.4063273,16.1722036 15.9856582,15.9428945 16.1856,14.9840727 L19.0488727,1.49127273 C19.3420218,0.315970909 18.6008582,-0.217090909 17.83296,0.131534545 L1.01986909,6.61458909 C-0.127781818,7.07490909 -0.121090909,7.71518545 0.810676364,8.00048 L5.12529455,9.34714182 L15.1140945,3.04532364 C15.5856436,2.75937455 16.0184291,2.91310691 15.6632145,3.22836364" id="Path" fill="url(#linearGradient-1)"></path>
                </g>
            </g>
        </g>
    </g>
</svg>