<?xml version="1.0" encoding="UTF-8"?>
<svg width="10px" height="10px" viewBox="0 0 10 10" version="1.1" xmlns="http://www.w3.org/2000/svg" xmlns:xlink="http://www.w3.org/1999/xlink">
    <!-- Generator: Sketch 47.1 (45422) - http://www.bohemiancoding.com/sketch -->
    <title>icon_close</title>
    <desc>Created with Sketch.</desc>
    <defs></defs>
    <g id="Виджет-на-сайт" stroke="none" stroke-width="1" fill="none" fill-rule="evenodd">
        <g id="Artboard-Copy-5" transform="translate(-1381.000000, -419.000000)" stroke="#FFFFFF" stroke-width="0.5" fill="#FFFFFF">
            <g id="Group-2-Copy" transform="translate(1372.000000, 410.000000)">
                <path d="M14,13.3492874 L10.7854796,10.134767 L10.7854796,10.134767 C10.6057903,9.95507767 10.3144563,9.95507767 10.134767,10.134767 L10.134767,10.134767 L10.134767,10.134767 C9.95507767,10.3144563 9.95507767,10.6057903 10.134767,10.7854796 L10.134767,10.7854796 L13.3492874,14 L10.134767,17.2145204 L10.134767,17.2145204 C9.95507767,17.3942097 9.95507767,17.6855437 10.134767,17.865233 L10.134767,17.865233 C10.3144563,18.0449223 10.6057903,18.0449223 10.7854796,17.865233 L14,14.6507126 L17.2145204,17.865233 C17.3942097,18.0449223 17.6855437,18.0449223 17.865233,17.865233 L17.865233,17.865233 C18.0449223,17.6855437 18.0449223,17.3942097 17.865233,17.2145204 L17.865233,17.2145204 L14.6507126,14 L17.865233,10.7854796 C18.0449223,10.6057903 18.0449223,10.3144563 17.865233,10.134767 L17.865233,10.134767 L17.865233,10.134767 C17.6855437,9.95507767 17.3942097,9.95507767 17.2145204,10.134767 L17.2145204,10.134767 L14,13.3492874 Z" id="icon_close"></path>
            </g>
        </g>
    </g>
</svg>