<?xml version="1.0" encoding="UTF-8"?>
<svg width="273px" height="330px" viewBox="0 0 273 330" version="1.1" xmlns="http://www.w3.org/2000/svg" xmlns:xlink="http://www.w3.org/1999/xlink">
    <!-- Generator: Sketch 52.2 (67145) - http://www.bohemiancoding.com/sketch -->
    <title>en-qr-code-main</title>
    <desc>Created with Sketch.</desc>
    <g id="corporate-website-EN" stroke="none" stroke-width="1" fill="none" fill-rule="evenodd">
        <g id="QR" transform="translate(-844.000000, -267.000000)">
            <g id="Group-3" transform="translate(70.000000, 134.000000)">
                <g id="en-qr-code-main" transform="translate(774.000000, 133.000000)">
                    <g id="Group-19" transform="translate(13.000000, 0.000000)">
                        <g id="mssgmeross" transform="translate(30.000000, 30.000000)" fill="#FFFFFF">
                            <path d="M96,144 L96,152 L88,152 L88,160 L88,168 L88,176 L88,184 L80,184 L80,192 L88,192 L88,200 L80,200 L72,200 L64,200 L64,192 L72,192 L72,184 L72,176 L64,176 L64,168 L64,160 L64,152 L64,144 L64,136 L72,136 L72,144 L72,152 L72,160 L72,168 L80,168 L80,160 L80,152 L80,144 L88,144 L88,136 L96,136 L104,136 L104,144 L96,144 Z M120,56 L128,56 L128,48 L136,48 L136,56 L136,64 L144,64 L144,72 L144,80 L152,80 L152,72 L160,72 L160,64 L168,64 L168,72 L176,72 L176,64 L184,64 L192,64 L200,64 L200,72 L192,72 L192,80 L184,80 L176,80 L176,88 L184,88 L192,88 L192,80 L200,80 L200,88 L200,96 L200,104 L192,104 L192,96 L184,96 L176,96 L168,96 L160,96 L160,104 L152,104 L144,104 L144,96 L152,96 L152,88 L144,88 L136,88 L128,88 L120,88 L112,88 L112,80 L120,80 L120,72 L128,72 L128,64 L120,64 L120,72 L112,72 L112,64 L104,64 L96,64 L96,56 L96,48 L88,48 L88,56 L80,56 L80,48 L80,40 L88,40 L88,32 L80,32 L80,40 L72,40 L64,40 L64,32 L72,32 L72,24 L80,24 L80,16 L88,16 L88,8 L80,8 L80,0 L88,0 L96,0 L96,8 L104,8 L104,0 L112,0 L120,0 L120,8 L112,8 L112,16 L120,16 L128,16 L136,16 L136,24 L136,32 L136,40 L128,40 L128,32 L120,32 L120,24 L112,24 L112,32 L120,32 L120,40 L120,48 L120,56 Z M112,56 L112,48 L112,40 L104,40 L104,48 L104,56 L112,56 Z M104,16 L96,16 L96,24 L96,32 L104,32 L104,24 L104,16 Z M64,16 L64,8 L64,0 L72,0 L72,8 L72,16 L72,24 L64,24 L64,16 Z M64,48 L72,48 L72,56 L64,56 L64,48 Z M184,128 L192,128 L192,136 L192,144 L184,144 L176,144 L176,136 L176,128 L168,128 L168,120 L160,120 L160,112 L160,104 L168,104 L168,112 L176,112 L184,112 L184,104 L192,104 L192,112 L200,112 L200,120 L200,128 L192,128 L192,120 L184,120 L184,128 Z M168,176 L176,176 L184,176 L184,168 L184,160 L184,152 L192,152 L192,160 L200,160 L200,168 L200,176 L200,184 L200,192 L200,200 L192,200 L192,192 L184,192 L176,192 L176,184 L168,184 L168,192 L160,192 L152,192 L144,192 L144,184 L152,184 L160,184 L160,176 L168,176 Z M144,128 L152,128 L152,120 L160,120 L160,128 L168,128 L168,136 L168,144 L168,152 L168,160 L168,168 L160,168 L152,168 L152,176 L144,176 L144,184 L136,184 L128,184 L128,176 L136,176 L136,168 L128,168 L120,168 L112,168 L112,160 L120,160 L120,152 L128,152 L128,144 L128,136 L128,128 L136,128 L136,120 L144,120 L144,128 Z M128,192 L136,192 L136,200 L128,200 L120,200 L112,200 L104,200 L96,200 L96,192 L104,192 L112,192 L112,184 L104,184 L96,184 L96,176 L104,176 L112,176 L120,176 L120,184 L120,192 L128,192 Z M64,96 L72,96 L72,104 L64,104 L64,112 L56,112 L56,104 L48,104 L48,112 L56,112 L56,120 L48,120 L48,128 L40,128 L32,128 L32,120 L40,120 L40,112 L32,112 L32,104 L40,104 L40,96 L48,96 L56,96 L56,88 L64,88 L64,96 Z M72,72 L64,72 L64,80 L56,80 L56,72 L48,72 L48,80 L40,80 L40,72 L32,72 L24,72 L24,64 L32,64 L40,64 L48,64 L56,64 L64,64 L72,64 L72,56 L80,56 L80,64 L80,72 L80,80 L72,80 L72,72 Z M88,120 L80,120 L72,120 L72,112 L72,104 L80,104 L80,96 L80,88 L88,88 L88,96 L88,104 L88,112 L96,112 L104,112 L112,112 L112,104 L112,96 L120,96 L128,96 L136,96 L136,104 L144,104 L144,112 L136,112 L128,112 L128,120 L120,120 L112,120 L104,120 L96,120 L96,128 L88,128 L88,120 Z M96,96 L96,88 L96,80 L104,80 L104,88 L104,96 L104,104 L96,104 L96,96 Z M144,112 L152,112 L152,120 L144,120 L144,112 Z M88,72 L96,72 L96,80 L88,80 L88,72 Z M8,128 L8,136 L0,136 L0,128 L0,120 L0,112 L0,104 L0,96 L0,88 L0,80 L8,80 L8,88 L16,88 L24,88 L32,88 L32,80 L40,80 L40,88 L40,96 L32,96 L24,96 L24,104 L16,104 L16,96 L8,96 L8,104 L16,104 L16,112 L24,112 L32,112 L32,120 L24,120 L16,120 L8,120 L8,128 Z M0,64 L8,64 L8,72 L0,72 L0,64 Z M48,80 L56,80 L56,88 L48,88 L48,80 Z M16,128 L24,128 L24,136 L16,136 L16,128 Z M48,128 L56,128 L56,136 L48,136 L48,128 Z M96,160 L96,152 L104,152 L104,144 L112,144 L112,152 L112,160 L104,160 L104,168 L96,168 L96,160 Z M104,128 L112,128 L112,136 L104,136 L104,128 Z M112,136 L120,136 L120,144 L112,144 L112,136 Z M136,136 L136,144 L136,152 L136,160 L144,160 L152,160 L160,160 L160,152 L160,144 L160,136 L152,136 L144,136 L136,136 Z M144,144 L152,144 L152,152 L144,152 L144,144 Z M192,144 L200,144 L200,152 L192,152 L192,144 Z M168,192 L176,192 L176,200 L168,200 L168,192 Z M47.6,0 L56,0 L56,8.4 L56,47.6 L56,56 L47.6,56 L8.4,56 L0,56 L0,47.6 L0,8.4 L0,0 L8.4,0 L47.6,0 Z M47.6,47.6 L47.6,8.4 L8.4,8.4 L8.4,47.6 L47.6,47.6 Z M16,16 L40,16 L40,40 L16,40 L16,16 Z M191.6,0 L200,0 L200,8.4 L200,47.6 L200,56 L191.6,56 L152.4,56 L144,56 L144,47.6 L144,8.4 L144,0 L152.4,0 L191.6,0 Z M191.6,47.6 L191.6,8.4 L152.4,8.4 L152.4,47.6 L191.6,47.6 Z M160,16 L184,16 L184,40 L160,40 L160,16 Z M47.6,144 L56,144 L56,152.4 L56,191.6 L56,200 L47.6,200 L8.4,200 L0,200 L0,191.6 L0,152.4 L0,144 L8.4,144 L47.6,144 Z M47.6,191.6 L47.6,152.4 L8.4,152.4 L8.4,191.6 L47.6,191.6 Z M16,160 L40,160 L40,184 L16,184 L16,160 Z" id="Combined-Shape"></path>
                        </g>
                        <path d="M8,8 L8,56 C8,58.209139 6.209139,60 4,60 C1.790861,60 2.705415e-16,58.209139 0,56 L0,8 C-1.05901494e-15,3.581722 3.581722,8.11624501e-16 8,0 L56,0 C58.209139,-4.05812251e-16 60,1.790861 60,4 C60,6.209139 58.209139,8 56,8 L8,8 Z M8,252 L56,252 C58.209139,252 60,253.790861 60,256 C60,258.209139 58.209139,260 56,260 L8,260 C3.581722,260 -1.05901494e-15,256.418278 0,252 L0,204 C2.705415e-16,201.790861 1.790861,200 4,200 C6.209139,200 8,201.790861 8,204 L8,252 Z M252,8 L204,8 C201.790861,8 200,6.209139 200,4 C200,1.790861 201.790861,-4.05812251e-16 204,0 L252,0 C256.418278,8.11624501e-16 260,3.581722 260,8 L260,56 C260,58.209139 258.209139,60 256,60 C253.790861,60 252,58.209139 252,56 L252,8 Z M252,252 L252,204 C252,201.790861 253.790861,200 256,200 C258.209139,200 260,201.790861 260,204 L260,252 C260,256.418278 256.418278,260 252,260 L204,260 C201.790861,260 200,258.209139 200,256 C200,253.790861 201.790861,252 204,252 L252,252 Z" id="Combined-Shape" fill="#FFCC00" fill-rule="nonzero"></path>
                    </g>
                    <path d="M3.44,324.24 C3.44,324.786669 3.5333324,325.253331 3.72,325.64 C3.9066676,326.026669 4.166665,326.343332 4.5,326.59 C4.833335,326.836668 5.2166645,327.016666 5.65,327.13 C6.0833355,327.243334 6.5533308,327.3 7.06,327.3 C7.6066694,327.3 8.0733314,327.236667 8.46,327.11 C8.8466686,326.983333 9.1599988,326.820001 9.4,326.62 C9.6400012,326.419999 9.8133328,326.190001 9.92,325.93 C10.0266672,325.669999 10.08,325.406668 10.08,325.14 C10.08,324.593331 9.9566679,324.190001 9.71,323.93 C9.4633321,323.669999 9.1933348,323.486667 8.9,323.38 C8.3933308,323.193332 7.8033367,323.016667 7.13,322.85 C6.4566633,322.683332 5.6266716,322.466668 4.64,322.2 C4.0266636,322.039999 3.5166687,321.830001 3.11,321.57 C2.7033313,321.309999 2.3800012,321.020002 2.14,320.7 C1.8999988,320.379998 1.7300005,320.040002 1.63,319.68 C1.5299995,319.319998 1.48,318.953335 1.48,318.58 C1.48,317.859996 1.6299985,317.236669 1.93,316.71 C2.2300015,316.183331 2.6266642,315.746668 3.12,315.4 C3.6133358,315.053332 4.1733302,314.796667 4.8,314.63 C5.4266698,314.463332 6.0599968,314.38 6.7,314.38 C7.4466704,314.38 8.1499967,314.476666 8.81,314.67 C9.4700033,314.863334 10.0499975,315.153331 10.55,315.54 C11.0500025,315.926669 11.4466652,316.40333 11.74,316.97 C12.0333348,317.536669 12.18,318.19333 12.18,318.94 L9.68,318.94 C9.613333,318.019995 9.3000028,317.370002 8.74,316.99 C8.1799972,316.609998 7.466671,316.42 6.6,316.42 C6.3066652,316.42 6.0066682,316.45 5.7,316.51 C5.3933318,316.57 5.1133346,316.669999 4.86,316.81 C4.6066654,316.950001 4.3966675,317.139999 4.23,317.38 C4.0633325,317.620001 3.98,317.919998 3.98,318.28 C3.98,318.786669 4.1366651,319.183332 4.45,319.47 C4.7633349,319.756668 5.1733308,319.973333 5.68,320.12 C5.7333336,320.133333 5.9433315,320.189999 6.31,320.29 C6.6766685,320.39 7.0866644,320.499999 7.54,320.62 C7.9933356,320.740001 8.4366645,320.856666 8.87,320.97 C9.3033355,321.083334 9.6133324,321.166666 9.8,321.22 C10.266669,321.366667 10.6733316,321.566665 11.02,321.82 C11.3666684,322.073335 11.6566655,322.363332 11.89,322.69 C12.1233345,323.016668 12.2966661,323.366665 12.41,323.74 C12.5233339,324.113335 12.58,324.486665 12.58,324.86 C12.58,325.660004 12.4166683,326.34333 12.09,326.91 C11.7633317,327.476669 11.333336,327.939998 10.8,328.3 C10.266664,328.660002 9.6600034,328.923332 8.98,329.09 C8.2999966,329.256667 7.6066702,329.34 6.9,329.34 C6.0866626,329.34 5.3200036,329.240001 4.6,329.04 C3.8799964,328.839999 3.253336,328.533335 2.72,328.12 C2.186664,327.706665 1.7600016,327.17667 1.44,326.53 C1.1199984,325.88333 0.9533334,325.120004 0.94,324.24 L3.44,324.24 Z M21.42,322.12 C21.3266662,321.479997 21.0700021,320.996668 20.65,320.67 C20.2299979,320.343332 19.7000032,320.18 19.06,320.18 C18.7666652,320.18 18.453335,320.229999 18.12,320.33 C17.786665,320.43 17.4800014,320.616665 17.2,320.89 C16.9199986,321.163335 16.6866676,321.543331 16.5,322.03 C16.3133324,322.516669 16.22,323.153329 16.22,323.94 C16.22,324.366669 16.2699995,324.793331 16.37,325.22 C16.4700005,325.646669 16.6299989,326.026665 16.85,326.36 C17.0700011,326.693335 17.3533316,326.963332 17.7,327.17 C18.0466684,327.376668 18.4666642,327.48 18.96,327.48 C19.62667,327.48 20.1766645,327.273335 20.61,326.86 C21.0433355,326.446665 21.3133328,325.86667 21.42,325.12 L23.7,325.12 C23.4866656,326.466673 22.9766707,327.496663 22.17,328.21 C21.3633293,328.923337 20.29334,329.28 18.96,329.28 C18.1466626,329.28 17.4300031,329.143335 16.81,328.87 C16.1899969,328.596665 15.6666688,328.223336 15.24,327.75 C14.8133312,327.276664 14.4900011,326.713337 14.27,326.06 C14.0499989,325.406663 13.94,324.700004 13.94,323.94 C13.94,323.166663 14.0466656,322.440003 14.26,321.76 C14.4733344,321.079997 14.7933312,320.490002 15.22,319.99 C15.6466688,319.489997 16.1766635,319.096668 16.81,318.81 C17.4433365,318.523332 18.1866624,318.38 19.04,318.38 C19.640003,318.38 20.2099973,318.456666 20.75,318.61 C21.2900027,318.763334 21.7699979,318.993332 22.19,319.3 C22.6100021,319.606668 22.953332,319.993331 23.22,320.46 C23.486668,320.926669 23.6466664,321.479997 23.7,322.12 L21.42,322.12 Z M34.22,326.7 C34.22,326.980001 34.2566663,327.179999 34.33,327.3 C34.4033337,327.420001 34.5466656,327.48 34.76,327.48 L35,327.48 C35.0933338,327.48 35.1999994,327.466667 35.32,327.44 L35.32,329.02 C35.2399996,329.046667 35.1366673,329.076666 35.01,329.11 C34.8833327,329.143333 34.753334,329.173333 34.62,329.2 C34.486666,329.226667 34.353334,329.246667 34.22,329.26 C34.086666,329.273333 33.9733338,329.28 33.88,329.28 C33.413331,329.28 33.0266682,329.186668 32.72,329 C32.4133318,328.813332 32.2133338,328.486669 32.12,328.02 C31.6666644,328.460002 31.1100033,328.779999 30.45,328.98 C29.7899967,329.180001 29.1533364,329.28 28.54,329.28 C28.073331,329.28 27.6266688,329.216667 27.2,329.09 C26.7733312,328.963333 26.3966683,328.776668 26.07,328.53 C25.7433317,328.283332 25.4833343,327.970002 25.29,327.59 C25.0966657,327.209998 25,326.766669 25,326.26 C25,325.619997 25.1166655,325.100002 25.35,324.7 C25.5833345,324.299998 25.8899981,323.986668 26.27,323.76 C26.6500019,323.533332 27.0766643,323.37 27.55,323.27 C28.0233357,323.169999 28.4999976,323.093334 28.98,323.04 C29.3933354,322.96 29.7866648,322.903333 30.16,322.87 C30.5333352,322.836666 30.8633319,322.78 31.15,322.7 C31.4366681,322.62 31.6633325,322.496667 31.83,322.33 C31.9966675,322.163332 32.08,321.913335 32.08,321.58 C32.08,321.286665 32.0100007,321.046668 31.87,320.86 C31.7299993,320.673332 31.5566677,320.53 31.35,320.43 C31.1433323,320.329999 30.9133346,320.263333 30.66,320.23 C30.4066654,320.196666 30.1666678,320.18 29.94,320.18 C29.2999968,320.18 28.7733354,320.313332 28.36,320.58 C27.9466646,320.846668 27.7133336,321.259997 27.66,321.82 L25.38,321.82 C25.4200002,321.15333 25.5799986,320.600002 25.86,320.16 C26.1400014,319.719998 26.4966645,319.366668 26.93,319.1 C27.3633355,318.833332 27.8533306,318.646667 28.4,318.54 C28.9466694,318.433333 29.5066638,318.38 30.08,318.38 C30.5866692,318.38 31.0866642,318.433333 31.58,318.54 C32.0733358,318.646667 32.5166647,318.819999 32.91,319.06 C33.3033353,319.300001 33.6199988,319.609998 33.86,319.99 C34.1000012,320.370002 34.22,320.833331 34.22,321.38 L34.22,326.7 Z M31.94,323.82 C31.5933316,324.046668 31.1666692,324.183333 30.66,324.23 C30.1533308,324.276667 29.6466692,324.346666 29.14,324.44 C28.8999988,324.48 28.6666678,324.536666 28.44,324.61 C28.2133322,324.683334 28.0133342,324.783333 27.84,324.91 C27.6666658,325.036667 27.5300005,325.203332 27.43,325.41 C27.3299995,325.616668 27.28,325.866665 27.28,326.16 C27.28,326.413335 27.3533326,326.626666 27.5,326.8 C27.6466674,326.973334 27.8233323,327.109999 28.03,327.21 C28.2366677,327.31 28.4633321,327.38 28.71,327.42 C28.9566679,327.46 29.179999,327.48 29.38,327.48 C29.6333346,327.48 29.9066652,327.446667 30.2,327.38 C30.4933348,327.313333 30.7699987,327.200001 31.03,327.04 C31.2900013,326.879999 31.5066658,326.676668 31.68,326.43 C31.8533342,326.183332 31.94,325.880002 31.94,325.52 L31.94,323.82 Z M36.68,318.66 L38.84,318.66 L38.84,320.18 L38.88,320.22 C39.2266684,319.646664 39.6799972,319.196668 40.24,318.87 C40.8000028,318.543332 41.4199966,318.38 42.1,318.38 C43.233339,318.38 44.1266634,318.67333 44.78,319.26 C45.4333366,319.84667 45.76,320.726661 45.76,321.9 L45.76,329 L43.48,329 L43.48,322.5 C43.4533332,321.686663 43.2800016,321.096668 42.96,320.73 C42.6399984,320.363331 42.1400034,320.18 41.46,320.18 C41.0733314,320.18 40.7266682,320.249999 40.42,320.39 C40.1133318,320.530001 39.8533344,320.723332 39.64,320.97 C39.4266656,321.216668 39.2600006,321.506665 39.14,321.84 C39.0199994,322.173335 38.96,322.526665 38.96,322.9 L38.96,329 L36.68,329 L36.68,318.66 Z M53.78,314.72 L56.06,314.72 L56.06,316.88 L53.78,316.88 L53.78,314.72 Z M53.78,318.66 L56.06,318.66 L56.06,329 L53.78,329 L53.78,318.66 Z M57.5,318.66 L59.22,318.66 L59.22,315.56 L61.5,315.56 L61.5,318.66 L63.56,318.66 L63.56,320.36 L61.5,320.36 L61.5,325.88 C61.5,326.120001 61.5099999,326.326666 61.53,326.5 C61.5500001,326.673334 61.5966663,326.819999 61.67,326.94 C61.7433337,327.060001 61.8533326,327.15 62,327.21 C62.1466674,327.27 62.3466654,327.3 62.6,327.3 C62.7600008,327.3 62.9199992,327.296667 63.08,327.29 C63.2400008,327.283333 63.3999992,327.26 63.56,327.22 L63.56,328.98 C63.3066654,329.006667 63.0600012,329.033333 62.82,329.06 C62.5799988,329.086667 62.3333346,329.1 62.08,329.1 C61.479997,329.1 60.9966685,329.043334 60.63,328.93 C60.2633315,328.816666 59.9766677,328.650001 59.77,328.43 C59.5633323,328.209999 59.4233337,327.933335 59.35,327.6 C59.2766663,327.266665 59.2333334,326.886669 59.22,326.46 L59.22,320.36 L57.5,320.36 L57.5,318.66 Z" id="Scan-it" fill="#FFFFFF"></path>
                    <g id="Path-2" transform="translate(116.117976, 295.185451) scale(-1, 1) rotate(140.000000) translate(-116.117976, -295.185451) translate(104.117976, 250.185451)" fill="#FFFFFF">
                        <path d="M20.7791196,79.0249876 C19.0741196,80.5089876 16.7671196,83.1609876 14.7901196,84.2469876 C14.1261196,84.8279876 13.4621196,85.4099876 12.7971196,85.9909876 C12.4951196,85.7889876 12.2201196,85.5749876 11.9561196,85.3559876 C26.2011196,58.4339876 22.9261196,22.4829876 1.3171196,0.248987606 C0.592119599,-0.496012394 -0.434880401,0.594987606 0.197119599,1.36898761 C18.9611196,24.3289876 23.8401196,56.0879876 10.3821196,82.7079876 L9.3221196,78.0769876 C8.9901196,76.6239876 6.6951196,76.9419876 6.7281196,78.4279876 C6.7901196,81.2499876 7.3251196,83.6139876 8.4061196,85.8499876 L8.6201196,86.7769876 C8.7211196,87.2149876 9.0361196,87.4999876 9.4101196,87.6319876 C9.8271196,88.2929876 10.2811196,88.9519876 10.8051196,89.6149876 C11.2711196,90.2049876 12.1971196,90.0419876 12.6861196,89.6149876 C16.0121196,86.7139876 19.3381196,83.8109876 22.6551196,80.8999876 C23.9431196,79.7719876 22.0621196,77.9089876 20.7791196,79.0249876 Z" id="Path"></path>
                    </g>
                </g>
            </g>
        </g>
    </g>
</svg>