<?xml version="1.0" encoding="UTF-8"?>
<svg width="357px" height="334px" viewBox="0 0 357 334" version="1.1" xmlns="http://www.w3.org/2000/svg" xmlns:xlink="http://www.w3.org/1999/xlink">
    <!-- Generator: Sketch 52.2 (67145) - http://www.bohemiancoding.com/sketch -->
    <title>ru-qr-code-main</title>
    <desc>Created with Sketch.</desc>
    <g id="corporate-website-RU" stroke="none" stroke-width="1" fill="none" fill-rule="evenodd">
        <g id="QR" transform="translate(-760.000000, -267.000000)">
            <g id="Group-3" transform="translate(70.000000, 134.000000)">
                <g id="ru-qr-code-main" transform="translate(690.000000, 133.000000)">
                    <path d="M105,8 L105,56 C105,58.209139 103.209139,60 101,60 C98.790861,60 97,58.209139 97,56 L97,8 C97,3.581722 100.581722,8.11624501e-16 105,0 L153,0 C155.209139,-4.05812251e-16 157,1.790861 157,4 C157,6.209139 155.209139,8 153,8 L105,8 Z M105,252 L153,252 C155.209139,252 157,253.790861 157,256 C157,258.209139 155.209139,260 153,260 L105,260 C100.581722,260 97,256.418278 97,252 L97,204 C97,201.790861 98.790861,200 101,200 C103.209139,200 105,201.790861 105,204 L105,252 Z M349,8 L301,8 C298.790861,8 297,6.209139 297,4 C297,1.790861 298.790861,-4.05812251e-16 301,0 L349,0 C353.418278,8.11624501e-16 357,3.581722 357,8 L357,56 C357,58.209139 355.209139,60 353,60 C350.790861,60 349,58.209139 349,56 L349,8 Z M349,252 L349,204 C349,201.790861 350.790861,200 353,200 C355.209139,200 357,201.790861 357,204 L357,252 C357,256.418278 353.418278,260 349,260 L301,260 C298.790861,260 297,258.209139 297,256 C297,253.790861 298.790861,252 301,252 L349,252 Z" id="Combined-Shape" fill="#FFCC00" fill-rule="nonzero"></path>
                    <g id="mssgmeross" transform="translate(127.000000, 30.000000)" fill="#FFFFFF">
                        <path d="M192,192 L184,192 L176,192 L176,184 L168,184 L168,192 L160,192 L152,192 L144,192 L144,184 L152,184 L160,184 L160,176 L168,176 L176,176 L184,176 L184,168 L184,160 L192,160 L192,152 L192,144 L200,144 L200,152 L200,160 L200,168 L200,176 L200,184 L200,192 L200,200 L192,200 L192,192 Z M128,192 L136,192 L136,200 L128,200 L120,200 L120,192 L128,192 Z M112,192 L112,200 L104,200 L96,200 L88,200 L88,192 L80,192 L80,184 L80,176 L80,168 L72,168 L72,176 L64,176 L64,168 L64,160 L64,152 L64,144 L64,136 L64,128 L72,128 L72,136 L80,136 L80,128 L72,128 L72,120 L80,120 L88,120 L88,128 L96,128 L96,120 L104,120 L112,120 L112,112 L112,104 L104,104 L104,96 L112,96 L120,96 L128,96 L136,96 L136,104 L144,104 L144,112 L136,112 L128,112 L128,120 L120,120 L120,128 L112,128 L104,128 L104,136 L96,136 L96,144 L88,144 L80,144 L80,152 L72,152 L72,160 L80,160 L80,152 L88,152 L96,152 L96,160 L96,168 L88,168 L88,176 L96,176 L96,184 L104,184 L104,176 L96,176 L96,168 L104,168 L104,160 L104,152 L96,152 L96,144 L104,144 L112,144 L120,144 L120,152 L112,152 L112,160 L112,168 L112,176 L112,184 L112,192 Z M136,176 L136,168 L128,168 L120,168 L120,160 L120,152 L128,152 L128,144 L128,136 L128,128 L136,128 L136,120 L144,120 L144,128 L152,128 L152,120 L160,120 L160,128 L168,128 L168,136 L168,144 L168,152 L168,160 L168,168 L160,168 L152,168 L152,176 L144,176 L144,184 L136,184 L128,184 L128,176 L136,176 Z M160,160 L160,168 Z M192,136 L192,144 L184,144 L176,144 L176,136 L176,128 L168,128 L168,120 L160,120 L160,112 L160,104 L168,104 L168,112 L176,112 L184,112 L184,104 L192,104 L192,112 L200,112 L200,120 L200,128 L192,128 L192,120 L184,120 L184,128 L192,128 L192,136 Z M32,136 L24,136 L24,128 L16,128 L16,120 L24,120 L24,112 L24,104 L32,104 L32,96 L24,96 L24,88 L24,80 L16,80 L16,88 L16,96 L16,104 L8,104 L8,96 L-1.42108547e-12,96 L-1.42108547e-12,88 L8,88 L8,80 L-1.42108547e-12,80 L-1.42108547e-12,72 L-1.42108547e-12,64 L8,64 L8,72 L16,72 L24,72 L24,64 L32,64 L40,64 L48,64 L56,64 L64,64 L72,64 L72,56 L80,56 L80,48 L80,40 L80,32 L88,32 L88,24 L88,16 L80,16 L80,8 L88,8 L96,8 L104,8 L104,0 L112,0 L120,0 L120,8 L112,8 L112,16 L120,16 L128,16 L136,16 L136,24 L136,32 L136,40 L128,40 L128,32 L120,32 L120,24 L112,24 L112,32 L120,32 L120,40 L120,48 L120,56 L128,56 L128,48 L136,48 L136,56 L136,64 L144,64 L144,72 L144,80 L152,80 L152,72 L160,72 L160,64 L168,64 L168,72 L176,72 L176,64 L184,64 L192,64 L200,64 L200,72 L192,72 L192,80 L184,80 L176,80 L176,88 L184,88 L192,88 L192,80 L200,80 L200,88 L200,96 L200,104 L192,104 L192,96 L184,96 L176,96 L168,96 L160,96 L160,104 L152,104 L144,104 L144,96 L152,96 L152,88 L144,88 L136,88 L128,88 L120,88 L112,88 L112,80 L120,80 L120,72 L128,72 L128,64 L120,64 L120,72 L112,72 L112,64 L104,64 L104,56 L112,56 L112,48 L112,40 L104,40 L104,32 L104,24 L104,16 L96,16 L96,24 L96,32 L96,40 L88,40 L88,48 L88,56 L96,56 L96,64 L104,64 L104,72 L96,72 L88,72 L88,64 L80,64 L80,72 L88,72 L88,80 L96,80 L96,88 L104,88 L104,96 L96,96 L88,96 L88,88 L80,88 L80,80 L72,80 L72,88 L64,88 L64,80 L64,72 L56,72 L48,72 L40,72 L40,80 L48,80 L56,80 L56,88 L48,88 L48,96 L40,96 L40,104 L48,104 L48,112 L40,112 L32,112 L32,120 L32,128 L40,128 L40,136 L32,136 Z M-1.42108547e-12,128 L-1.42108547e-12,120 L-1.42108547e-12,112 L-1.42108547e-12,104 L8,104 L8,112 L16,112 L16,120 L8,120 L8,128 L8,136 L-1.42108547e-12,136 L-1.42108547e-12,128 Z M56,112 L64,112 L64,120 L56,120 L48,120 L48,112 L56,112 Z M72,104 L72,96 L72,88 L80,88 L80,96 L80,104 L80,112 L72,112 L64,112 L64,104 L72,104 Z M104,48 L104,56 L96,56 L96,48 L96,40 L104,40 L104,48 Z M80,24 L80,32 L72,32 L72,24 L64,24 L64,16 L64,8 L64,0 L72,0 L80,0 L80,8 L72,8 L72,16 L80,16 L80,24 Z M64,32 L72,32 L72,40 L64,40 L64,32 Z M64,48 L72,48 L72,56 L64,56 L64,48 Z M48,96 L56,96 L56,104 L48,104 L48,96 Z M96,104 L104,104 L104,112 L96,112 L96,104 Z M144,112 L152,112 L152,120 L144,120 L144,112 Z M48,128 L56,128 L56,136 L48,136 L48,128 Z M144,144 L144,152 L152,152 L152,144 L144,144 Z M64,192 L72,192 L72,200 L64,200 L64,192 Z M168,192 L176,192 L176,200 L168,200 L168,192 Z M47.6,-2.6751934e-12 L56,-2.6751934e-12 L56,8.4 L56,47.6 L56,56 L47.6,56 L8.4,56 L-2.6751934e-12,56 L-2.6751934e-12,47.6 L-2.6751934e-12,8.4 L-2.6751934e-12,-2.6751934e-12 L8.4,-2.6751934e-12 L47.6,-2.6751934e-12 Z M47.6,47.6 L47.6,8.4 L8.4,8.4 L8.4,47.6 L47.6,47.6 Z M16,16 L40,16 L40,40 L16,40 L16,16 Z M191.6,-2.6751934e-12 L200,-2.6751934e-12 L200,8.4 L200,47.6 L200,56 L191.6,56 L152.4,56 L144,56 L144,47.6 L144,8.4 L144,-2.6751934e-12 L152.4,-2.6751934e-12 L191.6,-2.6751934e-12 Z M191.6,47.6 L191.6,8.4 L152.4,8.4 L152.4,47.6 L191.6,47.6 Z M160,16 L184,16 L184,40 L160,40 L160,16 Z M47.6,144 L56,144 L56,152.4 L56,191.6 L56,200 L47.6,200 L8.4,200 L-2.6751934e-12,200 L-2.6751934e-12,191.6 L-2.6751934e-12,152.4 L-2.6751934e-12,144 L8.4,144 L47.6,144 Z M47.6,191.6 L47.6,152.4 L8.4,152.4 L8.4,191.6 L47.6,191.6 Z M16,160 L40,160 L40,184 L16,184 L16,160 Z" id="Combined-Shape"></path>
                    </g>
                    <path d="M209.0035,329.918095 C207.2985,331.402095 204.9915,334.054095 203.0145,335.140095 C202.3505,335.721095 201.6865,336.303095 201.0215,336.884095 C200.7195,336.682095 200.4445,336.468095 200.1805,336.249095 C214.4255,309.327095 211.1505,273.376095 189.5415,251.142095 C188.8165,250.397095 187.7895,251.488095 188.4215,252.262095 C207.1855,275.222095 212.0645,306.981095 198.6065,333.601095 L197.5465,328.970095 C197.2145,327.517095 194.9195,327.835095 194.9525,329.321095 C195.0145,332.143095 195.5495,334.507095 196.6305,336.743095 L196.8445,337.670095 C196.9455,338.108095 197.2605,338.393095 197.6345,338.525095 C198.0515,339.186095 198.5055,339.845095 199.0295,340.508095 C199.4955,341.098095 200.4215,340.935095 200.9105,340.508095 C204.2365,337.607095 207.5625,334.704095 210.8795,331.793095 C212.1675,330.665095 210.2865,328.802095 209.0035,329.918095 Z" id="Path" fill="#FFFFFF" transform="translate(199.767899, 295.892498) scale(-1, 1) rotate(140.000000) translate(-199.767899, -295.892498) "></path>
                    <path d="M0.86,314.917674 L3.36,314.917674 L3.36,320.597674 L9.86,320.597674 L9.86,314.917674 L12.36,314.917674 L12.36,329.197674 L9.86,329.197674 L9.86,322.757674 L3.36,322.757674 L3.36,329.197674 L0.86,329.197674 L0.86,314.917674 Z M23.7,326.897674 C23.7,327.177676 23.7366663,327.377674 23.81,327.497674 C23.8833337,327.617675 24.0266656,327.677674 24.24,327.677674 L24.48,327.677674 C24.5733338,327.677674 24.6799994,327.664341 24.8,327.637674 L24.8,329.217674 C24.7199996,329.244341 24.6166673,329.274341 24.49,329.307674 C24.3633327,329.341008 24.233334,329.371008 24.1,329.397674 C23.966666,329.424341 23.833334,329.444341 23.7,329.457674 C23.566666,329.471008 23.4533338,329.477674 23.36,329.477674 C22.893331,329.477674 22.5066682,329.384342 22.2,329.197674 C21.8933318,329.011007 21.6933338,328.684343 21.6,328.217674 C21.1466644,328.657677 20.5900033,328.977673 19.93,329.177674 C19.2699967,329.377675 18.6333364,329.477674 18.02,329.477674 C17.553331,329.477674 17.1066688,329.414342 16.68,329.287674 C16.2533312,329.161007 15.8766683,328.974342 15.55,328.727674 C15.2233317,328.481007 14.9633343,328.167676 14.77,327.787674 C14.5766657,327.407673 14.48,326.964344 14.48,326.457674 C14.48,325.817671 14.5966655,325.297676 14.83,324.897674 C15.0633345,324.497672 15.3699981,324.184342 15.75,323.957674 C16.1300019,323.731007 16.5566643,323.567675 17.03,323.467674 C17.5033357,323.367674 17.9799976,323.291008 18.46,323.237674 C18.8733354,323.157674 19.2666648,323.101008 19.64,323.067674 C20.0133352,323.034341 20.3433319,322.977675 20.63,322.897674 C20.9166681,322.817674 21.1433325,322.694342 21.31,322.527674 C21.4766675,322.361007 21.56,322.111009 21.56,321.777674 C21.56,321.48434 21.4900007,321.244342 21.35,321.057674 C21.2099993,320.871007 21.0366677,320.727675 20.83,320.627674 C20.6233323,320.527674 20.3933346,320.461008 20.14,320.427674 C19.8866654,320.394341 19.6466678,320.377674 19.42,320.377674 C18.7799968,320.377674 18.2533354,320.511006 17.84,320.777674 C17.4266646,321.044342 17.1933336,321.457672 17.14,322.017674 L14.86,322.017674 C14.9000002,321.351004 15.0599986,320.797677 15.34,320.357674 C15.6200014,319.917672 15.9766645,319.564342 16.41,319.297674 C16.8433355,319.031006 17.3333306,318.844342 17.88,318.737674 C18.4266694,318.631007 18.9866638,318.577674 19.56,318.577674 C20.0666692,318.577674 20.5666642,318.631007 21.06,318.737674 C21.5533358,318.844342 21.9966647,319.017673 22.39,319.257674 C22.7833353,319.497676 23.0999988,319.807673 23.34,320.187674 C23.5800012,320.567676 23.7,321.031005 23.7,321.577674 L23.7,326.897674 Z M21.42,324.017674 C21.0733316,324.244342 20.6466692,324.381008 20.14,324.427674 C19.6333308,324.474341 19.1266692,324.544341 18.62,324.637674 C18.3799988,324.677675 18.1466678,324.734341 17.92,324.807674 C17.6933322,324.881008 17.4933342,324.981007 17.32,325.107674 C17.1466658,325.234342 17.0100005,325.401007 16.91,325.607674 C16.8099995,325.814342 16.76,326.06434 16.76,326.357674 C16.76,326.611009 16.8333326,326.82434 16.98,326.997674 C17.1266674,327.171009 17.3033323,327.307674 17.51,327.407674 C17.7166677,327.507675 17.9433321,327.577674 18.19,327.617674 C18.4366679,327.657675 18.659999,327.677674 18.86,327.677674 C19.1133346,327.677674 19.3866652,327.644341 19.68,327.577674 C19.9733348,327.511007 20.2499987,327.397675 20.51,327.237674 C20.7700013,327.077674 20.9866658,326.874342 21.16,326.627674 C21.3333342,326.381007 21.42,326.077676 21.42,325.717674 L21.42,324.017674 Z M28.5,323.077674 L30.94,323.077674 C31.3800022,323.077674 31.7433319,322.967676 32.03,322.747674 C32.3166681,322.527673 32.46,322.217676 32.46,321.817674 C32.46,321.351005 32.3300013,321.024342 32.07,320.837674 C31.8099987,320.651007 31.4333358,320.557674 30.94,320.557674 L28.5,320.557674 L28.5,323.077674 Z M26.22,318.857674 L31.66,318.857674 C32.593338,318.857674 33.3399972,319.067672 33.9,319.487674 C34.4600028,319.907677 34.74,320.551003 34.74,321.417674 C34.74,321.937677 34.6100013,322.384339 34.35,322.757674 C34.0899987,323.13101 33.726669,323.417673 33.26,323.617674 L33.26,323.657674 C33.9000032,323.791008 34.3833317,324.091005 34.71,324.557674 C35.0366683,325.024343 35.2,325.611004 35.2,326.317674 C35.2,326.717676 35.1266674,327.094339 34.98,327.447674 C34.8333326,327.80101 34.6066682,328.107673 34.3,328.367674 C33.9933318,328.627676 33.6000024,328.831007 33.12,328.977674 C32.6399976,329.124342 32.06667,329.197674 31.4,329.197674 L26.22,329.197674 L26.22,318.857674 Z M28.5,327.497674 L31.2,327.497674 C31.7600028,327.497674 32.1866652,327.367676 32.48,327.107674 C32.7733348,326.847673 32.92,326.484343 32.92,326.017674 C32.92,325.551005 32.7733348,325.194342 32.48,324.947674 C32.1866652,324.701007 31.7600028,324.577674 31.2,324.577674 L28.5,324.577674 L28.5,327.497674 Z M44.22,323.117674 C44.1933332,322.757673 44.1166673,322.411009 43.99,322.077674 C43.8633327,321.744339 43.6900011,321.454342 43.47,321.207674 C43.2499989,320.961007 42.9833349,320.761009 42.67,320.607674 C42.3566651,320.45434 42.0066686,320.377674 41.62,320.377674 C41.219998,320.377674 40.8566683,320.447674 40.53,320.587674 C40.2033317,320.727675 39.9233345,320.921007 39.69,321.167674 C39.4566655,321.414342 39.2700007,321.704339 39.13,322.037674 C38.9899993,322.371009 38.9133334,322.731006 38.9,323.117674 L44.22,323.117674 Z M38.9,324.617674 C38.9,325.017676 38.9566661,325.404339 39.07,325.777674 C39.1833339,326.15101 39.3533322,326.477673 39.58,326.757674 C39.8066678,327.037676 40.0933316,327.261007 40.44,327.427674 C40.7866684,327.594342 41.1999976,327.677674 41.68,327.677674 C42.34667,327.677674 42.8833313,327.534343 43.29,327.247674 C43.6966687,326.961006 43.999999,326.531011 44.2,325.957674 L46.36,325.957674 C46.2399994,326.517677 46.0333348,327.017672 45.74,327.457674 C45.4466652,327.897677 45.0933354,328.267673 44.68,328.567674 C44.2666646,328.867676 43.8033359,329.09434 43.29,329.247674 C42.7766641,329.401009 42.2400028,329.477674 41.68,329.477674 C40.8666626,329.477674 40.1466698,329.344342 39.52,329.077674 C38.8933302,328.811006 38.3633355,328.437677 37.93,327.957674 C37.4966645,327.477672 37.1700011,326.904344 36.95,326.237674 C36.7299989,325.571004 36.62,324.837678 36.62,324.037674 C36.62,323.304337 36.7366655,322.607678 36.97,321.947674 C37.2033345,321.287671 37.5366645,320.707677 37.97,320.207674 C38.4033355,319.707672 38.9266636,319.311009 39.54,319.017674 C40.1533364,318.72434 40.8466628,318.577674 41.62,318.577674 C42.4333374,318.577674 43.1633301,318.747673 43.81,319.087674 C44.4566699,319.427676 44.9933312,319.877672 45.42,320.437674 C45.8466688,320.997677 46.1566657,321.641004 46.35,322.367674 C46.5433343,323.094345 46.5933338,323.844337 46.5,324.617674 L38.9,324.617674 Z M49.34,332.337674 L47.24,332.337674 L47.24,327.497674 L48.54,327.497674 C48.740001,327.444341 48.9266658,327.344342 49.1,327.197674 C49.4200016,326.957673 49.646666,326.61101 49.78,326.157674 C49.8600004,325.90434 49.9233331,325.654342 49.97,325.407674 C50.0166669,325.161007 50.0566665,324.897676 50.09,324.617674 C50.1233335,324.337673 50.1466666,324.024343 50.16,323.677674 C50.1733334,323.331006 50.1866666,322.93101 50.2,322.477674 C50.2133334,322.024339 50.2233333,321.507677 50.23,320.927674 C50.2366667,320.347672 50.24,319.657678 50.24,318.857674 L58.82,318.857674 L58.82,327.497674 L60.66,327.497674 L60.66,332.337674 L58.56,332.337674 L58.56,329.197674 L49.34,329.197674 L49.34,332.337674 Z M56.54,320.557674 L52.54,320.557674 C52.54,321.424345 52.5333334,322.187671 52.52,322.847674 C52.5066666,323.507678 52.4833335,324.091005 52.45,324.597674 C52.4166665,325.104344 52.3733336,325.547673 52.32,325.927674 C52.2666664,326.307676 52.1933338,326.64434 52.1,326.937674 C52.0466664,327.137675 51.986667,327.32434 51.92,327.497674 L56.54,327.497674 L56.54,320.557674 Z M62.12,318.857674 L64.4,318.857674 L64.4,325.957674 L64.44,325.957674 L68.98,318.857674 L71.8,318.857674 L71.8,329.197674 L69.52,329.197674 L69.52,322.037674 L69.48,322.037674 L64.84,329.197674 L62.12,329.197674 L62.12,318.857674 Z M79.9,318.857674 L82.18,318.857674 L82.18,323.037674 L86.3,318.857674 L89.1,318.857674 L85.14,322.657674 L89.48,329.197674 L86.7,329.197674 L83.54,324.177674 L82.18,325.497674 L82.18,329.197674 L79.9,329.197674 L79.9,318.857674 Z M99.24,326.897674 C99.24,327.177676 99.2766663,327.377674 99.35,327.497674 C99.4233337,327.617675 99.5666656,327.677674 99.78,327.677674 L100.02,327.677674 C100.113334,327.677674 100.219999,327.664341 100.34,327.637674 L100.34,329.217674 C100.26,329.244341 100.156667,329.274341 100.03,329.307674 C99.9033327,329.341008 99.773334,329.371008 99.64,329.397674 C99.506666,329.424341 99.373334,329.444341 99.24,329.457674 C99.106666,329.471008 98.9933338,329.477674 98.9,329.477674 C98.433331,329.477674 98.0466682,329.384342 97.74,329.197674 C97.4333318,329.011007 97.2333338,328.684343 97.14,328.217674 C96.6866644,328.657677 96.1300033,328.977673 95.47,329.177674 C94.8099967,329.377675 94.1733364,329.477674 93.56,329.477674 C93.093331,329.477674 92.6466688,329.414342 92.22,329.287674 C91.7933312,329.161007 91.4166683,328.974342 91.09,328.727674 C90.7633317,328.481007 90.5033343,328.167676 90.31,327.787674 C90.1166657,327.407673 90.02,326.964344 90.02,326.457674 C90.02,325.817671 90.1366655,325.297676 90.37,324.897674 C90.6033345,324.497672 90.9099981,324.184342 91.29,323.957674 C91.6700019,323.731007 92.0966643,323.567675 92.57,323.467674 C93.0433357,323.367674 93.5199976,323.291008 94,323.237674 C94.4133354,323.157674 94.8066648,323.101008 95.18,323.067674 C95.5533352,323.034341 95.8833319,322.977675 96.17,322.897674 C96.4566681,322.817674 96.6833325,322.694342 96.85,322.527674 C97.0166675,322.361007 97.1,322.111009 97.1,321.777674 C97.1,321.48434 97.0300007,321.244342 96.89,321.057674 C96.7499993,320.871007 96.5766677,320.727675 96.37,320.627674 C96.1633323,320.527674 95.9333346,320.461008 95.68,320.427674 C95.4266654,320.394341 95.1866678,320.377674 94.96,320.377674 C94.3199968,320.377674 93.7933354,320.511006 93.38,320.777674 C92.9666646,321.044342 92.7333336,321.457672 92.68,322.017674 L90.4,322.017674 C90.4400002,321.351004 90.5999986,320.797677 90.88,320.357674 C91.1600014,319.917672 91.5166645,319.564342 91.95,319.297674 C92.3833355,319.031006 92.8733306,318.844342 93.42,318.737674 C93.9666694,318.631007 94.5266638,318.577674 95.1,318.577674 C95.6066692,318.577674 96.1066642,318.631007 96.6,318.737674 C97.0933358,318.844342 97.5366647,319.017673 97.93,319.257674 C98.3233353,319.497676 98.6399988,319.807673 98.88,320.187674 C99.1200012,320.567676 99.24,321.031005 99.24,321.577674 L99.24,326.897674 Z M96.96,324.017674 C96.6133316,324.244342 96.1866692,324.381008 95.68,324.427674 C95.1733308,324.474341 94.6666692,324.544341 94.16,324.637674 C93.9199988,324.677675 93.6866678,324.734341 93.46,324.807674 C93.2333322,324.881008 93.0333342,324.981007 92.86,325.107674 C92.6866658,325.234342 92.5500005,325.401007 92.45,325.607674 C92.3499995,325.814342 92.3,326.06434 92.3,326.357674 C92.3,326.611009 92.3733326,326.82434 92.52,326.997674 C92.6666674,327.171009 92.8433323,327.307674 93.05,327.407674 C93.2566677,327.507675 93.4833321,327.577674 93.73,327.617674 C93.9766679,327.657675 94.199999,327.677674 94.4,327.677674 C94.6533346,327.677674 94.9266652,327.644341 95.22,327.577674 C95.5133348,327.511007 95.7899987,327.397675 96.05,327.237674 C96.3100013,327.077674 96.5266658,326.874342 96.7,326.627674 C96.8733342,326.381007 96.96,326.077676 96.96,325.717674 L96.96,324.017674 Z M101.76,318.857674 L105.5,318.857674 L107.42,326.237674 L107.46,326.237674 L109.3,318.857674 L113.02,318.857674 L113.02,329.197674 L110.72,329.197674 L110.72,321.417674 L110.7,321.417674 L108.58,329.197674 L106.2,329.197674 L104.08,321.417674 L104.04,321.417674 L104.04,329.197674 L101.76,329.197674 L101.76,318.857674 Z M122.58,323.117674 C122.553333,322.757673 122.476667,322.411009 122.35,322.077674 C122.223333,321.744339 122.050001,321.454342 121.83,321.207674 C121.609999,320.961007 121.343335,320.761009 121.03,320.607674 C120.716665,320.45434 120.366669,320.377674 119.98,320.377674 C119.579998,320.377674 119.216668,320.447674 118.89,320.587674 C118.563332,320.727675 118.283335,320.921007 118.05,321.167674 C117.816666,321.414342 117.630001,321.704339 117.49,322.037674 C117.349999,322.371009 117.273333,322.731006 117.26,323.117674 L122.58,323.117674 Z M117.26,324.617674 C117.26,325.017676 117.316666,325.404339 117.43,325.777674 C117.543334,326.15101 117.713332,326.477673 117.94,326.757674 C118.166668,327.037676 118.453332,327.261007 118.8,327.427674 C119.146668,327.594342 119.559998,327.677674 120.04,327.677674 C120.70667,327.677674 121.243331,327.534343 121.65,327.247674 C122.056669,326.961006 122.359999,326.531011 122.56,325.957674 L124.72,325.957674 C124.599999,326.517677 124.393335,327.017672 124.1,327.457674 C123.806665,327.897677 123.453335,328.267673 123.04,328.567674 C122.626665,328.867676 122.163336,329.09434 121.65,329.247674 C121.136664,329.401009 120.600003,329.477674 120.04,329.477674 C119.226663,329.477674 118.50667,329.344342 117.88,329.077674 C117.25333,328.811006 116.723336,328.437677 116.29,327.957674 C115.856665,327.477672 115.530001,326.904344 115.31,326.237674 C115.089999,325.571004 114.98,324.837678 114.98,324.037674 C114.98,323.304337 115.096666,322.607678 115.33,321.947674 C115.563335,321.287671 115.896665,320.707677 116.33,320.207674 C116.763336,319.707672 117.286664,319.311009 117.9,319.017674 C118.513336,318.72434 119.206663,318.577674 119.98,318.577674 C120.793337,318.577674 121.52333,318.747673 122.17,319.087674 C122.81667,319.427676 123.353331,319.877672 123.78,320.437674 C124.206669,320.997677 124.516666,321.641004 124.71,322.367674 C124.903334,323.094345 124.953334,323.844337 124.86,324.617674 L117.26,324.617674 Z M126.66,318.857674 L128.82,318.857674 L128.82,320.257674 L128.86,320.257674 C129.180002,319.657671 129.626664,319.227676 130.2,318.967674 C130.773336,318.707673 131.39333,318.577674 132.06,318.577674 C132.873337,318.577674 133.58333,318.721006 134.19,319.007674 C134.79667,319.294343 135.299998,319.687672 135.7,320.187674 C136.100002,320.687677 136.399999,321.271004 136.6,321.937674 C136.800001,322.604344 136.9,323.317671 136.9,324.077674 C136.9,324.771011 136.810001,325.444338 136.63,326.097674 C136.449999,326.751011 136.176669,327.327672 135.81,327.827674 C135.443331,328.327677 134.980003,328.727673 134.42,329.027674 C133.859997,329.327676 133.200004,329.477674 132.44,329.477674 C132.106665,329.477674 131.773335,329.447675 131.44,329.387674 C131.106665,329.327674 130.786668,329.231008 130.48,329.097674 C130.173332,328.96434 129.890001,328.794342 129.63,328.587674 C129.369999,328.381007 129.153334,328.137676 128.98,327.857674 L128.94,327.857674 L128.94,333.017674 L126.66,333.017674 L126.66,318.857674 Z M134.62,324.037674 C134.62,323.571005 134.560001,323.117677 134.44,322.677674 C134.319999,322.237672 134.140001,321.847676 133.9,321.507674 C133.659999,321.167673 133.360002,320.894342 133,320.687674 C132.639998,320.481007 132.226669,320.377674 131.76,320.377674 C130.799995,320.377674 130.076669,320.711004 129.59,321.377674 C129.103331,322.044344 128.86,322.931002 128.86,324.037674 C128.86,324.557677 128.923333,325.041006 129.05,325.487674 C129.176667,325.934343 129.366665,326.317673 129.62,326.637674 C129.873335,326.957676 130.176665,327.211007 130.53,327.397674 C130.883335,327.584342 131.293331,327.677674 131.76,327.677674 C132.280003,327.677674 132.719998,327.571009 133.08,327.357674 C133.440002,327.14434 133.736666,326.867676 133.97,326.527674 C134.203334,326.187673 134.37,325.80101 134.47,325.367674 C134.570001,324.934339 134.62,324.49101 134.62,324.037674 Z M137.68,318.857674 L140.18,318.857674 L142.88,326.577674 L142.92,326.577674 L145.54,318.857674 L147.92,318.857674 L143.9,329.757674 C143.713332,330.224343 143.530001,330.671006 143.35,331.097674 C143.169999,331.524343 142.950001,331.901006 142.69,332.227674 C142.429999,332.554343 142.106669,332.81434 141.72,333.007674 C141.333331,333.201009 140.840003,333.297674 140.24,333.297674 C139.706664,333.297674 139.180003,333.257675 138.66,333.177674 L138.66,331.257674 C138.846668,331.284341 139.026666,331.314341 139.2,331.347674 C139.373334,331.381008 139.553332,331.397674 139.74,331.397674 C140.006668,331.397674 140.226666,331.364341 140.4,331.297674 C140.573334,331.231007 140.716666,331.134342 140.83,331.007674 C140.943334,330.881007 141.04,330.731009 141.12,330.557674 C141.2,330.38434 141.273333,330.184342 141.34,329.957674 L141.6,329.157674 L137.68,318.857674 Z" id="Наведи-камеру" fill="#FFFFFF"></path>
                </g>
            </g>
        </g>
    </g>
</svg>