<?xml version="1.0" encoding="UTF-8"?>
<svg width="56px" height="56px" viewBox="0 0 56 56" version="1.1" xmlns="http://www.w3.org/2000/svg" xmlns:xlink="http://www.w3.org/1999/xlink">
    <!-- Generator: Sketch 52.2 (67145) - http://www.bohemiancoding.com/sketch -->
    <title>icon-usability</title>
    <desc>Created with Sketch.</desc>
    <g id="corporate-website-EN" stroke="none" stroke-width="1" fill="none" fill-rule="evenodd">
        <g id="widget-copy-2" transform="translate(-160.000000, -1150.000000)" fill-rule="nonzero">
            <g id="icon-usability" transform="translate(160.000000, 1150.000000)">
                <rect id="Rectangle" fill="#007AFF" x="0" y="0" width="56" height="56" rx="13"></rect>
                <g id="Shape-2" transform="translate(15.000000, 15.000000)" fill="#FFFFFF">
                    <path d="M16.5454545,8.27274069 L22.0393447,8.27280305 C23.0794954,8.2610239 24.0723435,8.70662464 24.754912,9.49157846 C25.4374806,10.2765323 25.7408985,11.3216375 25.5845292,12.351846 L23.9539131,22.9862881 C23.6888215,24.7343321 22.176376,26.0199109 20.4218318,26 L7.09092268,26.0001532 C6.43821721,26.0001607 5.90909091,25.4710405 5.90909091,24.8183351 L5.90909091,11.8181818 C5.90909091,11.6528238 5.94379173,11.4893061 6.01094999,11.3382 L10.7382227,0.701836358 C10.9279061,0.275048707 11.3511406,-1.78372468e-12 11.8181818,-1.78346227e-12 C14.4289825,-1.78201898e-12 16.5454545,2.11647209 16.5454545,4.72727273 L16.5454545,8.27274069 Z M8.27272727,23.6365158 L20.4351778,23.6364391 C21.0244836,23.6431013 21.5286321,23.214575 21.617289,22.6299722 L23.247928,11.9953788 C23.2999612,11.652566 23.1988218,11.3041976 22.971299,11.0425463 C22.7437761,10.7808951 22.4128268,10.6323615 22.0527273,10.6363636 L15.3636364,10.6363636 C14.7109362,10.6363636 14.1818182,10.1072456 14.1818182,9.45454545 L14.1818182,4.72727273 C14.1818182,3.67242318 13.4908212,2.77896463 12.5367837,2.47485366 L8.27272727,12.0689807 L8.27272727,23.6365158 Z M5.90909091,23.6363636 L5.90909091,13 L3.54545455,13 C2.89275439,13 2.36363636,13.529118 2.36363636,14.1818182 L2.36363636,22.4545455 C2.36363636,23.1072456 2.89275439,23.6363636 3.54545455,23.6363636 L5.90909091,23.6363636 Z M7.09090909,26 L3.54545455,26 C1.58735407,26 9.41469125e-13,24.4126459 9.41469125e-13,22.4545455 L9.41469125e-13,14.1818182 C9.40944292e-13,12.2237177 1.58735407,10.6363636 3.54545455,10.6363636 L7.09090909,10.6363636 C7.74360925,10.6363636 8.27272727,11.1654817 8.27272727,11.8181818 L8.27272727,24.8181818 C8.27272727,25.470882 7.74360925,26 7.09090909,26 Z" id="Shape"></path>
                </g>
            </g>
        </g>
    </g>
</svg>