<?xml version="1.0" encoding="UTF-8"?>
<svg width="56px" height="56px" viewBox="0 0 56 56" version="1.1" xmlns="http://www.w3.org/2000/svg" xmlns:xlink="http://www.w3.org/1999/xlink">
    <!-- Generator: Sketch 52.2 (67145) - http://www.bohemiancoding.com/sketch -->
    <title>icon-promote-in-messengers</title>
    <desc>Created with Sketch.</desc>
    <g id="corporate-website-EN" stroke="none" stroke-width="1" fill="none" fill-rule="evenodd">
        <g id="widget-copy-2" transform="translate(-900.000000, -1150.000000)" fill-rule="nonzero">
            <g id="icon-promote-in-messengers" transform="translate(900.000000, 1150.000000)">
                <rect id="Rectangle-Copy-8" fill="#FF2D55" x="0" y="0" width="56" height="56" rx="13"></rect>
                <g id="radio" transform="translate(15.000000, 17.000000)" fill="#FFFFFF">
                    <path d="M13,14.1818182 C11.0418995,14.1818182 9.45454545,12.5944641 9.45454545,10.6363636 C9.45454545,8.67826316 11.0418995,7.09090909 13,7.09090909 C14.9581005,7.09090909 16.5454545,8.67826316 16.5454545,10.6363636 C16.5454545,12.5944641 14.9581005,14.1818182 13,14.1818182 Z M13,11.8181818 C13.6527002,11.8181818 14.1818182,11.2890638 14.1818182,10.6363636 C14.1818182,9.98366348 13.6527002,9.45454545 13,9.45454545 C12.3472998,9.45454545 11.8181818,9.98366348 11.8181818,10.6363636 C11.8181818,11.2890638 12.3472998,11.8181818 13,11.8181818 Z" id="Oval"></path>
                    <path d="M17.1757024,6.46159091 C16.713917,6.000319 16.7135008,5.25203323 17.1747727,4.79024787 C17.6360446,4.3284625 18.3843304,4.32804627 18.8461158,4.78931818 C20.399544,6.34101922 21.2723963,8.4466144 21.2723963,10.6422727 C21.2723963,12.8379311 20.399544,14.9435262 18.8461158,16.4952273 C18.3843304,16.9564992 17.6360446,16.956083 17.1747727,16.4942976 C16.7135008,16.0325122 16.713917,15.2842265 17.1757024,14.8229545 C18.285294,13.7145967 18.9087599,12.2106001 18.9087599,10.6422727 C18.9087599,9.07394535 18.285294,7.56994879 17.1757024,6.46159091 Z M8.82429759,14.8111364 C9.28608295,15.2724083 9.28649918,16.020694 8.82522727,16.4824794 C8.36395536,16.9442648 7.61566959,16.944681 7.15388423,16.4834091 C5.60045597,14.9317081 4.72760371,12.8261129 4.72760371,10.6304545 C4.72760371,8.43479622 5.60045597,6.32920104 7.15388423,4.7775 C7.61566959,4.31622809 8.36395536,4.31664432 8.82522727,4.77842968 C9.28649918,5.24021505 9.28608295,5.98850082 8.82429759,6.44977273 C7.71470597,7.55813061 7.09124007,9.06212717 7.09124007,10.6304545 C7.09124007,12.1987819 7.71470597,13.7027785 8.82429759,14.8111364 Z M20.5196567,3.11645455 C20.0581977,2.65485615 20.0583107,1.90657028 20.5199091,1.44511126 C20.9815075,0.983652251 21.7297934,0.983765242 22.1912524,1.44536364 C27.2662176,6.52186171 27.2662176,14.7508656 22.1912524,19.8273636 C21.7297934,20.288962 20.9815075,20.289075 20.5199091,19.827616 C20.0583107,19.366157 20.0581977,18.6178711 20.5196567,18.1562727 C24.671901,14.0027743 24.671901,7.26995297 20.5196567,3.11645455 Z M5.48034328,18.1562727 C5.94180229,18.6178711 5.9416893,19.366157 5.48009091,19.827616 C5.01849252,20.289075 4.27020664,20.288962 3.80874763,19.8273636 C-1.26621757,14.7508656 -1.26621757,6.52186171 3.80874763,1.44536364 C4.27020664,0.983765242 5.01849252,0.983652251 5.48009091,1.44511126 C5.9416893,1.90657028 5.94180229,2.65485615 5.48034328,3.11645455 C1.32809903,7.26995297 1.32809903,14.0027743 5.48034328,18.1562727 Z" id="Shape"></path>
                </g>
            </g>
        </g>
    </g>
</svg>