<?xml version="1.0" encoding="UTF-8"?>
<svg width="56px" height="56px" viewBox="0 0 56 56" version="1.1" xmlns="http://www.w3.org/2000/svg" xmlns:xlink="http://www.w3.org/1999/xlink">
    <!-- Generator: sketchtool 52.2 (67145) - http://www.bohemiancoding.com/sketch -->
    <title>0994FCE0-D7E4-4E13-AA4A-33D8B4A97A2A</title>
    <desc>Created with sketchtool.</desc>
    <g id="corporate-website-EN" stroke="none" stroke-width="1" fill="none" fill-rule="evenodd">
        <g id="homepage" transform="translate(-900.000000, -2904.000000)">
            <g id="block-with-advantages" transform="translate(160.000000, 2740.000000)">
                <g id="icon-users" transform="translate(740.000000, 164.000000)">
                    <rect id="Rectangle-Copy-8" fill="#5856D6" fill-rule="nonzero" x="0" y="0" width="56" height="56" rx="13"></rect>
                    <g transform="translate(17.000000, 19.000000)" stroke="#FFFFFF" stroke-linecap="round" stroke-linejoin="round" stroke-width="2">
                        <path d="M16,18 L16,16 C16,13.790861 14.209139,12 12,12 L4,12 C1.790861,12 2.22044605e-16,13.790861 0,16 L0,18" id="Path"></path>
                        <circle id="Oval" cx="8" cy="4" r="4"></circle>
                        <path d="M22,18 L22,16 C21.9986403,14.1771177 20.7649988,12.5857202 19,12.13" id="Path"></path>
                        <path d="M15,0.13 C16.7699148,0.583169788 18.0078433,2.17799115 18.0078433,4.005 C18.0078433,5.83200885 16.7699148,7.42683021 15,7.88" id="Path"></path>
                    </g>
                </g>
            </g>
        </g>
    </g>
</svg>