<svg xmlns="http://www.w3.org/2000/svg" width="36" height="36" viewBox="0 0 36 36">
    <g fill="#FFFFFF" fill-rule="nonzero">
        <path d="M7.548 4.5v15.75c0 .932.78 1.688 1.742 1.688s1.742-.756 1.742-1.688V4.5c0-.932-.78-1.688-1.742-1.688S7.548 3.569 7.548 4.5zM21.484 6.75V22.5c0 .932.78 1.688 1.742 1.688s1.742-.756 1.742-1.688V6.75c0-.932-.78-1.688-1.742-1.688s-1.742.756-1.742 1.688zM14.516 2.25V18c0 .932.78 1.688 1.742 1.688S18 18.931 18 18V2.25c0-.932-.78-1.688-1.742-1.688s-1.742.756-1.742 1.688z"/>
        <path d="M32.922 24.355l-14.704 6.858c-4.912 2.291-10.811.291-13.176-4.467a9.316 9.316 0 0 1-.977-4.149V10.125c0-.932-.78-1.688-1.742-1.688S.58 9.194.58 10.126v12.472c0 1.944.452 3.862 1.322 5.613 3.2 6.438 11.18 9.144 17.826 6.044l14.704-6.859c.867-.404 1.231-1.412.814-2.252-.417-.84-1.458-1.193-2.325-.788z"/>
    </g>
</svg>
